<?xml version="1.0" encoding="utf-8"?>
<!-- Generator: Adobe Illustrator 25.4.1, SVG Export Plug-In . SVG Version: 6.00 Build 0)  -->
<svg version="1.1" id="Capa_1" xmlns="http://www.w3.org/2000/svg" xmlns:xlink="http://www.w3.org/1999/xlink" x="0px" y="0px"
	 viewBox="0 0 21.5 18.8" style="enable-background:new 0 0 21.5 18.8;" xml:space="preserve">
<style type="text/css">
	.st0{fill:#006581;}
</style>
<path class="st0" d="M20.6,3.5l-0.5-0.4c-2.6-2-5.8-3.1-9.1-3.1h-0.7C7.1,0,3.9,1.1,1.3,3.1L0.8,3.5c-0.9,0.7-1.1,2.1-0.4,3l0,0
	C0.8,7,1.5,7.4,2.2,7.4h17.2C20,7.3,20.6,7,21,6.5l0,0C21.7,5.6,21.6,4.2,20.6,3.5z M4.6,5.1C4.3,5.1,4,5,4,4.4
	C4.1,4,4.3,3.6,4.6,3.2C4.9,3.6,5,4,5.1,4.4C5.1,5,4.9,5.1,4.6,5.1z M10.3,3.9c-0.3,0-0.6-0.2-0.6-0.7c0.1-0.5,0.3-0.9,0.6-1.2
	c0.3,0.4,0.5,0.8,0.6,1.2C10.9,3.7,10.6,3.9,10.3,3.9L10.3,3.9z M16.3,5.1c-0.3,0-0.6-0.2-0.6-0.7C15.8,4,16,3.6,16.3,3.2
	c0.3,0.4,0.5,0.8,0.5,1.2C16.8,5,16.6,5.1,16.3,5.1L16.3,5.1z"/>
<path class="st0" d="M18.4,13.6h-16c-1.3,0-2.4-1.1-2.4-2.4l0,0c0-1.4,1.1-2.4,2.5-2.4h7.9l2.8,3l3.7-3h1.6c1.4,0,2.5,1.1,2.5,2.4
	c0,0,0,0,0,0l0,0C20.9,12.5,19.8,13.6,18.4,13.6L18.4,13.6z"/>
<path class="st0" d="M0.3,14.8h20l0,0v1.4c0,1.4-1.1,2.5-2.5,2.5c0,0,0,0,0,0H2.9c-1.4,0-2.5-1.1-2.5-2.5l0,0V14.8L0.3,14.8z"/>
</svg>
