<?xml version="1.0" encoding="utf-8"?>
<!-- Generator: Adobe Illustrator 25.4.1, SVG Export Plug-In . SVG Version: 6.00 Build 0)  -->
<svg version="1.1" id="Capa_1" xmlns="http://www.w3.org/2000/svg" xmlns:xlink="http://www.w3.org/1999/xlink" x="0px" y="0px"
	 viewBox="0 0 21.1 21" style="enable-background:new 0 0 21.1 21;" xml:space="preserve">
<style type="text/css">
	.st0{fill:#006581;}
</style>
<path class="st0" d="M0.5,4.8l4.7,6.1c0.4,0.5,1.2,0.6,1.7,0.2C7,11,7,11,7,11l1-1l8.5,10.4c0.7,0.8,1.9,0.8,2.7,0.1
	c0,0,0,0,0.1-0.1l0,0c0.7-0.7,0.7-1.9,0-2.7L3.3,1.8c-0.7-0.7-1.9-0.7-2.7,0c0,0,0,0,0,0l0,0C-0.1,2.6-0.2,3.9,0.5,4.8z"/>
<path class="st0" d="M12.2,7.7l-1.2,1l1.5,1.5l1-1.2c0.8,0.7,1.9,0.6,2.6-0.1L17,8.1l0.3-0.3L21,4.2c0.2-0.2,0.2-0.5,0-0.7l-0.1-0.1
	c-0.2-0.2-0.5-0.2-0.6,0l-3.7,3.7l-0.9-0.8l3.7-3.7c0.2-0.2,0.2-0.5,0-0.6l-0.1-0.1c-0.2-0.2-0.5-0.2-0.6,0l-3.7,3.7L14,4.6l3.7-3.7
	c0.2-0.2,0.2-0.5,0-0.6l-0.1-0.1c-0.2-0.2-0.5-0.2-0.6,0l-3.7,3.7L13,4.1l-0.8,0.8C11.4,5.7,11.4,6.9,12.2,7.7L12.2,7.7z"/>
<path class="st0" d="M8.3,11.2l-7.5,6.8c-0.7,0.6-0.8,1.8-0.2,2.5s1.8,0.8,2.5,0.2c0.1-0.1,0.1-0.1,0.2-0.2l6.6-7.3L8.3,11.2z"/>
</svg>
