<?xml version="1.0" encoding="utf-8"?>
<!-- Generator: Adobe Illustrator 25.4.1, SVG Export Plug-In . SVG Version: 6.00 Build 0)  -->
<svg version="1.1" id="Capa_1" xmlns="http://www.w3.org/2000/svg" xmlns:xlink="http://www.w3.org/1999/xlink" x="0px" y="0px"
	 viewBox="0 0 39.1 38.8" style="enable-background:new 0 0 39.1 38.8;" xml:space="preserve">
<style type="text/css">
	.st0{fill:#00658E;}
	.st1{fill:#6DA854;}
</style>
<path class="st0" d="M15.5,27h8.1l0,0l0,0c0,2.1-1.7,3.9-3.9,3.9h-0.3C17.3,30.9,15.5,29.1,15.5,27L15.5,27L15.5,27z"/>
<path class="st0" d="M27.7,15.2c0-4.5-3.6-8.2-8.2-8.2s-8.2,3.6-8.2,8.2c0,1.9,0.7,3.8,1.9,5.3l0,0l2.7,4.2h7.2l2.6-4.2l0,0
	C27.1,19,27.7,17.1,27.7,15.2z M19.7,11.1c0,0-2.2-0.4-3.4,0.8c-0.7,0.8-1.1,1.9-1,3c0,0.3-0.2,0.5-0.4,0.6h-0.1
	c-0.2,0-0.5-0.2-0.5-0.4c-0.2-1.4,0.3-2.8,1.2-3.9c1.6-1.6,4.1-1.1,4.2-1.1c0.3,0.1,0.4,0.3,0.4,0.6C20.2,11,20,11.2,19.7,11.1
	C19.7,11.1,19.7,11.1,19.7,11.1L19.7,11.1z"/>
<path class="st1" d="M36.6,19.3c0,0.2,0.2,0.1,0.2,0.1C36.8,19.1,36.5,19.3,36.6,19.3z"/>
<polygon class="st1" points="35.9,16.7 36,16.8 35.7,16.4 "/>
<path class="st1" d="M35.3,14.4c-0.3,0.3,0.3,0.8,0.2,1.2l-0.1,0.1l0.3,0.1C35.6,15.4,35.5,14.9,35.3,14.4z"/>
<path class="st1" d="M35.6,13c-0.1,0.1-0.2-0.2,0.1,0.3c0,0,0,0,0-0.1C35.7,13.2,35.7,13.1,35.6,13z"/>
<path class="st1" d="M35.7,13.2C35.8,13.4,35.7,13,35.7,13.2z"/>
<path class="st1" d="M35.2,12.1l0.3,0.3c0-0.1-0.1-0.4,0-0.3C35.2,11.8,35.2,11.9,35.2,12.1z"/>
<path class="st1" d="M34.8,11.9l0.1,0.1C34.9,12.1,34.9,12,34.8,11.9z"/>
<path class="st1" d="M35.2,12.4l-0.3-0.3c0,0.1-0.1,0.1,0.1,0.1C34.9,12.2,35,12.3,35.2,12.4z"/>
<path class="st1" d="M35.2,12.6c0,0.2,0,0.4-0.2,0.2C35.3,13.3,35.5,13.2,35.2,12.6z"/>
<path class="st1" d="M35,14.4c0,0.1,0,0.2,0,0.3l0.2,0.2C35,14.8,35.1,14.4,35,14.4z"/>
<path class="st1" d="M34.3,10.2c-0.1,0-0.1,0.2-0.2,0.3l0.2,0.2C34.3,10.5,34.2,10.2,34.3,10.2z"/>
<path class="st1" d="M34.1,10.4l-0.3-0.2C34,10.5,34.1,10.5,34.1,10.4z"/>
<polygon class="st1" points="34.4,12.1 34.9,12.5 34.4,12 "/>
<polygon class="st1" points="33.5,9 33.8,9 33.3,8.9 "/>
<path class="st1" d="M32.9,8.2c0.2,0,0-0.3,0.2-0.2c-0.2-0.2-0.4-0.3-0.7-0.3C32.6,7.7,32.8,8,32.9,8.2z"/>
<path class="st1" d="M32.1,7.5c0.1,0.1,0.2,0.1,0.3,0.1C32.3,7.5,32.2,7.5,32.1,7.5z"/>
<path class="st1" d="M33.5,9.6c0.1-0.1,0.1-0.2,0-0.4l-0.1,0.2L33.5,9.6z"/>
<path class="st1" d="M33.4,9.5L33.4,9.5l-0.2-0.3L33.4,9.5z"/>
<path class="st1" d="M33.5,9.7L33.5,9.7C33.5,9.7,33.5,9.7,33.5,9.7z"/>
<path class="st1" d="M34.2,11.1c-0.2-0.1-0.6-0.4-0.5,0C33.9,11.2,33.8,10.9,34.2,11.1z"/>
<path class="st1" d="M33.4,10c0.1,0.1,0.1,0.2,0.2,0.4c0,0,0.1-0.1,0.2-0.1C33.7,10.1,33.5,10,33.4,10z"/>
<polygon class="st1" points="33.2,9.8 33.4,10 33.3,9.8 "/>
<path class="st1" d="M32.4,8.1c-0.2-0.1-0.3-0.2-0.5-0.3c0.1,0.2,0.3,0.4,0.4,0.6C32.4,8.3,32.6,8.3,32.4,8.1z"/>
<path class="st1" d="M32.9,8.8L32.9,8.8C32.9,8.8,32.9,8.8,32.9,8.8z"/>
<polygon class="st1" points="30.4,6.3 30.4,6.4 30.5,6.4 "/>
<path class="st1" d="M32.3,8.4c0.1,0.1,0.2,0.2,0.3,0.2C32.5,8.5,32.4,8.4,32.3,8.4C32.4,8.3,32.3,8.3,32.3,8.4z"/>
<path class="st1" d="M31.6,7.1l0.1,0.3C31.7,7.3,31.7,7.1,31.6,7.1z"/>
<path class="st1" d="M32.9,8.7L32.9,8.7C32.9,8.6,32.9,8.7,32.9,8.7z"/>
<path class="st1" d="M32.9,8.7c-0.1,0-0.2-0.1-0.2-0.1C32.7,8.6,32.8,8.7,32.9,8.7C32.9,8.7,32.9,8.7,32.9,8.7z"/>
<path class="st1" d="M29.1,7c0.1-0.1,0.6,0,0.7,0.4c0.4,0.1,0.6-0.5,0.6-1c-0.1,0.1-0.1,0.1-0.5,0c0,0.2,0.5,0.7,0.1,0.7
	c-0.4-0.2-0.3-0.3-0.4-0.5c0,0.3-0.7-0.1-0.9,0.3l0.4,0.2C29.2,6.9,29,6.9,29.1,7z"/>
<path class="st1" d="M31,6.9L31.1,7c-0.1-0.2-0.2-0.4-0.2-0.6c-0.3-0.1-0.4-0.1-0.4-0.1L31,6.9L31,6.9z"/>
<path class="st1" d="M31.6,7.5c-0.2,0.1-0.6-0.1-0.6,0.2c0.3,0.3,0.4,0.1,0.6,0.2C31.1,7.4,31.9,8,31.6,7.5c0.2,0.1,0.3,0.2,0.4,0.3
	c-0.1-0.1-0.1-0.2-0.2-0.4l0,0l0,0c0,0,0,0.1,0,0l0,0L31.6,7.5c0-0.3,0.1-0.2,0.2-0.1l0,0l0,0c-0.2-0.2-0.4-0.3-0.6-0.4
	C31.3,7.1,31.5,7.3,31.6,7.5z"/>
<path class="st1" d="M33.1,11.1L33.1,11.1C33.1,11.1,33,11,33.1,11.1z"/>
<path class="st1" d="M33,10.7c0,0,0.2,0,0.2,0.2S33.1,11,33.1,11c0.1,0.1,0.3,0.2,0.2-0.1h0c-0.1-0.3-0.1-0.8,0-0.7
	C33.1,10.3,33.1,10.5,33,10.7z"/>
<path class="st1" d="M32.4,9.1c-0.2-0.1-0.3-0.3-0.5-0.4L32,9.1L32,9C32.2,9.3,32.3,9.1,32.4,9.1z"/>
<path class="st1" d="M30.5,6.2l0.2-0.1c-0.2,0-0.3,0-0.5,0L30.5,6.2z"/>
<polygon class="st1" points="29.8,5.7 29.9,5.6 29.7,5.5 "/>
<path class="st1" d="M7,26.8l0.1,0.1C7.1,26.9,7,26.8,7,26.8z"/>
<path class="st1" d="M6.5,25.8L6.5,25.8C6.4,25.8,6.5,25.8,6.5,25.8z"/>
<path class="st1" d="M10.6,4.9C10.3,4.9,9.8,4.8,10,5l0.2,0.1C10.3,5,10.5,4.9,10.6,4.9z"/>
<path class="st1" d="M4.1,16.3L4.1,16.3L4.1,16C4.1,16.1,4.1,16.2,4.1,16.3z"/>
<path class="st1" d="M5,16.6l-0.2,0.3C4.9,16.8,5,16.7,5,16.6z"/>
<path class="st1" d="M11.4,31.2l0.3-0.1C11.5,31,11.5,31.2,11.4,31.2z"/>
<path class="st1" d="M22,2.6c-0.2-0.1-0.4-0.2-0.6-0.2C21.7,2.5,21.9,2.8,22,2.6z"/>
<path class="st1" d="M4.8,27.5c0.1,0.1,0.2,0.1,0.2,0.1S4.8,27.5,4.8,27.5z"/>
<path class="st1" d="M20.7,2.3l0.1,0.1c0.2,0,0.4,0,0.6,0C21.2,2.2,21,2.2,20.7,2.3z"/>
<path class="st1" d="M31.6,27.5L31.6,27.5C31.6,27.5,31.6,27.5,31.6,27.5z"/>
<path class="st1" d="M36.2,21.6c0,0.1,0,0.2,0,0.3C36.2,21.8,36.2,21.7,36.2,21.6z"/>
<path class="st1" d="M27,3.9C27.2,4,27,3.9,27,3.9z"/>
<path class="st1" d="M27.3,5c0,0-0.1,0-0.1,0.1C27.2,5,27.3,5,27.3,5z"/>
<path class="st1" d="M19,3.6L19,3.6C19,3.6,19.1,3.7,19,3.6z"/>
<path class="st1" d="M27.1,4.1c0,0-0.1-0.1-0.1-0.1L27.1,4.1z"/>
<path class="st1" d="M27.2,4l0.1,0.1C27.3,4.1,27.3,4,27.2,4z"/>
<path class="st1" d="M26.7,3.8C26.8,3.9,26.9,3.9,27,4l0,0L26.7,3.8z"/>
<path class="st1" d="M21.6,34.4L21.6,34.4C21.7,34.3,21.7,34.3,21.6,34.4z"/>
<polygon class="st1" points="8.7,9.3 8.8,9.3 8.7,9.3 "/>
<path class="st1" d="M8.5,9.8c0-0.4,0.1-0.4,0.2-0.5L8.1,9L8.5,9.8z"/>
<path class="st1" d="M8.7,29l-0.1-0.4c0.6,0.1,0.7,0.4,0.6,0c-0.3,0.2-0.5,0-0.8-0.3S8,27.7,7.7,27.9v-0.3c0,0.1,0.1,0,0.1,0.1
	c0-0.6-0.6,0-0.9-0.6c-0.1-0.2-0.1-0.4,0.1-0.3l-0.4-0.3c-0.1-0.1,0.1-0.1,0.1,0c-0.1-0.2-0.2-0.4-0.4-0.6l0,0
	c-0.2-0.1-0.3-0.2-0.5-0.3c0-0.2,0.1,0.1,0.2,0c-0.1-0.1-0.2-0.2-0.3-0.3c0.1-0.2,0.4,0,0.5,0.3c0.4-0.6-0.3-0.2-0.2-1.2l0.2,0.3
	c0.3-0.4,0-0.6,0.1-1.1c-0.1,0.1-0.3,1-0.6,0.6c0-0.2-0.1-0.4-0.2-0.5c0.2-0.1,0.1-0.3,0-0.6l0.3-0.1c-0.2-0.3-0.3-0.2-0.5-0.4
	c-0.1-0.4,0.2-0.5,0.4-0.6c0-0.6-0.3,0.5-0.5-0.2c0.1-0.5-0.2-0.8-0.4-1.3c0.1-0.3,0.2,0,0.3-0.1l-0.3-0.3c0-0.1,0.1,0,0.1,0
	c-0.1-0.2-0.3,0-0.4-0.4c-0.2,0-0.1-0.3,0.1-0.5s0.3-0.5,0.1-0.8c0.1-0.1,0.2,0.1,0.3,0c-0.1-0.4-0.3-0.8-0.4-1.2L4.8,17
	c-0.3,0.3-0.5-0.2-0.7-0.6c-0.1,0.1-0.2,0.2-0.3,0.3c0-0.2,0-0.5,0-0.7c0.1-0.1,0.2,0,0.3,0.2v-0.1c0.2-0.2,0.3,0,0.5,0.2l-0.2,0.2
	c0.2,0.2,0.4,0.4,0.5,0.4c0-0.1-0.1-0.1-0.1-0.2c0,0,0.1,0.1,0.1,0.1s0-0.1-0.1-0.2l0.4-0.1L5,16.1l0.4-0.7
	c-0.3-0.7-0.4-1.5-0.3-2.3c0.1,0.3,0.4,0.2,0.7,0.4c-0.4,0.1-0.1,0.7-0.3,1.1c0.1-0.2,0.2-0.1,0.3,0v-0.9c0.2,0.1,0.2-0.1,0.4-0.2
	c-0.5-0.1,0-0.7,0-1.1c0.2,0.1,0.3,0.2,0.1,0.6c0.5-0.2-0.3-0.8,0.3-1.1c-0.1,0.1-0.1,0.1,0,0.2c0-0.3,0.4-0.7,0.5-0.5l-0.1,0.1
	C7.2,11,8,9.9,7.7,9.5C7.9,9.7,8,9.8,8.1,10C8,9.4,7.9,8.8,7.9,8.1C8.1,8.5,9,8.8,8.8,9.3C9,9.2,9.1,9,9.2,8.8
	c-0.1,0-0.6-0.2-0.5-0.3c0.3,0,0.7,0,1-0.1C9.6,8.4,9.3,7.8,9.5,7.7c0,0.1,0.4,0.4,0.4,0.5c0-0.3,0.1-0.6,0.1-0.8
	c-0.1,0.2,0.3,0.4,0.5,0.4c-0.1,0,0.5-0.3,0.6-0.5l-0.3,0.1c0.6-0.4,0.2-1.1,0.8-1.5c0,0.2,0.2,0.7,0.5,0.6C12,5.7,12.2,5,12.7,4.4
	l0.2,0.1c0.1-0.1,0.3-0.3,0.4-0.4c-0.2,0.5-0.6,1.8-0.8,2.3c0.3,0,0.2,0.1,0.5-0.1c0.2,0.1-0.1,0.3-0.2,0.4l0.9-0.3
	c-0.1-0.1,0-0.3,0.2-0.4s0.3-0.3,0.2-0.4c-0.3,0.2-0.6,0.5-0.8,0.7c-0.2-0.3,0.1-1.2,0.8-1.3c0.2,0.1,0.1,0.6,0.1,0.7
	c0-0.1,0.5-0.4,0.6-0.4l-0.2,0.3c0.4,0,0.4-0.6,1-0.4c0.2,0,0.6,0.3,0.5,0.1c-0.4-0.5-0.6-1.1-0.6-1.8c0.4,0,0.8,0.1,1.2,0.3
	c0.3,0.3-0.3,0.8,0,1c0-0.1,0.1-0.2,0.2-0.3s0,0.3,0.3,0.2c0-0.3,0.7-0.1,0.1-0.3c0.3-0.1,0.4,0,0.8,0c-0.2-0.2,0.3-0.8,0.7-0.9
	c0,0.1,0.1,0.2,0.1,0.2c0.8,0,1.2,0.2,1.9,0.2C21,4,21.3,4.2,21.1,4.3c0.1-0.1,0.3-0.1,0.4-0.1c0.4,0.3-0.5,0-0.2,0.4
	c0-0.2,0.6-0.2,0.9-0.3c0-0.3-0.7-0.2-1-0.1c0-0.4,0.6-0.8,1.4-0.9c0.6,0,0.2,0.3,0.3,0.3c1.1,0.4,1.2-0.5,2,0.1
	c0.3,0.4-0.2,0.5-0.1,0.7c-0.5-0.1-0.6-0.4-1-0.5l0.4,0.2c-0.2,0-0.5,0-0.7-0.2c0.2,0.3,1.8,0.6,2.5,1.2c0.2,0,0.5,0,0.4-0.1l-0.3,0
	c-0.1-0.3,0.6,0,0.3-0.3c0.5-0.1,0.9,0.1,1.3,0.4l-0.1,0.3c0-0.1-0.2-0.3-0.4-0.3c0.3,0,0.5,0.8,0.9,0.6L28,5.2c0.4,0.1,1,0,1.3,0.4
	c0-0.4-0.1,0-0.2-0.5c0,0.5-1.1-0.7-0.9,0c-0.1-0.5-0.4-0.5-0.7-1c0,0.1,0.1,0.2-0.3,0h-0.1l0,0l0,0l0,0c0.1,0.1,0.1,0.1,0.1,0.2
	c-0.3,0.1-0.9-0.2-1.1-0.2C26,4,26.3,4.1,26.2,4h-0.4c0.1-0.2-0.5-0.6,0.1-0.5l-0.5-0.2C25.3,3,25,2.9,24.6,2.9
	c-0.2-0.1-0.7,0.1-0.4,0l-0.8-0.1v0c-0.4-0.1-0.8-0.1-1.2-0.1c-0.4,0-0.9-0.1-1.3-0.3c-0.3,0.1-0.7,0.1-1,0l-0.1-0.2
	c-0.4,0-1.1-0.2-1.2,0c-0.4-0.5-1.7,0.1-2.3,0.1v0.2C15.8,2.6,15.4,2.8,15,3l0.1,0.2c-0.4,0.3-1.1,0.2-1.8,0.5
	c0-0.1,0.2-0.1,0.3-0.1c-0.5-0.1-0.9,0.1-1.2,0.5c-0.3,0.3-0.7,0.5-1.1,0.6c-0.1,0.1-0.2,0.2-0.4,0.2l0,0h-0.1h-0.3
	c0.1,0,0.2,0,0.2,0c-0.2,0.1-0.3,0.2-0.4,0.4l-0.2-0.2l0,0c-0.2,0-0.1,0.2,0.1,0.3c-0.1,0.1-0.1,0.2-0.1,0.3
	C9.8,5.4,9.8,6.1,9.3,5.9C9.3,6,9.1,6.2,9,6.4S8.7,6.9,8.8,7.1c0,0-0.1,0,0-0.1C8.5,7.1,8.4,7.3,8.3,7.5L8,7.4C8,7.6,7.9,7.8,7.9,8
	C7.5,8.1,7.4,8.1,7.4,7.7C7.2,8.5,7.1,8.3,7,9L6.8,8.8C6.7,9,6.7,9.5,6.5,9.5C5.8,9.7,5,11.6,4.2,12.7c0.6,0-0.5,0.5-0.1,0.7
	c-0.2,0-0.3,0.2-0.3-0.1c-0.1,0.7-0.6,0.9-0.3,1.5c-0.2,0-0.2-0.2-0.2-0.1s0.1,0.2,0,0.3s-0.1-0.1-0.1-0.2c-0.2,0.7,0.2,0.9,0.6,1
	c-0.3,0.3-0.3,0.5-0.1,0.8c-0.2,0.1-0.3,0.3-0.3-0.2c0,0.2-0.4,1.4-0.1,1.5c-0.1,0.1,0,0.3,0,0.4c0,0.4-0.1,0.7-0.1,1.1l0.1-0.1
	c0.4,0.2,0.1,0.4,0.2,0.9l0,0c-0.2,1,0.1,0.4-0.1,1.4l0.2-0.1c0.5,0-0.2,0.9,0.1,1.4l0.1-0.2c0.2,0.2-0.5,1-0.5,1.3
	c0,0.1-0.1-0.1-0.2-0.2c-0.1,0.9,0.3,0,0.5,0.6c-0.1,0.2-0.5,0-0.4,0.4c0,0.2,0.9,1,0.8,1.6c0.1-0.2,0.1-0.3,0.3-0.1
	s0.1,1.3,0.6,1.4c0,0,0,0.1,0,0.1c0.3,0.2,0.7,0.8,1,0.9c-0.5,0.7,1.5,1.4,0.9,1.8L7.8,31H7.7c0.2,0.3,0.6,0.5,1,0.5
	c0.1,0.1-0.1,0.1-0.1,0.1c0.3,0.6,0.9,0.9,1.6,0.9l-0.1,0.2c0.2,0,0.9,1.1,1.9,1.3c0,0-0.1,0.1-0.1,0c0.5,0.2,1.1,0.5,1.5,0.8
	c0.5,0.3,0.9,0.5,1.2,0.1c0.2,0,0.5,0,0.7,0c-0.8-0.3,0.2-0.3-0.1-0.6c0.3,0,0.8,0.5,0.4,0.4l-0.1-0.1c-0.3,0.4,1,0.4,0.9,0.7
	c1.7,0.4,3.4,0.5,5.1,0.5l-0.2-0.3l0.6-0.1c0.2,0.1,0.2,0.2-0.2,0.3c0.2,0.2,0.7-0.3,0.6-0.4c0.8,0-0.2,0.5,0,0.4l0.3-0.1h-0.1
	c0.2-0.2,0.2-0.3,0.7-0.4c0.3,0,0.2,0.2,0.3,0.2s0,0,0.2,0l0.7-0.2l-0.4-0.2c0.3-0.2,0.6-0.2,0.2-0.4c0.3,0.2,1,0,1.6-0.2
	c0.4-0.2,0.9-0.4,1.3-0.6c0.3-0.4,0.7-0.7,1.1-0.9c-0.1,0-0.4-0.2,0-0.4c0.2,0.7,0.9-0.2,1.5-0.1c-0.2,0,0-0.2,0.2-0.5
	s0.4-0.5,0-0.5c0.3-0.2,0.2,0.2,0.5,0.1c0.5-0.8,1.6-1.3,2.3-2.3c-0.1-0.1-0.3,0-0.2-0.3l0.7-0.2c0.1-0.2-0.3-0.5,0.2-0.6
	c-0.1,0-0.2,0-0.2-0.1c0.8-0.9,1.3-1.9,1.6-3c0.2-0.5,0.4-1.1,0.6-1.6c0.2-0.6,0.4-1.1,0.7-1.6c-0.2,0.3-0.2,0.1-0.2-0.2
	c-0.1,0.1-0.2,0-0.3,0c0.2-0.3,0.3-0.6,0.5-0.9c-0.3-0.2,0-1-0.3-1.1v0.3c-0.3-0.4-0.9,0.5-1.3,0.4c0.4,0.5-0.8,1-0.2,1.8
	c-0.1,0.1-0.1-0.2-0.2-0.1c0.2,0.2,0.2,0.4,0,0.8v0c-0.2,0.9-0.6,1.7-1.2,2.4h0.2c-0.1,0.1-0.2,0.2-0.3,0.3c0.2,0.4,0.3-0.6,0.6-0.2
	c-0.3,0.1-0.5,0.5-0.7,0.9S32.3,27,32.1,27c-0.2,0.3,0.3,0,0.1,0.4H32l0.1,0.2c-0.1,0.2-0.3,0.2-0.5,0.1c0,0,0.1-0.2,0.1-0.2
	c-0.3,0.2-0.5,0.8-0.6,0.8l0.3-0.2c-0.5,1-1.6,1.7-2.1,2.6h0.1c-0.5,0.7-0.6,0.3-1.2,0.9l0,0c-0.1,0.2-0.3,0.4-0.5,0.5
	c0.1-0.2-0.5,0-0.3-0.3c-0.6,0.6-0.3,0.4-0.6,1l-0.2-0.1c-0.1,0.2-0.2,0.5-0.5,0.6c0.3-0.3-0.4-0.1-0.1-0.5c-1,0-1.1,0.9-1.7,0.5
	c-0.2,0.6,0.8,0,0.7,0.2c0.2,0.1-0.2,0.5-0.5,0.5s-0.7-0.5-1.4-0.3c0.1,0,0.1,0,0.1-0.1c-0.3-0.1-0.5,0.3-0.9,0.2
	c-0.1,0.3-0.4,0-0.4,0.5l0.7-0.2c-0.4,0.2-0.7,0.7-1.3,0.5c0.1-0.1,0.2-0.2,0.3-0.3c-0.2-0.1-0.4,0.1-0.5,0c0-0.4,0.8-0.2,1.2-0.6
	c-0.2-0.1-0.7,0.4-0.6-0.1C21.5,34,21.3,34,21.1,34c-0.2-0.1-0.5,0-0.7,0.2v-0.2c-0.1,0.1-0.2,0.1-0.4,0.2l0.2-0.3
	c-0.4,0.3-0.8-0.2-1.1-0.1c0.8,0,0.2,0.3,0.5,0.5c-1,0.3-0.6-0.6-1.6-0.6c0.1,0,0.5,0.2,0.3,0.3c-0.2,0-0.4-0.2-0.6-0.3
	c-0.7-0.1,0.1,0.3-0.2,0.4c-0.2-0.3-0.4,0.1-0.7,0.1v-0.2c-0.8-0.3-0.3,0.5-1,0.1l0.4-0.2h-0.4l0.1-0.2c-0.3,0.1-0.7,0-0.9-0.2
	c0,0.2-0.2,0.4-0.6,0.3c-0.2-0.2,0.2-0.2-0.3-0.3c0.2-0.1,0.4-0.2,0.5,0c0-0.1,0.2-0.1,0.2-0.2c-0.2-0.2-0.6-0.3-0.8-0.3
	c0.1,0,0.1,0.1,0.2,0.1c-0.3,0-0.6,0-0.8,0c-0.1-0.1,0-0.2,0.2-0.2c-0.2,0-0.3,0-0.5-0.1c0.1-0.2,0.2-0.3,0.5-0.3l-0.7-0.1
	c0-0.1-0.2-0.4-0.1-0.4c-0.3-0.3-1-0.2-1.4-0.6c-0.1,0-0.1,0-0.2,0c-0.3-0.4-0.7-0.8-1.2-1v-0.5c-0.4-0.2,0,0.6-0.6,0.2
	c-0.5-0.3,0.1-0.4,0-0.5c-0.3-0.1-0.9-0.2-1-0.7C8.5,28.8,8.6,28.9,8.7,29z M5.7,24.2c0.1,0.1,0.3,0.2,0.2,0.4
	C5.6,24.6,5.7,24.4,5.7,24.2L5.7,24.2z M4.8,15.5c0.1,0.1,0,0.2-0.1,0.3C4.7,15.7,4.7,15.6,4.8,15.5L4.8,15.5z M25.1,3.4L25.1,3.4
	C24.9,3.2,24.9,3.2,25.1,3.4z M25.6,3.7C25.7,3.7,25.7,3.7,25.6,3.7c0-0.2-0.1-0.1-0.3-0.1C25.4,3.6,25.4,3.7,25.6,3.7L25.6,3.7z
	 M23.6,35.7h-0.1C23.7,35.5,23.6,35.6,23.6,35.7L23.6,35.7z"/>
<path class="st1" d="M4.9,16.6c0,0-0.1,0-0.1,0C4.8,16.7,4.8,16.7,4.9,16.6z"/>
<path class="st1" d="M11.4,31.2L11.4,31.2L11.4,31.2z"/>
<path class="st1" d="M17,4.8c-0.1,0-0.2,0-0.2-0.1C16.8,4.8,16.9,4.8,17,4.8z"/>
<path class="st1" d="M28.6,4.7l-0.4-0.2c0.1,0.1,0.2,0.1,0.2,0.2C28.5,4.7,28.5,4.6,28.6,4.7z"/>
<path class="st1" d="M30.3,7.8c0.1,0,0.1,0.1,0.1,0.1l0.1-0.1C30.3,7.7,30.1,7.6,30.3,7.8z"/>
<path class="st1" d="M28.5,5.6c-0.1,0.2,0.2,0.2,0.4,0.4l0,0C29.1,5.7,28.8,5.6,28.5,5.6z"/>
<path class="st1" d="M28.9,5.9C29,6,29.1,6,29.1,6.1C29.2,6,29,6,28.9,5.9z"/>
<path class="st1" d="M26.4,3.8c0.1,0.1,0.2-0.2,0.2-0.1C26.8,3.5,25.7,3.6,26.4,3.8z"/>
<polygon class="st1" points="28.3,6.2 28.4,6 28.1,6.1 "/>
<path class="st1" d="M26.7,5.1L27,5.3c0,0,0.1,0,0.1,0C26.9,5.2,26.7,5,26.7,5.1z"/>
<path class="st1" d="M27.1,5.3c0.1,0.1,0.2,0.1,0.3,0.1C27.4,5.4,27.3,5.3,27.1,5.3z"/>
<polygon class="st1" points="27.8,6 27.7,5.9 27.5,5.7 "/>
<path class="st1" d="M22.6,3.7h-0.4c-0.1,0.1,0,0.2,0.2,0.1S22.7,3.7,22.6,3.7z"/>
<path class="st1" d="M23.7,4.6c-0.1-0.1-0.1-0.1-0.1-0.2l-0.1,0.3L23.7,4.6z"/>
<path class="st1" d="M22.5,4.4c-0.1,0.1-0.6,0.2-0.1,0.2C22.5,4.5,22.9,4.5,22.5,4.4z"/>
<polygon class="st1" points="16.2,4.1 16.3,4.1 16.2,3.6 "/>
<path class="st1" d="M11.7,7.3C12.1,7.2,11.6,7,12,6.9c0-0.2-0.4,0.1-0.3-0.1C11.5,7.1,11.4,7.1,11.7,7.3z"/>
<path class="st1" d="M11.7,6.8l0.1-0.1C11.8,6.7,11.7,6.7,11.7,6.8z"/>
<polygon class="st1" points="36.5,20.4 36.7,20 36.5,20.2 "/>
<path class="st1" d="M36.2,19.7l0.3-0.1l-0.3-0.2C36.2,19.5,36.3,19.6,36.2,19.7z"/>
<path class="st1" d="M6.1,23.2L6.1,23.2c-0.2,0.1-0.1,0.1-0.1,0.3L6.1,23.2z"/>
<polygon class="st1" points="7.5,27 7.4,26.9 7.3,27.2 "/>
<path class="st1" d="M9.9,29.3c-0.1-0.1-0.2-0.2-0.3-0.3C9.8,29.2,9.6,29.6,9.9,29.3z"/>
</svg>
