<svg id="Capa_1" data-name="Capa 1" xmlns="http://www.w3.org/2000/svg" viewBox="0 0 98.7 99.25"><defs><style>.cls-1{fill:#a3be00;}.cls-2{fill:#fff;}.cls-3{font-size:9.68px;font-family:Montserrat-Bold, Montserrat;font-weight:700;}.cls-3,.cls-4{fill:#00658e;}.cls-5{fill:#afc620;}</style></defs><title>AM_Iconos</title><polygon class="cls-1" points="49.35 0 54.35 2.1 59.67 1.08 64.12 4.18 69.54 4.29 73.24 8.24 78.52 9.48 81.33 14.11 86.23 16.42 88.01 21.54 92.33 24.81 93 30.19 96.55 34.29 96.09 39.69 98.7 44.44 97.14 49.62 98.7 54.81 96.09 59.56 96.55 64.96 93 69.06 92.33 74.44 88.01 77.71 86.23 82.83 81.33 85.13 78.52 89.77 73.24 91.01 69.54 94.96 64.12 95.07 59.67 98.16 54.35 97.15 49.35 99.25 44.36 97.15 39.03 98.16 34.59 95.07 29.17 94.96 25.46 91.01 20.18 89.77 17.38 85.13 12.47 82.83 10.7 77.71 6.38 74.44 5.7 69.06 2.16 64.96 2.61 59.56 0 54.81 1.57 49.62 0 44.44 2.61 39.69 2.16 34.29 5.7 30.19 6.38 24.81 10.7 21.54 12.47 16.42 17.38 14.11 20.18 9.48 25.46 8.24 29.17 4.29 34.59 4.18 39.03 1.08 44.36 2.1 49.35 0"/><circle class="cls-2" cx="49.35" cy="49.62" r="41.63"/><text class="cls-3" transform="translate(19.11 54.44) rotate(-94.82)">1</text><text class="cls-3" transform="translate(18.69 50.8) rotate(-85.94)">8</text><text class="cls-3" transform="matrix(0.2, -0.98, 0.98, 0.2, 19.23, 44.82)"> </text><text class="cls-3" transform="matrix(0.37, -0.93, 0.93, 0.37, 19.39, 42.5)">M</text><text class="cls-3" transform="translate(22.73 34.29) rotate(-52.91)">O</text><text class="cls-3" transform="translate(27.31 28.17) rotate(-38.94)">N</text><text class="cls-3" transform="translate(33.27 23.45) rotate(-26.88)">T</text><text class="cls-3" transform="translate(38.22 20.82) rotate(-15.34)">H</text><text class="cls-3" transform="translate(45.02 18.99) rotate(-3.5)">S</text><text class="cls-3" transform="translate(50.97 18.73) rotate(4.18)"> </text><text class="cls-3" transform="translate(53.34 18.78) rotate(11.62)">T</text><text class="cls-3" transform="translate(58.68 19.73) rotate(23.35)">O</text><text class="cls-3" transform="matrix(0.84, 0.54, -0.54, 0.84, 65.69, 22.96)"> </text><text class="cls-3" transform="translate(67.76 24.14) rotate(40.02)">T</text><text class="cls-3" transform="matrix(0.62, 0.78, -0.78, 0.62, 72.1, 27.67)">R</text><text class="cls-3" transform="translate(76.32 32.88) rotate(63.76)">A</text><text class="cls-3" transform="matrix(0.26, 0.97, -0.97, 0.26, 79.23, 38.69)">V</text><text class="cls-3" transform="translate(80.89 44.85) rotate(86.49)">E</text><text class="cls-3" transform="translate(81.24 50.88) rotate(96.9)">L</text><polygon class="cls-4" points="49.53 76.6 51.02 79.62 54.35 80.1 51.94 82.45 52.51 85.77 49.53 84.2 46.55 85.77 47.12 82.45 44.71 80.1 48.04 79.62 49.53 76.6"/><polygon class="cls-4" points="40.13 76.56 41.22 78.76 43.65 79.11 41.89 80.83 42.31 83.25 40.13 82.11 37.96 83.25 38.37 80.83 36.61 79.11 39.05 78.76 40.13 76.56"/><polygon class="cls-4" points="59.22 76.56 60.3 78.76 62.73 79.11 60.98 80.83 61.39 83.25 59.22 82.11 57.04 83.25 57.46 80.83 55.7 79.11 58.13 78.76 59.22 76.56"/><path class="cls-4" d="M59.87,38.57a2.51,2.51,0,0,1,1.89.86,2.9,2.9,0,0,1,.81,2V57.69a3,3,0,0,1-.81,2.08,2.51,2.51,0,0,1-1.89.86H38.3a2.51,2.51,0,0,1-1.89-.86,2.94,2.94,0,0,1-.81-2.08V41.48a2.9,2.9,0,0,1,.81-2,2.51,2.51,0,0,1,1.89-.86H41V37.1a.77.77,0,0,1,.2-.54.64.64,0,0,1,.49-.22.61.61,0,0,1,.46.22.77.77,0,0,1,.2.54v1.47H55.82V37.1a.77.77,0,0,1,.2-.54.61.61,0,0,1,.46-.22.64.64,0,0,1,.49.22.77.77,0,0,1,.2.54v1.47Zm1.35,6.61v-3.7a1.51,1.51,0,0,0-.39-1,1.23,1.23,0,0,0-1-.45h-2.7v2.23a.72.72,0,0,1-.2.5.64.64,0,0,1-.49.22.61.61,0,0,1-.46-.22.72.72,0,0,1-.2-.5V40H42.34v2.23a.72.72,0,0,1-.2.5.61.61,0,0,1-.46.22.64.64,0,0,1-.49-.22.72.72,0,0,1-.2-.5V40H38.3a1.23,1.23,0,0,0-1,.45,1.51,1.51,0,0,0-.39,1v3.7Zm0,12.51v-11H37v11a1.49,1.49,0,0,0,.39,1,1.25,1.25,0,0,0,1,.43H59.87a1.25,1.25,0,0,0,1-.43A1.49,1.49,0,0,0,61.22,57.69Z"/><path class="cls-4" d="M44.81,56.27,39.74,51.2a1.39,1.39,0,0,1,0-2h0a1.39,1.39,0,0,1,2,0l3.11,3.11a1.39,1.39,0,0,0,2,0l7.7-7.7a1.39,1.39,0,0,1,2,0h0a1.39,1.39,0,0,1,0,2l-9.67,9.67A1.39,1.39,0,0,1,44.81,56.27Z"/><path class="cls-5" d="M72.17,49.85c0,.22.27.14.32.17C72.41,49.65,72.09,49.86,72.17,49.85Z"/><polygon class="cls-5" points="71.2 46.37 71.33 46.42 70.97 45.96 71.2 46.37"/><path class="cls-5" d="M70.48,43.18c-.39.44.37,1.12.35,1.73l-.09.12.45.17A9,9,0,0,1,70.48,43.18Z"/><path class="cls-5" d="M70.87,41.15c-.14.18-.29-.31.09.42a.61.61,0,0,1,0-.09A2.94,2.94,0,0,1,70.87,41.15Z"/><path class="cls-5" d="M71,41.48c.14.33.07-.28,0,0Z"/><path class="cls-5" d="M70.24,40l.36.36c.06-.14-.1-.53,0-.42C70.34,39.52,70.28,39.67,70.24,40Z"/><path class="cls-5" d="M69.72,39.75l.17.19C69.91,39.87,69.9,39.81,69.72,39.75Z"/><path class="cls-5" d="M70.25,40.33l-.36-.4c0,.1-.18.17.15.19C69.89,40.15,70.06,40.18,70.25,40.33Z"/><path class="cls-5" d="M70.31,40.63c0,.28.07.62-.26.26C70.42,41.68,70.72,41.43,70.31,40.63Z"/><path class="cls-5" d="M69.94,43.18a2.91,2.91,0,0,1,0,.36l.23.23C70,43.65,70.09,43.11,69.94,43.18Z"/><path class="cls-5" d="M69,37.27c-.1,0-.15.28-.25.38l.28.23C69,37.7,68.93,37.37,69,37.27Z"/><path class="cls-5" d="M68.8,37.66l-.42-.35C68.6,37.71,68.71,37.74,68.8,37.66Z"/><polygon class="cls-5" points="69.19 39.91 69.89 40.5 69.12 39.77 69.19 39.91"/><polygon class="cls-5" points="67.92 35.6 68.29 35.7 67.68 35.49 67.92 35.6"/><path class="cls-5" d="M67.06,34.57c.3,0,.06-.45.31-.35a2.47,2.47,0,0,0-.92-.47A1.49,1.49,0,0,1,67.06,34.57Z"/><path class="cls-5" d="M66,33.56a3,3,0,0,0,.48.19A1.44,1.44,0,0,0,66,33.56Z"/><path class="cls-5" d="M67.93,36.55a.55.55,0,0,0,0-.5l-.12.34Z"/><path class="cls-5" d="M67.81,36.4h0L67.56,36Z"/><path class="cls-5" d="M68,36.59l0,0S67.92,36.6,68,36.59Z"/><path class="cls-5" d="M68.81,38.61c-.3-.18-.77-.61-.68,0C68.42,38.72,68.37,38.36,68.81,38.61Z"/><path class="cls-5" d="M67.81,37c.09.16.15.33.23.49.06-.05.1-.2.25-.11C68.12,37.25,68,37.12,67.81,37Z"/><polygon class="cls-5" points="67.57 36.84 67.81 37 67.71 36.83 67.57 36.84"/><path class="cls-5" d="M66.41,34.44a1.89,1.89,0,0,1-.65-.48,5.26,5.26,0,0,0,.57.76C66.42,34.7,66.64,34.69,66.41,34.44Z"/><path class="cls-5" d="M67.1,35.39l0,0S67.06,35.43,67.1,35.39Z"/><polygon class="cls-5" points="63.68 31.98 63.68 32.06 63.72 32.02 63.68 31.98"/><path class="cls-5" d="M66.32,34.8a.58.58,0,0,0,.42.31,3.68,3.68,0,0,1-.42-.38S66.26,34.75,66.32,34.8Z"/><path class="cls-5" d="M65.31,33.07l.18.4C65.48,33.31,65.4,33,65.31,33.07Z"/><path class="cls-5" d="M67.07,35.24l0,0C67.1,35.16,67.08,35.19,67.07,35.24Z"/><path class="cls-5" d="M67.07,35.24a1.23,1.23,0,0,0-.33-.14,2.09,2.09,0,0,0,.31.25A.4.4,0,0,1,67.07,35.24Z"/><path class="cls-5" d="M61.83,33c.19-.19.84-.07,1,.51.49.17.86-.71.84-1.41-.09.09-.15.15-.68,0,.08.21.66,1,.18.92-.6-.35-.38-.42-.55-.75,0,.44-1-.13-1.17.37l.57.21C62,32.83,61.74,32.8,61.83,33Z"/><path class="cls-5" d="M64.42,32.77l.19.12a2.2,2.2,0,0,1-.32-.8c-.37-.15-.49-.12-.56-.07l.79.76Z"/><path class="cls-5" d="M65.34,33.57c-.32.07-.81-.17-.79.27.47.42.48.14.84.33-.75-.71.32.11-.07-.57a3.2,3.2,0,0,1,.44.37,4.94,4.94,0,0,1-.27-.5v0h0c0,.06,0,.09,0,0h0a.32.32,0,0,1-.11,0c-.16-.27,0-.09.11,0l0,0h0c-.27-.23-.59-.41-.88-.61A5.67,5.67,0,0,0,65.34,33.57Z"/><path class="cls-5" d="M67.31,38.52a.08.08,0,0,1,0-.06C67.29,38.42,67.25,38.41,67.31,38.52Z"/><path class="cls-5" d="M67.25,38.07c.07,0,.2,0,.3.25s-.12.07-.2.14c.14.08.44.31.33-.14l-.07,0c-.12-.4-.09-1.05,0-1A2.27,2.27,0,0,0,67.25,38.07Z"/><path class="cls-5" d="M66.35,35.82a6.82,6.82,0,0,0-.66-.55l.09.48.1-.12C66.15,36,66.22,35.85,66.35,35.82Z"/><path class="cls-5" d="M63.7,31.8l.29-.16c-.22,0-.46,0-.68,0Z"/><polygon class="cls-5" points="62.76 31.14 62.96 30.95 62.61 30.9 62.76 31.14"/><path class="cls-5" d="M31.3,60.3l.18.15A.83.83,0,0,0,31.3,60.3Z"/><path class="cls-5" d="M30.55,58.88l-.14,0C30.51,58.94,30.57,58.94,30.55,58.88Z"/><path class="cls-5" d="M36.27,30c-.46,0-1-.13-.83.11l.27.19A1.11,1.11,0,0,1,36.27,30Z"/><path class="cls-5" d="M27.32,45.74l.1-.08-.22-.29C27.24,45.48,27.26,45.61,27.32,45.74Z"/><path class="cls-5" d="M28.5,46.21l-.26.4A1.61,1.61,0,0,0,28.5,46.21Z"/><path class="cls-5" d="M37.42,66.41l.38-.11C37.48,66.09,37.54,66.31,37.42,66.41Z"/><path class="cls-5" d="M52,26.81a2.91,2.91,0,0,0-.78-.3C51.59,26.74,51.86,27,52,26.81Z"/><path class="cls-5" d="M28.18,61.3c.13.11.22.14.27.1C28.33,61.28,28.23,61.23,28.18,61.3Z"/><path class="cls-5" d="M50.27,26.44l.17.08a2.14,2.14,0,0,1,.77,0A.9.9,0,0,0,50.27,26.44Z"/><path class="cls-5" d="M65.34,61.28l.07,0S65.36,61.23,65.34,61.28Z"/><path class="cls-5" d="M71.58,53.1a3.58,3.58,0,0,1,0,.44A1.11,1.11,0,0,0,71.58,53.1Z"/><path class="cls-5" d="M58.87,28.64c.23.09,0,0,0,0Z"/><path class="cls-5" d="M59.38,30.2a.2.2,0,0,0-.15.09A.25.25,0,0,1,59.38,30.2Z"/><path class="cls-5" d="M47.91,28.27h0C48,28.32,47.95,28.31,47.91,28.27Z"/><path class="cls-5" d="M59.14,28.92a1.63,1.63,0,0,0-.24-.22A1.76,1.76,0,0,0,59.14,28.92Z"/><path class="cls-5" d="M59.16,28.77l.18.12C59.39,28.86,59.38,28.82,59.16,28.77Z"/><path class="cls-5" d="M58.56,28.5a1.91,1.91,0,0,1,.34.2s0-.06,0-.07Z"/><path class="cls-5" d="M51.4,70.75l0,0C51.65,70.61,51.56,70.65,51.4,70.75Z"/><polygon class="cls-5" points="33.69 36.13 33.69 36.1 33.67 36.12 33.69 36.13"/><path class="cls-5" d="M33.35,36.84c-.07-.48.1-.59.32-.72l-.81-.39Z"/><path class="cls-5" d="M33.63,63.35l-.15-.56c.76.17.93.59.9,0-.36.28-.75,0-1.06-.43s-.63-.77-1-.52l0-.39c.05.08.11.06.16.15,0-.78-.85,0-1.21-.85-.1-.3-.09-.55.11-.43l-.55-.46c-.08-.18.08-.21.17,0-.2-.28-.35-.59-.53-.89h0a4,4,0,0,1-.71-.39c0-.3.15.08.23,0-.15-.14-.31-.28-.46-.44.13-.31.53,0,.68.41.62-.85-.44-.33-.32-1.62l.29.46c.38-.51.06-.82.17-1.47-.12.17-.38,1.38-.81.89a.82.82,0,0,0-.33-.67c.32-.1.16-.39,0-.78l.43-.09c-.23-.38-.44-.3-.7-.5-.08-.49.23-.65.5-.82,0-.78-.46.64-.68-.26.09-.68-.22-1.09-.52-1.86.13-.47.27.06.39-.12l-.37-.38c0-.1.11-.07.17-.06-.15-.34-.44,0-.59-.55-.24-.07-.1-.36.08-.71s.37-.75.11-1.11c.13-.16.27.1.44.06a11.9,11.9,0,0,0-.6-1.63l.39-.61c-.4.43-.7-.24-.93-.87a4.05,4.05,0,0,0-.43.37,6.76,6.76,0,0,1-.06-1c.1-.09.22,0,.37.22l-.06-.18c.24-.28.45-.05.63.22l-.35.26c.23.27.49.53.75.53a.67.67,0,0,1-.07-.3c.06.07.12.12.17.1s0-.13-.11-.29l.53-.09-.18-.09.58-1a5.25,5.25,0,0,1-.41-3.14c.19.44.51.29.9.48-.56.15-.17,1-.48,1.58.16-.31.33-.17.37-.06l0-1.24c.31.16.32-.14.6-.35-.73-.07,0-1,0-1.52.22.08.38.3.08.79.75-.33-.38-1.14.36-1.48-.07.13-.14.18-.07.28,0-.39.57-1,.64-.74l-.07.12c.5-.81,1.67-2.34,1.3-2.85a4.72,4.72,0,0,1,.52.67,25.91,25.91,0,0,1-.3-2.62c.26.46,1.51.87,1.19,1.65a1.45,1.45,0,0,0,.65-.72c-.16,0-.8-.25-.67-.44A5,5,0,0,0,35,34.76c-.24.07-.58-.69-.28-.92,0,.13.53.57.49.72a9.81,9.81,0,0,1,.2-1.19c-.1.25.38.54.68.59-.17-.06.63-.45.77-.66l-.41.08c.87-.52.21-1.49,1.15-2,0,.21.25,1,.73.82,0-.48,0-2.2.8-2.91l.26.13a6.4,6.4,0,0,1,.59-.54c-.24.72-.83,2.45-1.17,3.14.42,0,.22.19.72-.07.27.11-.13.42-.27.5L40.52,32c-.12-.2.05-.41.24-.62s.4-.36.3-.53a11.41,11.41,0,0,0-1.11,1c-.26-.37.18-1.61,1.16-1.84.3.09.12.84.2,1,.05-.19.73-.59.85-.52l-.29.37c.53,0,.61-.89,1.35-.61.22,0,.77.42.74.14a3.83,3.83,0,0,1-.8-2.45,5.09,5.09,0,0,1,1.64.43c.44.35-.38,1.06,0,1.36,0-.13.16-.31.23-.37.25.07,0,.4.46.27,0-.48,1-.12.18-.43.48-.2.53,0,1.11-.06-.22-.29.44-1.06,1-1.22,0,.12.1.27.16.34,1.06,0,1.61.29,2.58.32.08.11.53.28.31.47a.91.91,0,0,1,.58-.17c.51.49-.66,0-.29.52.07-.27.79-.26,1.24-.37-.06-.44-1-.23-1.39-.12.05-.58.87-1.08,2-1.18.87,0,.28.44.45.39,1.48.51,1.6-.71,2.75.16.38.53-.22.71-.2,1-.67-.11-.9-.56-1.36-.66l.5.31a1.25,1.25,0,0,1-.91-.12c.33.39,2.49.79,3.42,1.6.24,0,.62,0,.53-.19l-.36-.12c-.19-.43.82-.06.45-.4a2.49,2.49,0,0,1,1.81.52l-.09.44c0-.11-.28-.47-.52-.46.36,0,.66,1.07,1.24.77l-.29-.52c.55.1,1.4,0,1.85.57,0-.52-.15-.05-.26-.74,0,.72-1.47-.93-1.24,0-.13-.73-.58-.67-.94-1.38,0,.13.08.34-.4,0a.65.65,0,0,1-.17.06l0,0,0,0s0,0,0,0a.61.61,0,0,1,.16.32c-.4.16-1.19-.23-1.53-.21-.27-.2.19-.09.09-.3a4.11,4.11,0,0,0-.51.05c.08-.3-.64-.79.17-.68l-.67-.26a2.06,2.06,0,0,0-1.25-.57c-.31-.15-.92.11-.57,0l-1.14-.09V27.1A6.48,6.48,0,0,0,52.23,27a4.46,4.46,0,0,1-1.79-.43,3.52,3.52,0,0,1-1.38,0l-.12-.27c-.48.06-1.46-.21-1.65.06-.58-.75-2.37.08-3.22.1l0,.35a6.5,6.5,0,0,0-1.75.65l.13.29c-.53.36-1.56.26-2.47.63,0-.13.26-.19.45-.18a1.93,1.93,0,0,0-1.68.63,2.81,2.81,0,0,1-1.5.83.74.74,0,0,1-.55.33l0,0-.09.05-.4,0a1.3,1.3,0,0,0,.35,0,3.91,3.91,0,0,0-.63.53l-.29-.21-.05,0c-.32.05-.12.26.16.38a1.16,1.16,0,0,0-.21.39c-.5-.3-.52.61-1.12.35,0,.17-.27.44-.5.73s-.4.66-.26.93c-.06-.05-.15,0,0-.13a1.31,1.31,0,0,0-.68.66l-.4-.21a7.81,7.81,0,0,0-.1.91c-.47.14-.71.18-.65-.37-.34,1.12-.45.76-.65,1.75L31,35.52c-.18.26-.2.89-.49.9-.91.23-2,2.85-3.18,4.34.87,0-.67.65-.1,1-.21,0-.4.24-.46-.1-.14,1-.81,1.25-.45,2-.21.05-.22-.27-.35-.21,0,.09.08.34-.05.41s-.12-.18-.16-.35c-.22,1,.33,1.2.85,1.39-.38.4-.39.66-.08,1.06-.2.13-.43.38-.4-.22-.07.32-.58,2-.12,2.07-.12.09-.06.46,0,.55a11.35,11.35,0,0,0-.1,1.53l.08-.2c.51.29.12.6.21,1.18h-.06c-.3,1.36.17.56-.11,1.92l.32-.11c.73,0-.24,1.21.15,1.93l.14-.31c.29.35-.67,1.34-.65,1.81,0,.11-.13-.12-.21-.24-.12,1.23.46,0,.77.82-.18.22-.64,0-.5.54-.07.34,1.26,1.32,1.16,2.19.09-.23.19-.45.48-.15.32.49.07,1.77.85,2a.19.19,0,0,1-.07.16c.37.32,1,1.14,1.38,1.2-.69,1,2.09,1.91,1.31,2.52l1,1-.1,0a1.66,1.66,0,0,0,1.4.73c.1.19-.07.16-.12.19a2.57,2.57,0,0,0,2.17,1.3l-.11.35c.32,0,1.29,1.51,2.63,1.78a.25.25,0,0,1-.2.07,6.86,6.86,0,0,1,2.07,1.15c.66.39,1.28.64,1.72.13a8.86,8.86,0,0,0,1,0c-1.14-.39.32-.48-.1-.8.46,0,1.07.66.49.58l-.07-.08c-.37.57,1.39.61,1.28,1a27.8,27.8,0,0,0,7,.65l-.31-.47c.26,0,.52-.05.78-.08s.33.35-.24.41c.34.24.91-.38.9-.49,1.13,0-.33.65,0,.61l.46-.11-.11,0c.34-.28.33-.45,1-.6.44,0,.28.25.45.23,0,0,.07,0,.26-.05l1-.21-.5-.28c.37-.29.9-.22.34-.53.42.25,1.31,0,2.15-.33a12.41,12.41,0,0,1,1.8-.78,5,5,0,0,1,1.58-1.2c-.2,0-.53-.3,0-.58.33.92,1.19-.32,2-.12-.32,0,0-.34.35-.63s.54-.64.07-.63c.45-.3.25.24.7.13.73-1.11,2.25-1.81,3.15-3.19-.08-.09-.39,0-.33-.38l1-.32c.13-.3-.38-.62.27-.88-.13,0-.32,0-.24-.17A11.17,11.17,0,0,0,70,58.31c.25-.77.54-1.51.77-2.28a22.77,22.77,0,0,1,1-2.26c-.3.39-.28.1-.24-.23-.09.2-.3-.05-.47,0,.21-.41.45-.83.64-1.26-.44-.28,0-1.44-.39-1.59l.06.42c-.49-.56-1.18.7-1.84.56.59.66-1.05,1.37-.34,2.42-.16.18-.18-.21-.35-.13.26.29.23.58,0,1.06l-.05-.07a9.85,9.85,0,0,1-1.58,3.41l.35,0a1.29,1.29,0,0,1-.47.44c.27.58.46-.89.8-.33-.41.08-.68.64-1,1.19s-.65,1-1,1c-.28.46.4.06.12.53h-.25l.15.26a.57.57,0,0,1-.7.18c.07-.06.11-.22.15-.3-.47.22-.7,1.07-.86,1.15l.41-.34c-.69,1.34-2.17,2.41-3,3.67l.18,0c-.67.94-.81.41-1.69,1.26V67a1.3,1.3,0,0,1-.64.67c.16-.31-.68,0-.44-.38-.86.87-.36.52-.79,1.41l-.29-.15a1.14,1.14,0,0,1-.64.77c.36-.42-.52-.18-.13-.69-1.33.07-1.55,1.23-2.36.69-.33.88,1.17,0,.91.25.35.12-.28.67-.69.74s-.95-.67-1.91-.39c.1,0,.09-.08.19-.1-.41-.1-.66.46-1.18.22-.18.46-.6.07-.59.62l.91-.27c-.49.22-.91.93-1.84.76a1.6,1.6,0,0,1,.47-.41c-.28-.13-.48.2-.77,0,0-.52,1.12-.29,1.61-.77-.3-.19-1,.55-.8-.08-.15.4-.4.42-.68.42a1,1,0,0,0-.93.22l0-.33a1.22,1.22,0,0,1-.52.22l.34-.44c-.54.39-1.05-.24-1.57-.1,1.09,0,.24.42.71.66-1.39.4-.77-.89-2.27-.81.2,0,.74.24.41.38a1.56,1.56,0,0,1-.8-.45c-1-.08.11.36-.34.49-.28-.45-.51.09-1,.14L44.9,70c-1.09-.43-.45.62-1.42.12L44,69.8l-.55,0,.2-.34a1.45,1.45,0,0,1-1.31-.26c.05.27-.26.55-.75.38-.26-.31.29-.23-.41-.44.23-.14.49-.32.68.07.07-.09.22-.14.29-.23-.27-.34-.85-.37-1.1-.45a.62.62,0,0,1,.23.17,7.38,7.38,0,0,1-1.14,0c-.1-.19.06-.22.22-.25a4.21,4.21,0,0,1-.7-.09c.19-.21.3-.47.74-.4l-1-.15c0-.13-.3-.51-.14-.54-.36-.42-1.41-.22-1.9-.8a.42.42,0,0,1-.29,0,4.24,4.24,0,0,0-1.63-1.32v-.67c-.54-.34,0,.87-.86.29-.67-.4.08-.48,0-.76-.41-.09-1.23-.25-1.4-1C33.39,63,33.46,63.21,33.63,63.35Zm-4.14-6.62c.12.12.43.33.28.5C29.35,57.2,29.47,57,29.49,56.72Zm-1.25-12c.08.14,0,.3-.2.48A.85.85,0,0,1,28.24,44.69ZM56.3,27.87h0C56,27.62,56.07,27.72,56.3,27.87Zm.72.42c.09,0,.11-.06.09-.12s-.26,0-.45-.09C56.69,28.18,56.77,28.28,57,28.29ZM54.2,72.5l-.17,0C54.35,72.27,54.28,72.38,54.2,72.5Z"/><path class="cls-5" d="M28.36,46.16a.36.36,0,0,1-.19,0C28.22,46.26,28.28,46.27,28.36,46.16Z"/><path class="cls-5" d="M37.35,66.43l0,0,.05,0Z"/><path class="cls-5" d="M45.12,29.87a.63.63,0,0,1-.31-.13C44.81,29.83,44.89,29.89,45.12,29.87Z"/><path class="cls-5" d="M61.17,29.72l-.5-.2a.83.83,0,0,1,.35.34C61.06,29.79,61,29.64,61.17,29.72Z"/><path class="cls-5" d="M63.45,34c.08,0,.11.1.2.12l.09-.13C63.5,33.82,63.26,33.77,63.45,34Z"/><path class="cls-5" d="M61,30.91c-.12.27.22.32.52.5l-.05,0C61.78,31.11,61.39,31,61,30.91Z"/><path class="cls-5" d="M61.59,31.45a1.35,1.35,0,0,1,.27.19C62,31.54,61.77,31.54,61.59,31.45Z"/><path class="cls-5" d="M58.05,28.5c.13.14.24-.28.29-.13C58.66,28.12,57.11,28.27,58.05,28.5Z"/><polygon class="cls-5" points="60.73 31.83 60.81 31.48 60.5 31.61 60.73 31.83"/><path class="cls-5" d="M58.5,30.26l.45.32c0-.05.1-.05.19,0C58.84,30.39,58.53,30.17,58.5,30.26Z"/><path class="cls-5" d="M59.14,30.55a1,1,0,0,0,.41.18A1.61,1.61,0,0,0,59.14,30.55Z"/><polygon class="cls-5" points="60.04 31.53 59.94 31.39 59.62 31.16 60.04 31.53"/><path class="cls-5" d="M52.9,28.28h-.61c-.08.11.07.2.3.19S53,28.41,52.9,28.28Z"/><path class="cls-5" d="M54.43,29.63c-.13-.11-.12-.19-.18-.32l-.13.41Z"/><path class="cls-5" d="M52.77,29.32c-.08.11-.88.21-.16.29C52.68,29.5,53.27,29.51,52.77,29.32Z"/><polygon class="cls-5" points="44.02 28.88 44.16 28.84 44 28.15 44.02 28.88"/><path class="cls-5" d="M37.74,33.32c.64-.19-.1-.45.52-.57,0-.22-.5.11-.45-.1C37.56,33,37.33,33,37.74,33.32Z"/><path class="cls-5" d="M37.81,32.64a1.49,1.49,0,0,0,.12-.2A.65.65,0,0,0,37.81,32.64Z"/><polygon class="cls-5" points="72.12 51.37 72.29 50.89 72.04 51.19 72.12 51.37"/><path class="cls-5" d="M71.65,50.42l.45-.11L71.71,50C71.72,50.13,71.75,50.34,71.65,50.42Z"/><path class="cls-5" d="M30,55.36h-.11c-.1.09-.08.19-.05.38Z"/><polygon class="cls-5" points="31.94 60.52 31.9 60.43 31.65 60.8 31.94 60.52"/><path class="cls-5" d="M35.23,63.79a3.81,3.81,0,0,1-.45-.38C35.09,63.66,34.92,64.18,35.23,63.79Z"/></svg>