<?xml version="1.0" encoding="utf-8"?>
<!-- Generator: Adobe Illustrator 25.4.1, SVG Export Plug-In . SVG Version: 6.00 Build 0)  -->
<svg version="1.1" id="Capa_1" xmlns="http://www.w3.org/2000/svg" xmlns:xlink="http://www.w3.org/1999/xlink" x="0px" y="0px"
	 viewBox="0 0 21.3 16.9" style="enable-background:new 0 0 21.3 16.9;" xml:space="preserve">
<style type="text/css">
	.st0{fill:#006581;}
</style>
<path class="st0" d="M16.2,9.6c-3-3-7.9-3-11,0c0,0,0,0,0,0L3.2,7.7c4.1-4.1,10.7-4.1,14.8,0c0,0,0,0,0,0L16.2,9.6z M10.7,2.7
	c3.3,0,6.4,1.3,8.7,3.6l1.9-1.9C15.4-1.5,5.9-1.5,0,4.4c0,0,0,0,0,0l1.9,1.9C4.2,4,7.4,2.7,10.7,2.7 M14.9,10.9
	c-2.3-2.3-6.1-2.3-8.4,0c0,0,0,0,0,0l1.9,1.9c1.2-1.3,3.3-1.3,4.5,0c0,0,0,0,0,0L14.9,10.9z M10.7,13.2c-1,0-1.8,0.8-1.8,1.8
	s0.8,1.8,1.8,1.8s1.8-0.8,1.8-1.8l0,0C12.5,14.1,11.7,13.2,10.7,13.2"/>
</svg>
