<?xml version="1.0" encoding="utf-8"?>
<!-- Generator: Adobe Illustrator 25.4.1, SVG Export Plug-In . SVG Version: 6.00 Build 0)  -->
<svg version="1.1" id="Capa_1" xmlns="http://www.w3.org/2000/svg" xmlns:xlink="http://www.w3.org/1999/xlink" x="0px" y="0px"
	 viewBox="0 0 16.8 20" style="enable-background:new 0 0 16.8 20;" xml:space="preserve">
<style type="text/css">
	.st0{fill:#006581;}
</style>
<path class="st0" d="M8.6,12.7l3-3c1.7,1.7,1.7,4.3,0,6c-1.7,1.7-4.3,1.7-6,0L8.6,12.7z"/>
<path class="st0" d="M14.2,0H2.6C1.2,0,0,1.2,0,2.6V20h16.8V2.6C16.8,1.2,15.6,0,14.2,0C14.2,0,14.2,0,14.2,0z M6.3,1.6
	c0.7,0,1.2,0.5,1.2,1.2S6.9,4,6.3,4S5.1,3.5,5.1,2.8c0,0,0,0,0,0C5.1,2.1,5.6,1.6,6.3,1.6z M1.6,2.8c0-0.7,0.5-1.2,1.2-1.2
	S4,2.1,4,2.8S3.4,4,2.8,4l0,0C2.1,4,1.6,3.5,1.6,2.8z M8.6,18.6c-3.3,0-5.9-2.7-5.9-5.9c0-3.3,2.7-5.9,5.9-5.9
	c3.3,0,5.9,2.7,5.9,5.9C14.5,16,11.8,18.6,8.6,18.6C8.6,18.6,8.6,18.6,8.6,18.6L8.6,18.6z"/>
</svg>
