<?xml version="1.0" encoding="utf-8"?>
<!-- Generator: Adobe Illustrator 25.4.1, SVG Export Plug-In . SVG Version: 6.00 Build 0)  -->
<svg version="1.1" id="Capa_1" xmlns="http://www.w3.org/2000/svg" xmlns:xlink="http://www.w3.org/1999/xlink" x="0px" y="0px"
	 viewBox="0 0 15.2 20.8" style="enable-background:new 0 0 15.2 20.8;" xml:space="preserve">
<style type="text/css">
	.st0{fill:#006581;}
</style>
<path class="st0" d="M4.6,15.6h6c0.2,0,0.4,0.2,0.4,0.4c0,0.1-0.1,0.2-0.1,0.3c-1.3,1.1-2.3,2.6-3,4.2c-0.1,0.2-0.4,0.3-0.6,0.2
	c-0.1,0-0.2-0.1-0.2-0.2c-0.6-1.6-1.6-3-2.8-4.2c-0.2-0.2-0.2-0.4,0-0.6C4.4,15.7,4.5,15.6,4.6,15.6z"/>
<path class="st0" d="M7.6,15.3C3.4,15.3,0,11.8,0,7.6S3.4,0,7.6,0s7.6,3.4,7.6,7.6C15.3,11.8,11.8,15.2,7.6,15.3z M7.6,1
	C4,1,1,4,1,7.6s3,6.6,6.6,6.6s6.6-3,6.6-6.6l0,0C14.3,4,11.3,1,7.6,1z"/>
<path class="st0" d="M3.6,10.2c-0.8,0-1.5-0.7-1.5-1.5c0-0.8,0.7-1.5,1.5-1.5s1.5,0.7,1.5,1.5c0,0,0,0,0,0
	C5.1,9.6,4.4,10.2,3.6,10.2z M3.6,8.2c-0.3,0-0.5,0.2-0.5,0.5s0.2,0.5,0.5,0.5S4.1,9,4.1,8.7l0,0C4.1,8.5,3.9,8.3,3.6,8.2L3.6,8.2z"
	/>
<path class="st0" d="M6.3,12.2c-0.8,0-1.5-0.7-1.5-1.5c0-0.8,0.7-1.5,1.5-1.5s1.5,0.7,1.5,1.5C7.8,11.5,7.1,12.2,6.3,12.2L6.3,12.2z
	 M6.3,10.2c-0.3,0-0.5,0.2-0.5,0.5s0.2,0.5,0.5,0.5s0.5-0.2,0.5-0.5l0,0C6.7,10.4,6.5,10.2,6.3,10.2L6.3,10.2z"/>
<path class="st0" d="M3.6,13.2c-0.8,0-1.5-0.7-1.5-1.5c0-0.8,0.7-1.5,1.5-1.5s1.5,0.7,1.5,1.5c0,0,0,0,0,0
	C5.1,12.5,4.4,13.2,3.6,13.2z M3.6,11.2c-0.3,0-0.5,0.2-0.5,0.5s0.2,0.5,0.5,0.5s0.5-0.2,0.5-0.5l0,0C4.1,11.4,3.9,11.2,3.6,11.2
	L3.6,11.2z"/>
</svg>
