<?xml version="1.0" encoding="utf-8"?>
<!-- Generator: Adobe Illustrator 25.4.1, SVG Export Plug-In . SVG Version: 6.00 Build 0)  -->
<svg version="1.1" id="Capa_1" xmlns="http://www.w3.org/2000/svg" xmlns:xlink="http://www.w3.org/1999/xlink" x="0px" y="0px"
	 viewBox="0 0 11.9 18.2" style="enable-background:new 0 0 11.9 18.2;" xml:space="preserve">
<style type="text/css">
	.st0{fill:#006581;}
</style>
<path class="st0" d="M6.1,1.6C6,1.7,5.8,1.7,5.6,1.6c-0.4-0.2-0.9-0.2-1.4,0c-0.2,0.1-0.4,0.1-0.5,0C3.3,2.3,3.5,3.2,4.2,3.6
	S5.7,3.7,6.1,3C6.4,2.6,6.4,2.1,6.1,1.6L6.1,1.6z"/>
<path class="st0" d="M7.1,8.7h-1V10c0,0.4-0.4,0.8-0.8,0.8c0,0,0,0,0,0H4.6c-0.4,0-0.8-0.4-0.8-0.8l0,0V8.7h-1l-0.5,3.1
	c0.3,0.1,0.4,0.4,0.5,0.6h0.3v5c0,0.5,0.4,0.8,0.8,0.8c0.5,0,0.8-0.4,0.8-0.8v-4.9h0.3v4.9c0,0.5,0.4,0.8,0.8,0.8
	c0.5,0,0.8-0.4,0.8-0.8v-4.9h0.5c0.2,0,0.4-0.2,0.4-0.4c0,0,0,0,0-0.1L7.1,8.7z"/>
<path class="st0" d="M3.8,1.2C3.9,1.3,4,1.3,4,1.3C4.6,1,5.2,1,5.8,1.3c0.1,0,0.2,0,0.2-0.1c0,0,0,0,0,0l0.3-0.7
	c0-0.1,0-0.2-0.1-0.2c0,0,0,0,0,0c-0.9-0.4-1.9-0.4-2.7,0c-0.1,0-0.1,0.1-0.1,0.2c0,0,0,0,0,0L3.8,1.2z"/>
<path class="st0" d="M5.4,4.1c-0.3,0.3-0.7,0.3-1,0.1c0,0,0,0-0.1-0.1c0,0-0.1,0-0.1,0L3.8,4.2c0,0-0.1,0.1-0.1,0.1c0,0,0,0,0,0
	l0.3,0.5C4.2,5,4.5,5.1,4.7,5c0,0,0,0,0,0l0.2-0.1L5.1,5c0.2,0.1,0.5,0.1,0.6-0.1c0,0,0,0,0,0L6,4.3c0,0,0-0.1,0-0.1c0,0,0,0,0,0
	L5.4,4.1C5.5,4,5.4,4,5.4,4.1z"/>
<circle class="st0" cx="4.9" cy="5.4" r="0.2"/>
<circle class="st0" cx="4.9" cy="6.1" r="0.2"/>
<path class="st0" d="M11.6,17c-0.1-0.2-0.3-0.4-0.5-0.4h-1V8.9c0.4,0,0.7-0.3,0.7-0.7c0-0.4-0.3-0.7-0.7-0.7V5.6
	c0-0.2-0.1-0.4-0.3-0.4c-0.2,0-0.4,0.1-0.4,0.3c0,0,0,0,0,0v1.9H8.3C8.1,7,7.8,6.1,7.7,5.7C7.5,5.1,7.1,4.7,6.6,4.4
	c0,0.9-0.8,2.2-1.7,2.2S3.3,5.3,3.2,4.4C2.7,4.6,2.3,5.1,2.2,5.7c-0.5,1.4-1.6,4.5-1.6,4.5c-0.1,0.3,0,0.6,0.3,0.8v1.1H0.6
	c-0.3,0-0.6,0.3-0.6,0.6c0,0,0,0,0,0v0.9c0,0.1,0.1,0.3,0.3,0.3c0,0,0,0,0,0h1.8c0.1,0,0.3-0.1,0.3-0.3l0,0v-0.9
	c0-0.3-0.3-0.6-0.6-0.6h0H1.5V11c0.1-0.1,0.2-0.2,0.3-0.3c0,0,0.7-1.7,1.2-3.2L2.8,8.3H7L6.8,7.5l0.3,0.9c0.1,0.3,0.3,0.4,0.6,0.4
	h1.6v7.8h-1c-0.2,0-0.5,0.2-0.5,0.4l-0.2,1c0,0.1,0,0.1,0.1,0.2c0,0,0,0,0,0H10c0.1,0,0.1-0.1,0.1-0.1v-0.7l0.1,0.7
	c0,0.1,0.1,0.1,0.1,0.1h0.2c0.1,0,0.1-0.1,0.1-0.1v-0.8l0.2,0.8c0,0.1,0.1,0.1,0.1,0.1h0.6c0.1,0,0.1-0.1,0.1-0.1c0,0,0,0,0,0
	L11.6,17z"/>
</svg>
