<?xml version="1.0" encoding="utf-8"?>
<!-- Generator: Adobe Illustrator 25.0.0, SVG Export Plug-In . SVG Version: 6.00 Build 0)  -->
<svg version="1.1" id="Capa_1" xmlns="http://www.w3.org/2000/svg" xmlns:xlink="http://www.w3.org/1999/xlink" x="0px" y="0px"
	 viewBox="0 0 670.4 223.3" style="enable-background:new 0 0 670.4 223.3;" xml:space="preserve">
<style type="text/css">
	.st0{fill:#27B8CB;}
	.st1{fill:none;}
	.st2{fill:#FFFFFF;}
	.st3{font-family:'Montserrat-Bold';}
	.st4{font-size:48px;}
	.st5{font-family:'Montserrat-Medium';}
	.st6{font-size:36px;}
	.st7{font-family:'Montserrat-SemiBold';}
	.st8{font-size:24px;}
	.st9{fill:#006581;}
</style>
<g>
	<path class="st0" d="M570.9,170.4c-2.2,0.9-4.6,1.5-6,3.9c-0.5,0.9-6.6,0.9-7.9,0.1c-0.5-0.3-0.8-0.6-1.5-1.1
		c-0.2,1.3-0.1,2.5-1.4,3.1c-0.8,0.3-0.8,1.3-0.5,2.1c0.3,0.7,1,1.1,1.9,1c1.6-0.2,3.2-0.4,4.8,0.3c-28.3,2.8-56.7,4.4-85,7.4
		c0,0.6,0.1,1.3,0.2,1.9c27.9-2.1,55.9-4.1,83.9-4.8c-1.3,0.8-2.6,1.4-4.2,1.5c-10,0.7-20,1.1-30,2.2c-10.9,1.2-21.8,1.9-32.7,2.7
		c-5.6,0.4-11.3,0.9-17,0.6c-2.7-0.1-4.4,1.2-4.2,4.5c2.8-1.1,5.6,0.4,8.3-1c0.6-0.3,1.9,0,2.4,0.5c0.7,0.7-0.2,1.5-0.7,2.3
		c2.2-0.4,4.6,0.3,6-2.3c0.5-1.1,1.1-0.1,1.7,0.4c1.2,1,2.5,2.4,3.5-0.5c0.5-1.6,2.1-0.6,3.4-0.5c1.8,0.2,4.2,2.9,5.4-1.2
		c0.3-1,1.6,0.1,2,1.1c0.4,0.8-0.5,2.4,1.5,2.3c1.3-0.1,1.9-0.1,2-2.1c0.1-1.7,3-2.9,5.3-1.7c2.8,1.4,5.4,0.6,7.9-0.9
		c0.9-0.6,1.4-0.4,1.6,0.7c0.7,3.1,3.5,4.4,6.7,3.3c0.6-0.2,1.1-1.2,2.1-0.6c-1.5,1.9-3.2,2.7-5.6,2c-1.2-0.3-2.8,0.3-2.4,1.6
		c1.2,3.6-1.8,3.5-3.3,3.5c-1.5,0-2,0.1-2.6,1.5c-0.7,1.5-2.3,1.5-3.8,1.4c-2.6-0.1-5.2,0-7.8,0.8c-3.3,1.1-6.7,0.3-10.1,0.1
		c-2.6-0.2-5.7,2.6-8-0.9c-0.3-0.4-0.1,1.2-1,1.2c0-0.2-0.1-0.4-0.1-0.6c0.4-1,0.4-2.2-0.8-2.4c-1.1-0.2-0.5,1.7-1.6,2
		c1.1,2.7-0.9,1.7-2,1.8c-1,0.1-1.9,0.3-2.9,0.5c-1,0.3-1-0.6-1.4-1.1c-0.4-0.5,0.1-1.3,0.5-1.3c2-0.1,2.2-0.8,1-2.2
		c-1.2-1.5-2.1-0.9-3.1,0.2c-0.2,0.2-0.5,0.4-0.5,0.4c-1.2-5-6-1.3-8.4-3.4c1-1.4,2.2,0,3.3-0.4c-2.1-2-4.8-1.8-6.4,0.8
		c-1,1.7-2.1,2.7-4.1,2.5c-0.3,0-0.6,0.1-1,0.2c0.8,2.8-0.9,2.9-2.9,3.6c-1.3,0.4-1.2,1.2-1.9-0.4c-0.2-0.6-0.6-1.2-1-1.1
		c-0.8,0.1-0.5,0.7-0.3,1.2c0.2,0.6,0,0.7-0.5,0.3c-3.3-2-7-2-10.7-2.7c-3.9-0.6-7.5,1.1-11.5,0c-2-0.5-5.4,0.1-7.9,1.6
		c-1.4,0.8-1.6-0.3-1.8-1.5c-0.3-1.7-1.8-2.4-2.8-1.1c-2,2.3-4.8,2.8-7.2,3.2c-3.1,0.6-6.4-0.4-9.7,0.3c-1.6,0.4-4.3-1.1-6.5-0.7
		c-4.2,0.7-8.6,0.3-12.8,0.4c-6.4,0.1-12.7,2.1-19.2,0.7c-2.2-0.5-4.8,0.9-6.9-1.5c0,4.8-4.9,0.1-5.8,3.3c0.3,0.6,0.9,0.4,1.4,0.4
		c0.7,0.1,1.9-0.5,2,0.4c0.2,1.6-1.4,0.2-1.6,0.7c-1.1,1.7-2.1,3.5-4.9,2.4c1.5-1.4,1.3-3,0.7-4.5c-0.3-0.7-3.6-0.3-5.7,0.5
		c1,1.3,2.8,2.2,2.6,4.2c-2.1,1.5-1.6-3.6-4.6-0.8c1.4-2.6,2.2-4.4-1.5-3.9c-1,0.1-2.2-1.6-3.2-2.5c-0.5-0.4-0.2-1.1,0.1-1.5
		c0.5-0.6,1.1-0.5,1.7-0.1c2.2,1.5,2.8,0.2,2.5-1.7c-0.1-0.8-0.3-1.4,0.4-1.9c-1.5-0.9,2.4-2.7-0.3-3.1c-1.3-0.1-4.2-2.1-4.5,2
		c-0.1,1.5-3.1,1.7-3.6,0.4c-1.7-4.3-5.4-2.6-8-2.6c-2.8-0.1-5.8,1.2-8.6,2.6c0.6,0.6,1.1,0.7,1.6,0.4c1-0.6,2-1.1,3-0.1
		c1.1,1.2-0.2,1.9-0.6,2.8c-0.4,0.9-2.2,2.7,1.1,1.8c0.8-0.2,2.2,2.2,3.8,0.4c0.3-0.3,0.7-0.5,0.5-1c-0.2-0.7-0.8,0-1-0.1
		c-0.9-0.5-2-0.8-0.7-2.4c1.1-1.3,2.4-1.3,3.6-1.6c0.4-0.1,0.8,1.5,1.2,2.4c0.7,1.8,1.5,3.9,4.3,3.1c-0.6,1.6-0.7,3.7-3.4,2
		c-0.6-0.4-1.7,0-2.5,0.1c-1.9,0.4-3.9,1.5-5.6-0.5c-0.8-0.9-1.1,0.5-1.4,0.5c-1-0.1-0.6,2.1-1.7,1.1c-2.7-2.6-6.2-0.6-9.4-1.5
		c-2.2-0.6-5.1-1.3-7.8-0.8c-1.4,0.3-2.4,1.2-3.6,2.4c-0.4-1.8-1.7-3.4,0.5-4.4c1.4-0.6,2.9,1.1,4.4,0c-1.7-1.7-6.8-2.5-8.7-1.4
		c-1.5,0.9-1.1,2.7-1.9,3.9c-0.3,0.5-0.2,1.8-0.8,1.6c-3.2-1.6-7.1,1.4-9.2-0.4c-2.1-1.7-2.1,0-3.2,0.1c-1.3,0.2-3,1.6-4.4-0.2
		c-0.5-0.7-1.4,0.2-1.6,0.1c-1.7-0.9-3.8,2.7-5.3-0.5c-0.2-0.5-1.4-0.4-1.7,0.3c-0.8,1.7-2.3,1.1-3.4,0.9c-1.3-0.2-2.5-0.8-3.5,0.7
		c-0.2,0.3-0.9,0.6-1.1,0.4c-3-1.6-6.4-0.7-9.4-1.6c-2.7-0.8-5.5-0.7-8.2-0.5c-1.5,0.1-3,1.1-4.8,1.3c-1.2,0.1-0.2,1.8-0.8,2.5
		c-0.5,0.6-0.7,2.3-1.9,0.6c-2.4-3.2-6.8-3.8-10.3-1.2c-1.3,1-2.7,1.5-4.4,1.6c0.1-0.4,0.2-0.7,0.3-0.7c0.9-0.6,2.3,0.3,2.9-1.1
		c0.4-0.9-0.3-1.8-0.9-2.3c-1.1-0.9-2.2-0.2-3.3,0.3c-1.3,0.6-3.1,0.8-3.1,2.8c0,0.6,0.2,1.2-0.6,1.3c-0.6,0.1-1-0.4-1.2-1
		c-1.2-3.1-2.8-5.4-6.6-3.1c-0.6,0.3-1-0.4-0.6-1c0.8-1.2-0.7-1.5-0.9-2.4c-0.3-1.1-1.5-1.8-2.9-1.5c-0.6,0.1-1.1,0.4-1,1.1
		c0.3,1.1-0.4,2.8,1.7,3c1.1,0.1,1.5,0.5,0.2,1.2c-0.2,0.1-0.6,0.1-0.6,0.2c-0.1,1.3,1.1,3.4-1.5,3.2c-2-0.2-0.9-2.4-1.3-3.6
		c-0.7-2.1-1-2.2-2.7-1c-0.4,0.3-1.1,0.3-1.6,0.2c-3.2-0.9-5.2,0.4-6.7,3.1c-0.3,0.6-1.1,1.1-1.5,0.3c-0.6-1-1.5-1.1-2.4-1.2
		c-0.6-0.1-1.4,0.1-1.4-0.9c0-0.9,1.1-0.6,1.4-1.4c-1-0.8-3.1-0.4-3.2-2.5c0-0.8-0.4-0.4-1-0.2c-1.9,0.8-3.4,1.9-4.1,4
		c-0.4-0.3-0.8-0.4-0.9-0.6c-1.2-1.6-1.8-6.3-4-0.4c-0.5,1.4-3.6,1.9-4.6,0.4c-1.6-2.2-2-0.4-2.8,0.2c-0.8,0.6-1.6,1.2-0.8,2.5
		c1,1.4,1.9,1.1,2.9,0c0.5-0.6,1.2-0.5,1.8,0c0.3,0.3,0.7,0.7,0.1,1c-0.9,0.5-1.8,2.3-2.6,1.4c-1.6-1.9-2.4,0.4-3.5,0.2
		c0.6-2.8-0.3-5.4-1.9-7.2c-1.3-1.5-1.4,1.2-1.3,1.3c0.8,1.1-0.5,1.2-0.8,1.7c-0.9-1.5-2.2,0.8-2.9-0.2c-0.5-0.6-0.4-1.6,0.1-2.5
		c0.6-1.2,3.8-2.9,5.3-3.1c3.9-0.7,8.1-0.8,11.8-0.6c3.8,0.2,6.8-0.3,10-1.9c0.8-0.4,1.6,0.8,2.8,0.9c2.9,0.4,5.7-2.6,8.7,0.2
		c1.4,1.3,4.2,0.8,6.1-0.2c2.5-1.4,4.8-1.9,7.4-0.7c1.4,0.6,2.7,1.4,3.8-0.6c0.5-1,1.8-0.8,2.4-0.4c1.7,1.2,3.5,0.6,4.8-0.1
		c2.9-1.5,6.4,0.8,9-1.6c0.1-0.1,0.3-0.1,0.3,0c1.6,3.2,5,0.4,7.2,2.2c1.1,0.9,3,1.4,4.9-0.3c1-0.9,3.9-1.3,5.6-0.1
		c2.2,1.7,4.2,0.1,5.9-0.4c2.2-0.6-1-1.8-0.5-3c2.1,0.2,2.1,1.9,2.7,3.5c2.2-2.5,5.7-1.1,8-3c0.4,1,0.1,2.9,1.1,2.8
		c2.6-0.2,5.1,2,7.7,0.1c-0.5-0.7-1.7,0-1.9-1.4c4.6-0.1,9.2,0.3,13.7-0.4c0.2,0,0.6,0.3,0.6,0.5c0.3,3,2.8,1.7,4.3,2.2
		c0.9,0.3,2.7,0,0.9-1.7c-0.3-0.3-0.6-1.2,0-1.7c0.2-0.2,0.6-0.1,1-0.1c-1.1,1.8,1,1.7,1.4,2.6c0.5,1.2,1.2,1.3,1.2,0.6
		c0.1-2.1,2.2-1.3,3.3-2.3c-1.1-0.6-2-1-3.6-1.9c1.5,0,2.1-0.2,2.5,0c1,0.6,1.9,0.3,2-0.7c0.1-0.7-1-0.7-1.8-0.9
		c-1.4-0.3-2.6,0.1-3.9,0.2c-4.5,0.5-9.2,1.6-13.6-0.7c-0.3-0.2-0.6-0.4-1.1,0.1c-2.4,2-5,2.5-7.8,0.9c-0.6-0.4-1.7-1.2-1.9-0.3
		c-0.4,2.9-2.5,1.2-3.8,1.7c0.6-1.4-0.3-2.8-0.1-4.2c0.1-0.9-0.3-0.9-0.8-0.9c-0.4,0-1,0-1.2,0.3c-2.1,2.2-4.8,3.8-7,3.4
		c-4.4-0.8-8.9-1-13.2-1.1c-3.5-0.1-7.1,0-10.6,0.1c0.1-0.2,0.1-0.4,0.2-0.5c0.2-0.1,4-3.8,4.6-4.4c0.5-0.5,1.3-0.6,1.8-0.3
		c0.8,0.4,1.7,0.4,2.5,0.4c0.9,0,2.3,1.2,2.6,2.2c0.6,2,2.9,1.9,3.9,1.6c1.4-0.5,4.1-0.6,3.5-3.5c-0.2-0.8,0.4-1.9,1.6-1.4
		c3.5,1.4,6.9-2.6,10.5-0.1c0.5,0.3,2.3-0.8,2.9-2.5c-4.8,0.1-9.3-1-13.9,0.5c-2.9,0.9-6.4-1-9.3,1.2c-2.2-2.6-5.2-1.1-7.8-1.1
		c-4.8-0.1-9.7-0.5-15.3,1.7c4.4,0.7,5.6,4.7,9.1,6.3c-4.4,0.9-6.8-2.7-10.5-3.5c0.3,1.1,0.4,2.3-0.1,3.5c-0.2,0.5-0.2,1.2-0.9,1
		c-3.5-1.1-6.7,0.1-10,0.8c-0.2,0-0.4-0.1-1.2-0.5c2.5-2,5.1-1.3,7.4-1.6c0.7-0.1,1.7,1.1,2.1-0.4c0.2-0.6,0.4-1.4,0.1-1.8
		c-0.6-0.8-1.4-0.4-2.3-0.3c-2.6,0.3-5.2,0.8-7.9-0.2c-0.7-0.2-2.7,0.4-1.7,1.6c1.5,1.8-0.5,2.5-0.9,2.6c-2.5,0.6-5,1.5-7.7,1.3
		c-0.4,0-1.1,0.1-1.2-0.2c-2.5-4.8-7.3-2.9-11.1-3.4c-5.8-0.8-11.7-0.4-17.5-1c-3.6-0.4-6.9-0.2-10.4,0.6c-1.9,0.5-4,0.3-6,0.5
		c-1.8,0.2-3.8,0-4.5,2.3c-0.1,0.3-0.8,0.7-1,0.6c-4.1-1.8-8.6-0.4-12.8-1.8c-0.9-0.3-1.8-0.8-2.6-1.8c-1.2-1.8-3.1-2.8-5.3-1.8
		c-0.5,0.2-1.3,0.6-1.5,0.2c-1.9-3.1-5.7-1-8.1-2.9c-0.7-0.6-2.2-0.2-3.4-0.2c-0.4,0-1.1,0.5-1.2,0.4c-3.1-3.1-7.7-0.8-11.1-2.8
		c-1.2-0.7-2.4,0.9-4-0.2c1.9-0.3,3.6-0.6,3.3-3.1c-0.1-0.8,1-1.6,2.2-0.6c2.3,1.8,5.1,0.3,7.7,1.1c0.8,0.3,2.1-0.2,1.6-1.7
		c-0.3-0.8,0.2-2.4-1.8-1.8c-0.6,0.2-1.5-0.6-2.4-1c1.6-1.5,3.1,0.1,4.4-0.2c0.6-0.1,1.6,0.6,1.5-0.8c0-0.6,0.1-1.6-0.9-1.3
		c-1.6,0.4-2.7-2-4.1-0.9c-0.6,0.5-0.8,0.6-1.5,0.4c-2.8-1.1-5.8-0.5-8.7-0.7c-3.3-0.2-2.9,2-2.5,3.4c0.6,1.9-0.7,2.5-1.5,3.1
		c-1,0.6-1.3-0.8-1.7-1.5c-0.5-1.2-0.1-2.1,1.4-2.1c1.4,0,0.9-1,0.8-1.6c-0.1-1.1-0.8-1.1-1.6-0.9c-2.3,0.6-4.4,0.2-6.1-1.6
		c-0.3-0.3-0.5-0.6-1.1-0.4c-1.6,0.6-2.7,2-4.7,2c-1.9,0.1-3.8-0.9-5.7-0.2c-0.7-0.9,0.9-2.1-0.2-2.6c-1-0.4-2.8-0.6-3.4,0.5
		c-1.3,2.5-3.8,1.6-5.7,2.4c-2.3,1-4.9,1.4-7.5,1.9c-2,0.4-3.9-0.2-5.8-1c-1.6-0.6-3.2,0.3-4.6,1c-2,0.9-3.9,2.1-6.1,0.7
		c-0.3-0.2-0.9,0.6-0.7,0.2c1-2.5,0.4-6.2,4.6-6.4c0.7,0,1.7-0.4,2.3-1.9c-4.2,1.7-8-0.5-12.1-0.1c-2.5,0.3-6.1-0.1-8.9-1.6
		c-0.6-0.3-1.4-0.2-1.2-1.1c0.1-0.6,0.4-1.4,0.8-1.7c0.5-0.3,1.5-0.7,2,0.3c0.6,1.3,1.2,0.9,2.3,0.3c1.7-1.1,3.5-0.5,5.4-0.2
		c0.9,0.2,2-0.1,2.9-0.2c0.2,0,0.5-0.4,0.6-0.6c0.1-0.6-0.3-0.9-0.7-0.8c-1.4,0.2-2.5-0.6-3.7-0.9c-1.3-0.3-3.1-0.4-3.1-1.5
		c0-1.1,0.7-2.9,2.4-3.3c0.3-0.1,0.5-0.6,0.7-1c-2.6-1.3-5.1,1.1-7.7-0.2c-1-0.5-0.4,2.2-1.9,2.6c0.8,1.2,2.9-0.1,3.1,1.9
		c-1.1-0.2-2-1.1-3.1-0.9c-1.5,0.3-2.5,0.2-1.4-1.7c0.2-0.4,0.2-1.5-0.9-1c-1.1,0.5-1.4,0.1-1.8-1c-1.1-3.1-1.2-3.1-3.3-1.1
		c1.2-2.9,1.2-2.8,4.2-3.2c2.1-0.3,4.3,0.8,6.5-0.2c-0.7,1-2,2.1-1,3.2c0.8,0.9,2.1,1.5,3.5,0.8c0.9-0.5,1.9-0.3,2.9-0.4
		c0.9,0,2.9,0.6,1.4-1.7c-0.5-0.7,0-1.1,0.6-1.1c0.7-0.1,1.3,0,0.9,1c-0.2,0.6,0.3,1.1,0.8,1.1s1-0.5,0.9-1.1
		c-0.6-2.2,0.5-2,2.1-1.8c0.9,0.1,2.5,0.9,2.7-1.2c0.1-1,0.4-1.5-1.1-1.5c-5.5-0.2-11,0.3-16.5,1c-1,0.1-3.2,1.3-1.9-1.6
		c0.4-0.9-0.8-2.2-1.3-1.8c-1.7,1.2-4.1-0.4-5.5,1.5c-0.7-0.9,0.3-1.6,0.2-2.5c-0.2-1.5-0.6-2.7,2.2-1.7c2.1,0.7,5.3-0.8,7.6-1.8
		c2.5-1.1,5-0.7,7.4-1.4c1.1-0.3,2.5-0.1,3.5-1c0.8-0.8,1.4-0.3,2.1,0.3c1.9,1.5,3.7-0.1,5.5-0.4c-0.3-1.1,1.7-1.2,1.1-1.8
		c-1.3-1.3-3.7-2-0.7-4c0.2-0.1-0.3-0.8-0.8-0.7c-0.9,0.1-2.1-0.4-2.5,0.9c-0.2,0.8,0.4,1.9-1.4,1.9c0.4-2-0.1-3.6-2.4-2.1
		c-1.1,0.7-0.8-0.3-0.9-0.4c-0.4-0.4-0.2-0.8,0.4-0.9c2.4-0.3,2.7-1.4,1.8-3.6c-1-2.5,1.2-1.8,3.3-2.3c-2.6,2.2-1.2,3,0.2,3.8
		c0.3-2,3.5-5,5.7-5c1.3,0,2.5-0.5,2.5-1.5c0.1-1.6-1.4-0.7-2.2-0.8c-3.1-0.3-6.2-0.3-9.2,0.7c-0.2,0.1-0.5,0.3-0.6,0.2
		c-2.2-1.3-4.2-0.6-6.4,0.2c-1,0.4-1.3-1.6-1.8-2.8c1.1,1,2,1.3,3.1,0.4c1.5-1.3-0.3-1.9-0.6-2.8c1-0.6,2.1-0.8,2.7,0
		c0.8,1,1.2,1.2,1.8,0c0.3-0.7,2.3-1,0.5-2.1c-0.9-0.6-0.4-1.3-0.4-2c0-0.9-0.8-1.5-1.5-0.6c-1.4,1.9-3,1.7-5,1.1
		c-1-0.3-2.3-0.6-3.5,0.1c-0.5,0.3-1.4,0.3-1.5-0.7c-0.1-0.9,0.5-1.6,1.4-1.5c4.1,0.7,8.1,0.1,11.5-1.9c2-1.2,4.5,0.5,6.1-1.7
		c-0.8-1.2-2.1-0.1-3.2-0.8c-0.2-1.1,1.9-0.7,1.5-2.1c-0.1,0-0.4-0.3-0.6-0.2c-1.3,0.6-2.9,0.5-3.8,1.8c-0.6,1-1.4,0-1.6-0.2
		c-1.1-1.4-2-1-2.9,0.1c-0.1,0.1-0.7,0.7-1,0.1c0-0.1,0.8-0.5,0.8-0.8c0.2-1.3-3,0.4-1.7-1.7c0.7-1.1,1.7,1,2.9,0.7
		c0.9-0.2,1.2-0.8,0.9-1.4c-0.5-1.1-0.7-1.7,0.8-2.2c1.5-0.5,2.2-0.1,3,0.9c0.9,1,0.9,1,1.6-0.2c0.7-1.4,1.8-0.7,2.9-0.7
		c0.1,1.3-2.3,1-1.5,2.2c1,1.6,2.5,0,3.9,0.2c1.9,0.3,0.1-1.2,0.3-1.7c0.8-2.3,3.2-1.9,4.8-1.9c4.6-0.2,9.1-2.2,13.8-1.4
		c0.4,0.1,1.2-0.4,1.3-0.8c0.3-0.9-0.8-0.4-1-0.7c-0.9-1.7,1.6-0.4,1.4-1.8c-2.7,0.3-5.3-0.4-8.2,0c-3,0.5-6.4,0.4-9.6,0.2
		c-2.6-0.2-4.5-2.5-4.8-4.6c-0.2-1.6,2.3-3.2,4.1-3.9c0.5-0.2,2.1-0.3,2.3-0.2c3.7,4,4.9-1,7.2-2c0.4-0.2,0.7-0.7,1.1-0.7
		c3.1-0.5,6.2-0.9,9.4-1.4c-0.9-1.4-1.9-3-2.7-4.6c-1.2-2.6-0.5-5.1,2.2-5.8c2.8-0.7,5.3-2.9,8.5-1.5c0.8,0.3,1.8-0.2,2.8-0.6
		c1-0.4,2.5-1.2,3.4-0.4c2.9,2.4,2-0.4,2.5-1.4c-2.7-1-5.6,1.3-7.9-1.1c-1.1,1.5-2.7,0.9-4.1,1c-1.9,0.1-3.3-1.4-4.5-2.6
		c-0.2-0.2,0-0.9,0.6-0.8c0.3,0,0.7,0.5,0.8,0.4c1.3-1,4.3,0.2,4.1-1.9c-0.1-1.7-2.6-0.8-4.1-0.9c-0.7,0-1.3,0.1-2,0.1
		c-0.9,0.1-1.8,0-2.2-0.9c-0.4-0.7,0-1.3,0.5-1.7c0.9-0.7,1.7-0.1,2.3,0.5c1.9,2.1,3.9-0.8,5.8,0.1c0.4-1.9,2.2-3.1,2.8-4.7
		c1.3-3,3.5-2.2,5.3-1.7c2.1,0.7,4.3,0.9,6.5,2c1.4,0.7,3.9-0.7,5.7-1.5c0.7-0.4,0.1-1.4-0.9-1.9c-1-0.5-1.9,0.2-2.8,0.2
		c-3.4,0.2-6.1-2.1-9.4-2.2c-2.5-0.1-4.8-0.3-6.8,2.2c0.2-5.7-5-8.2-7.1-12.6c0.4-0.2,0.6-0.4,0.7-0.4c2.4,1.7,2.4,1.9,5.6,1.2
		c2.5-0.5,4.4,1.5,6.9,0.8c0.9-0.3,2.8,1.2,2.3-1.5c-0.1-0.6,1.4-0.7,2-0.4c1.5,0.6,3,0,4.5,0c-1.3-2-3.5-1.2-5.2-1.6
		c-3.9-1-8-0.6-11.9-1.7c-2.1-0.5-1.8-4.2-4.6-2.7c0.1-0.3,0.2-0.8,0.3-0.7c1.8,0.1-0.9-2.3,1.5-2.3c7.2,0.2,14.5-1.9,21.7-0.2
		c0.8,0.2,0.9,0,1.7-1.9c1.4,0.1,0.2,2.5,1.7,2.2c2.4-0.5,3.3-2.6,4.1-4.4c-2.4-3.1-5.4-1.1-8.2-1.3c-0.3,0-0.7,0.2-0.8,0.4
		c-1.5,2.1-4.1,3-6.9,2.5c-2-0.4-4-1-6.1-0.7c-0.6-1.3,2.3-0.6,1.2-2.5c-1.6-2.7-3.3,0.3-5-0.7c1.4-1.2,3.2-1.5,4.6-1.2
		c2,0.3,3.2-0.6,4.1-2c2.3-3.4,5.6-5.9,8.6-8.5c0.4-0.4,1.4-0.4,1.1-1.3c-1.1-3.1,1.3-0.9,1.8-1.5c0.9,1.4-1.9,1.3-0.7,2.8
		c1,1.2,1.9,0.5,2.8,0c2-1,2.5,0.8,3.3,1.9c-0.2,0.2-0.3,0.4-0.5,0.6c-2.3,1.9-5,2.6-7.9,2.3c-0.8-0.1-1.7,0-2.5-0.1
		c-1.9-0.3-1.6,1.3-1.6,2.1c-0.1,1.4,1.1,1.2,2.1,1.3c3.2,0.2,6.7,0.5,9.7,0c2.7-0.5,5,1.6,7.7,0.2c1.4-0.7,2.8,0,3.2,2.2
		c0.2-3,2.2-2.1,3.7-2.1c4.1,0,8.2-0.5,12.1,0.2c3.2,0.5,6.2-2.5,9.6,0c0.6,0.4,2.9-2.4,5.2-2.1l0,0c1.1,2,2.9,1.4,4.6,1.4
		c2.8,0.1,5.6,0.8,8.1-1.1c0.8-0.6,1-0.1,1.4,0.6c0.5,0.9,1.3,1.6,2,2.4c0.4,0.4,1.1,1.2,1.6,0.7c0.5-0.4,0.6-1.3,0.9-2
		c0.3-0.8,0-1.2-0.8-1.4c-0.5-0.1-1.6,0.3-1.2-0.8c0.2-0.9,0.9-0.5,1.6-0.4c4,0.6,8.1,0.3,12.1,0.2c3.6-0.1,7.3-0.6,10.9-0.6
		c2.4,0,5.5,0.7,7.9-1.5c1.1-1,3.2-3,4.7,0c0.5,1,1.1,0.4,1.6,0.1c1.1-0.6,0.5-1.4,0.4-2.3c-0.1-1-0.4-1.2-1.4-1.3
		c-3.1-0.2-6.3,0.3-8.9,1.8c-2,1.2-4.2-0.8-5.9,1c-0.1,0-0.4-0.2-0.6-0.2c-1.6,0.1-2.6-0.9-2.6-2.6c0-0.1,0.1-0.2,0.1-0.3
		c0-1.2-2.7,0-1.8-1.9c0.6-1.4,1.9-0.2,2.8-0.5c1.1-0.3,2.1-0.6,3.3-0.8c5-0.6,10-0.1,15-0.9c6.4-0.9,12.9-0.9,19.4-0.7
		c0.8,0,1.4,0.5,1.9,1.1l0,0c-0.6,0-1.2,0.5-1.2,0.9c0.3,3-1.9,3.2-3.8,3.1c-4.4-0.1-8.7,1.3-13.1,0c-0.6-0.2-2.1,0.6-2.1,2.1
		c0,1.4,1.1,1.4,1.8,1.2c3-0.6,6.4,0.9,9.2-1.4c0.3-0.2,0.9-0.6,1.1-0.4c4.3,2.6,8.5-0.2,12.7-0.3c2.3-0.1,4.7,0.6,7-0.5
		c0.4-0.2,1.1-0.1,1.6,0.1c2.3,1.3,2.2,0.5,4.9,0.4c2.3-0.1,5.5-2.7,7.4,1.2c0.6,1.1,1.8,0.4,2.4-0.5c1.1-1.7,2.8-1.8,3.9-0.9
		c2.8,2.5,5.5,0.9,7.9-0.1c1.7-0.7,3.3-1.4,5.6-1.6c-1.9-1.5-2.5-3.7-4.9-4c-0.6-0.1-1.9-0.3-1.2-1.7c0.4-0.9,0.4-2.8,1.7-2.2
		c4.2,1.8,8-1.3,12.2-0.5c2.5,0.5,5.3-0.6,6.6,3.6c0.8-2.2,1-4.6,3.3-2.4c0.6,0.5,1.2-0.2,1.7-0.6c1.2-1,3.2-1.3,4-0.6
		c2.1,1.9,3.6,0.8,5.4-0.2c1.1-0.6,2.3-0.4,3.5-0.4c4.9,0.1,9.8,0.2,14.8,0.1c3,0,4,2,4.9,4.1c-4.5,1.3-9,0-13-0.6
		c-3.9-0.5-6.7,2.3-10.2,0.8c1.6,1.1,3,2,4.9,1.9c1.1-0.1,2.2,0.2,2.7,1.4c0.4,0.9,0.9,1.3,1.6,0.3c1.9-2.6,4.2-1.9,6.3-0.7
		c1.7,0.9,3.5,1.3,5.2,1.4c2.5,0.3,5.2-0.4,4.3-4.2c5,1.3,9.7,2.5,14.4,3.6c1,0.2,1.2-1.5,2.6-1.1c2.7,0.8,7.5,0.4,10.7-0.2
		c1.1-0.2,2.5-1.1,3.2,0.8c0.1,0.2,1.3,1.7,2.1-0.1c0.7-1.6,0.9,0.5,1.5,0.4c1.1-0.2,3,2.7,3.3-1c0.1-1.3,1.6-0.5,2,0.1
		c0.8,1.4,1.9,2,3.2,1.4c1.1-0.6,0.5-1.8,0-2.9c-0.6-1.4,0.4-2.3,1.5-2.8c1.3-0.6,1.6,0.4,2.1,1.4c0.3,0.6,0.6,2.1,1.8,1.2
		c1-0.8-0.1-1.6-0.6-2.5c2.8,1.7,6.7,1.2,8.5,5c-2.2,1.2-3.9-0.5-5.8-1.1c-0.6-0.2-1.4-1-1.2,0.2c0.2,1-1.8,1-0.6,2
		c1.7,1.4,10.2,2.1,12,0.9c0.5-0.3,1.1-0.8,1-1.9c-1.6,0.7-2.9-0.2-4.5-1.1c1.5-0.9,4.2,0.4,3.5-2.6c-0.1-0.4,0.5-0.7,0.9-0.7
		c3.9-0.2,7.7,0.3,11.5,1.3c0.5,0.1,0.9,0.5,0.9,1.2c0,1.1,0.6,1.6,1.2,1.1c2.5-2.4,5.8-2.7,8.8-2.9c2.9-0.3,5.8,1.2,8.8,0.1
		c0.2-0.1,0.9,1,1.4,1.5c-0.9,1.3-2.4-0.6-3.2,0.9c-0.4,0.8,1.1,3.3,2,3.3c6.2,0,12.3-1.7,18.5-0.9c1,0.1,1.2-0.8,1.7-1.3
		c2-2.2,4-2.1,4.8,0.6c0.3,1.1,0.6,0.9,1.5,0.9c2.2-0.1,1.8-1.7,2.1-3.7c0.8,2.2,3,2.3,3.6,2.2c2.6-0.3,4.5,0.8,6.5,1.8
		c1.8,0.9,3.4,0.8,5-0.7c1.1-1,2.3-1.3,3.9-1c2.7,0.5,5.5,0.5,8.7-1.7c-0.9,2.1-1.5,3.8,1,3.1c2-0.5,2.5,1.3,3.8,2.2
		c0.9-1.6,0.2-2.9-0.7-4.1c4,0.1,6.7,3.1,10.5,2.9c1.3-0.1,2.6,0.2,3.8-0.6c1.3-0.8,2.4-0.4,3.6,0.3c1,0.5,2.7,2.6,3.6-0.5
		c0.3-1,1.2-0.2,1.5,0.2c0.7,0.8,1.3,1.7,1.8,2.7c1.5,3,3.9,2.9,6.7,2.5c3.5-0.5,6.7-1.5,9.6-3.5c-0.6-1.4-2.2,0-2.9-1.4
		c2.3-2.7,5.8-2.4,8.7-3.3c0.2-0.1,0.6,0.3,0.7,0.5c0.7,1.1-1.8,0.6-1,2.4c1,2.1-0.9,0.6-1.6,0.8c-1.2,0.2-2.7,0-3,1.7
		c-0.4,2.3,1.7,1,2.5,1.5c0.5,0.4,1.5,0.2,2.2,0.3c0.6,0,1.2,0,2.2,0c-1.7,2.2-3.7,1.6-5.4,1.5c-1.4-0.1-2.8-0.1-4.2,0.1
		c-1.1,0.1-2.7,0.1-1.4,2.1c0.2,0.2-0.1,0.8-0.1,1.2c-0.1,0.7-2.1,0.7-0.8,1.9c1.2,1,2.1-0.2,2.7-0.9c0.5-0.7,1.2-1.1,1.5-0.7
		c2.2,2.9,2.7,0.9,4.1-0.9c1.9-2.3,4.9-0.7,6.7,0.2c2.5,1.2,4.6,1,6.8,0.3c2.1-0.7,3.3-0.8,3.6,2.5c1.7-3.6,3.3-2.7,5.3-1.1
		c1.6,1.3,3.5,2.4,5.8,1.7c0.8-0.2,1.5-0.4,1.2-1.4c-0.2-0.5-0.7-0.9,0.2-1.2c0.8-0.3,1.4,0.3,1.6,0.8c0.8,3.7,4,1.6,4.7,1.1
		c3.7-2.5,7.6-4.1,12-4.5c0.2,0,0.4-0.1,0.8-0.3c-1.3-1.6-2.8-0.9-4.6-0.3c1.5-1.6,4.1-2.1,5.3-0.8c1.3,1.4,1.9,1.3,3,0
		c0.3-0.4,1.2-0.4,1.9-0.4c2,0,4,1,6-0.8c0.4-0.4,2.3-0.1,3.2,1.3c0.8,1.4,5.6,1.6,6.8,0.6c0.9-0.8,0.9-0.8,0.6-3.1
		c1.6,3.1,3.3,4.2,6.1,2.3c0.5-0.4,2.5-0.7,2.6,1.4c0,1.8,0.9,1.7,2,0.8c2.8-2.4,5.5-2.5,8.3-0.6c1.4,1,3,0.3,4.5,0.1
		c0.6-0.1,1.1-0.8,1.7,0c0.4,0.5,0.2,0.9-0.2,1c-0.7,0.2-0.5,1.8-1.6,1.1c-1.7-1.1-2.5-0.6-3,1.3c-0.6,2,1,2.1,1.9,2.7
		c0.7,0.4,1.3,0.8,1.7,1.7c-6,2.3-13.6-1-18.8,5c1.5,0.5,3.2,0.6,4.2-0.2c1-0.8,2.7-0.7,2.8-0.6c4.1,2.7,8.9-1,13,1.5
		c1,0.6,1.7-0.7,2.4-1.3c2,9,4.9-0.6,7.3,0.5c0.5,1.2-1.8,2.5,0.3,3.5c0.1,0,0.1,0.3,0.1,0.3c-1.8,1.5-2.8,3.2-2.4,5.8
		c0.1,0.7-1.6,1.5,0.2,2.5c0.6,0.3,0.8,1.6,1.1,2.5c-1,0.2-1.7,0.9-2.9,0.8c-4.3-0.3-8.5-0.7-12.9-0.3c-1.7,0.2-3.1,0.5-4.7,0.9
		c4.4,4.3,9.6,1.9,14.3,2.2c0.8,0.1,1.5-0.1,2.1,0.4c1.7,1.3,3.2,1.4,4.5-0.6c0.5-0.7,1.5-1.1,1.9-0.4c0.8,1-0.2,1.1-1,1.2
		c-0.2,0-0.5,0.2-0.5,0.3c-1.1,4.5-4.6,4-8,4.2c-0.8,0-1.7-1-2.3,0c-1.3,1.7-2.5,3.5-4.2,4.9c-0.4,0.4,0.5,1.2,0.9,0.8
		c1.1-1.2,2.9,0.4,4-1.4c1.1-1.7,1.3,1.7,2.8,0.9c-1.5-3.8,3.8-0.8,3.2-4.5c1,1.6-0.6,2.2,0.3,2.9c0.7,0.5,1.2-0.1,1.7-0.6
		c0.5-0.5,1.3-0.9,1.8-0.4c2.1,2.2,5.1,1.7,7.1,1.3c2.4-0.4,2.4,1.9,4.2,2.1c1.9,0.2,3.8,0.2,5.7,0.4c3.3,0.3,6.6-1.2,9.8,0.1
		c0.2,0.1,0.7,0,0.8-0.2c2.1-2.7,5.3,0.1,7.6-1.6c0.5-0.3,0.6,0.7,0.7,1.2c0.3,0.7,0.2,1.3-0.6,1.5c-0.9,0.2-1.9,0.6-2.7-0.3
		c-0.8,1.1-2.9-3.6-2.9,0.7c-2.2-0.6-4.2,0.9-6.4,0.6c-1.9-0.3-3.7,0.4-4.1,2.4c-0.4,2.4,0.7,3.8,4.4,2.6c-2.3,1.9-4.1,2.2-5.9,2.5
		c-0.8,0.1-1.7,0.2-1.8,1.1c-0.1,1.2,1.1,0.9,1.8,1.3c1.4,0.8,2.8-0.1,4.2,0.2c0.6,0.1,1.4-0.7,1.7,0.1c0.3,0.8-0.3,1.3-1,1.8
		c-0.8,0.6-1.5,1.3-2.8,1.4c3.9,3.4,8.1,3,12.3,2.7c1-0.1,1.1,0.6,1.1,1.3c0,1.1,1,1.4,1.6,1.3c1.4-0.2,0.4-1,0.1-1.5
		c1.7-0.2,3.3-1.2,5-0.6c0.6,0.2,1.3,0.5,1.7,1c2.2,2.9,5.1,4.2,8.4,3c3.2-1.2,4.6,1.2,6.9,2.6c-2.5-0.6-3.9,0.3-4.8,2.7
		c-1.1,2.8-2.2-0.4-3.4-0.4c-0.4,0.9,1.1,3.2-2.1,1.8c-2.7-1.1-6.1-0.6-9.2-0.6c-1,0-2.5-0.5-2.7,1c-0.3,1.6,1.2,1.8,2.2,2.3
		c0.5,0.2,1,0.3,1.7,0.4c-1,1.6-3.5-0.1-4,2.3c2.6,0.2,5.1,0.1,7.6,0.5c1.3,0.2,3.8-0.4,3,2.7c-0.5,1.8-0.3,1.6-2.1,1.2
		c-1.5-0.3-2.9-0.8-4.9-0.3c-4.9,1.3-8,5.3-12.6,6.5c0.4-2.9,0.4-2.9,3.2-3c1-0.1,2.2,0.3,2.4-1.5c0.1-1.7-0.9-2.1-2-2.1
		c-3.1,0-6.2,0.2-9.4,0.4c-0.4,0-1.1,0.3-1,0.6c1.5,2.5-1.2,4.2-1.1,6.4c0,0.6-1,1.5,0.3,1.9c0.9,0.2,1.6-0.3,1.8-1.1
		c0.4-1.4,1.5-1.7,3-2.6c-1.5,3.7,0.7,3.4,2.8,3.3c1.7-0.1,3.5-0.5,5.1-0.2c2.5,0.4,6-0.1,5.1,4.5c2.2-0.6,4.3-0.4,4.4-3.4
		c0-0.7,1.2-2.6,3.2-1.4c1.9,1.2,2.9-0.9,4.1-1.6c1.4-0.8-0.4-1.5-0.9-2.2c-0.8-1,0-1.8,0.4-2.3c0.6-0.6,1.4-0.1,1.9,0.6
		c1.5,1.8,0.9,4.3-1.5,5.4c-1.1,0.5-1.3,1.5-1.5,2.3c-0.2,1.1,0.9,0.5,1.4,0.7c0.2,0.1,0.7,0.5,0.6,0.5c-0.2,0.4-0.4,0.9-0.7,1
		c-2.9,0.8-5.5,2.5-8.6,2.7c-3.1,0.1-6.5-2.3-9.5,1c-0.2,0.2-3.9,1.4-5.1-1.3c-0.1-0.3-1.3-0.5-1.4-0.4c-2,3.8-4.9-0.2-7.3,0.7
		c-0.5,0.2-2.1,0.7-2.6-0.8c-0.1-0.3-0.9-0.7-1-0.2c-0.9,4.1-4.3,1.7-6.5,2.9c2.2,0.1,3.1,3.8,6.1,1.8c0.6-0.4,1.5-0.4,2.2-0.3
		c3.1,0.7,6.2,0.9,9.3,0.6c1.1-0.1,1.9,0.2,2.4,1.4c-1.4,0-2.6,1.5-4.1,0c-0.7-0.7-1.3,0.3-1.8,0.8c-0.4,0.4-0.8,1-0.4,1.5
		c0.4,0.6,1.2,0.5,1.8,0.2c1.5-0.6,2.5,1.8,4.6-0.3c-1.8,3.7-4.3,2.6-6.4,2.9c-0.7,0.1-1.8-0.2-1.7,1c0.1,0.9,1,0.6,1.6,0.6
		c2.3,0.1,4.7,0.2,6.9,0.3c-2.7,2-6,3-9.3,3.8c-0.9,0.2-1.1,1-1,1.8c0.2,1.1-0.8,1.7-1.2,2.6c-0.4,1.1-1.1,0.4-1.5,0.1
		c-0.8-0.5,0-0.7,0.3-1c0.4-0.4,0.8-0.7,1.2-1.1c-1-0.9,1.1-1.8,0.1-2.4c-0.8-0.6-1.7,0.1-2.1,1c-1,1.8-2.8,1.4-5.4,1.5
		c3.4,1.4,3.7,4.6,6.2,5.3c-6,1.3-9.3,7.4-15.7,8.3c1.3,1.6,3.4-0.1,4,2.1c-1.3,0.5-2.7,0.7-4,0.2c-1.4-0.5-2.5-0.1-3.7,0.5
		c-1.8,0.8-3.7,0.7-5.6-0.3c-2.5-1.2-5.1,0.2-7.7,0.3c-6.2,0.2-12.1,2.3-18.3,2.2c-1.8,0-3.6,0.6-5.4,1.1c-0.6,0.1-1.9-0.2-1.5,1.1
		c0.2,0.7,0.9,1.3,1.8,0.8c0.7-0.4,1.4-0.6,2.1-0.3c0.5,1-1.7,0.6-0.9,1.5c0.4,0.4,1.2,1.1,2,0.2c1-1.1,1.5-0.6,2.2,0.4
		c1.3,1.9-1,0.8-1.1,1.5C575.8,168.9,572,168.2,570.9,170.4L570.9,170.4z M385.2,192.9c-2.5-1.5-4.9-1.9-7.8-1.4
		c-2.4,0.5-5.1,1.3-7.4,0.9c-7.8-1.4-15.7-0.6-23.5-0.8c-5.8-0.1-11.7,0-17.6-0.3c-6.5-0.4-12.9,1.1-19.5,0
		c-1.6-0.3-3.9-1.2-4.6-0.9c-4.3,2.2-8.5,0.1-12.7,0.5c-5.2,0.4-10.5,0.8-15.7,0.7c-4.6-0.1-9.2,1.7-13.9,0.6
		c-1.5-0.4-1.2,1.1-2,1.7C302.2,195.3,343.7,195.1,385.2,192.9z M543.3,165.9c-2,1,0.8,1.9,1.4,2.2c1.8,0.9,3.8-0.6,5.8-0.2
		c0.6,0.1,0.8-1.1,0.8-2.2c-1.3,0.7-2.7,1.1-3.7-1c2.1,1.3,4,0.3,5.7,0.5c1.3,0.2,0.1-2.2,0.9-1.2c1.1,1.3,2.6,1.3,3.8,2.1
		c1.5,1.1,3.2,2.3,3.1,3.9c-0.2,2.2,0.8,2.8,2.4,3.4c0.9-0.6-0.2-2.4,1.6-2.4c1,0,2.4,1.3,3-0.8c-1.9-1.1-4.4-0.7-6-2.9
		c2.7,1.4,5.6-1.6,8.2,1c0.5,0.5,1.1,0,1.4-0.4c0.5-0.9,1.1-1.6,2.3-1.5c0.5,0,1.2-0.1,1.2-0.8c0-0.8-0.7-0.7-1.2-0.8
		c-3.3-0.6-6.5-1.2-9.8-1.9c-1.2-0.3-2.7,0.4-3,0.9c-1.6,3.2-3.2,0.6-4.2-0.2c-1.5-1.2-3-1.7-4.9-1.4c-3.2,0.5-6.3,1.7-9.8,1.1
		c-1.8-0.3-4.8,0.8-5,4.1C539.9,167.7,542.2,167.5,543.3,165.9z M371.6,199.4c1.2-0.8,3.8,0.2,3.6-1.1c-0.2-1.9-2.6-1.2-4.1-1.3
		c-0.2,0-0.4,0-0.6,0c-5,0.1-10.1,0-15.1,0.5c-4.5,0.4-9-0.6-13.4,0.7c-2,0.6-1.1,1.4-0.6,2.2c0.7,1,1.8,0.9,2.7,0.7
		c3.4-0.8,6.6,0,9.9,0.5c1.1,0.2,2.3,0.2,3-0.7c1.6-2,4-1.9,6-1.6C366,199.8,368.8,198.7,371.6,199.4z M60.8,164.1
		c-5.6,0-10.5,1.1-15.5,0.6c-0.4,0-2,0.1-1.9,1.3c0.1,1.4,1.3,1.3,2.2,1.1c1.8-0.3,3.1-0.2,3.2,2.1c0,0.3,0.7,4.4,2.7,0.8
		c0.3-0.6,0.8-0.4,1.4-0.1c2.6,1.4,5.3,0.1,8,0.2c0.4,0,0.9-0.1,1-0.6c0.2-0.8-0.5-0.8-0.9-1.1c-1.5-1.1-3.1-1.4-4.8-0.9
		c-0.8,0.2-1.7,0.3-1.7-0.7c0-0.8,0.8-0.6,1.5-0.4C57.8,166.7,59.1,165.9,60.8,164.1z M283,12.9c-5.1,0.4-10.2,0.7-15.2,1
		c-1.2,0.1-2.9,0.8-2.6-1.8c0.2-1.8-2-1.7-3-1.6c-2.3,0.2,0.4,0.9,0.1,1.6c-0.2,0.4-0.3,0.7-0.7,0.9c-1.2,0.4-1.7,1.3-1.1,2.5
		c0.6,1.3,1.6,1.2,2.9,1.2c3.8,0.2,7.6-0.7,11.4-0.5C277.6,16.4,281.7,18.2,283,12.9z M434.9,200.1c2.8,0,3.1-1.3,3.1-4
		c0-3-1.7-1.1-2.5-1.6c-2.5-1.4-1.5,1.2-2.1,1.8c-1.3,1.5-1.4-3.6-3-0.5c-0.5,1-2,1.4-3.2,1.2c-1.8-0.3-3.5,0.1-5.3,0.4
		c-0.8,0.1-2.1-0.3-2,1c0,1.2,1.5,0.9,2.1,1C426.2,200.2,430.5,200.3,434.9,200.1z M417.9,200.4c-0.4-1.5-2.4-1.8-1.6-3.3
		c0.2-0.5,1.8-0.2,1.1-1.4c-0.5-0.8-1.4-0.3-2.1-0.3c-2,0.1-4.1,0.1-6.1,0.3c-0.9,0.1-2.2-0.3-2.7,0.8c-0.8,1.6,2.1,0.4,1.6,2.3
		c-1.5-0.9-3-0.7-4.5-0.6c-1.5,0.1-1,1.7-0.8,1.7c2.9-0.4,0.5,1.7,1.4,2.6c2.3-2.1,6,0,8.2-3.1c0.4-0.5,0.8,0,0.6,0.5
		c-0.5,1.9,1,1.1,1.5,0.9C415.5,200.6,416.5,199.8,417.9,200.4z M590.8,42.5c-1.2,4.3-1,4.7,2,4.7c3,0,6.2-0.3,8.7-1.2
		c2.7-1,4.8-1,7.3-0.5c0.7,0.2,1.6-0.3,1.8-1.1c0.2-1.1-1.1-1.3-1.5-1.3c-2,0.3-3.9-0.4-6,0.1c-1.5,0.4-5.2,1.8-3.1-3
		C596.7,41.6,594.2,44.3,590.8,42.5z M392.9,200.6c2.9,2.6,6.6,1.6,8.9-2.3c0.4-0.6,1.7-1.1,0.7-2c-0.8-0.7-2.1-1.2-2.9-0.1
		c-2.2,3.2-5,3.1-8.4,2.4c-1.1-0.2-2.7,0.5-3.7,1.3c-0.4,0.3,0.5,1.6,1.1,2.1c1.1,1.1,2.6,1.2,3.9,0.9
		C393.8,202.6,392.1,201.4,392.9,200.6z M547,34.3c1.3-0.1,1.9-0.1,2.6-0.2c0.9-0.1,2.1-0.2,1.8-1.3c-0.3-1-1.6-2-2.5-1.7
		c-2.3,0.8-4.9-0.3-7.1,1.3c-0.5,0.4-1.5,0.2-1.8-0.7c-0.2-0.5-0.1-1.1-1-0.5c-2.3,1.5-4.8,2.3-7.6,1.5c-0.6-0.2-0.8,0.1-1,0.5
		c-0.2,0.5,0.2,0.8,0.6,0.9c0.6,0.2,1.2,0.4,1.9,0.5C537.7,35.2,542.6,33.8,547,34.3z M468.7,26.7c1.5,0.2,2.4,0.3,3.4,0.5
		c5.7,1.4,11.4,0.8,17.1,0.7c0.8,0,2.3,0.2,2.7-1.2c-1.6-0.4-1.7-2.5-3.2-3c-1.2,3.5-4,1.3-6.1,1.7c-2.8,0.5-5.8,1.2-8.4,0.5
		C472.1,25.2,470.7,25.5,468.7,26.7z"/>
	<path class="st0" d="M209.9,14.1c1.5-1.6,2.9-2.6,5.5-1.9c2.1,0.6,4.7-0.3,7-0.9c2.5-0.7,4.8,0.7,7.2,0.4c0.6-0.1,1.7,0.6,0.4,1.4
		c-0.5,0.3-1.1,0.3-0.5,1.1c0.3,0.4,0.7,0.4,1.1,0.2c1-0.5,2.1-0.4,2.3-2.2c0.3-1.9,2.2-3.1,4-2.2c2.9,1.6,5.7,0.3,8.5,0.1
		c0.6-0.1,1.3-0.5,1.6,0.3c0.5,1.2,1.3,2.3,0.9,3.7c-0.3,1.1-1.3,0.7-1.9,0.6c-1.8-0.2-3.4,0.4-5,0.7c-2.2,0.4-4.5,1.9-6.5-0.4
		c-0.1-0.1-0.4-0.2-0.5-0.1c-2.9,3.8-7.2,1.5-10.7,1.7c-2.5,0.1-5.5,0.2-8.3-0.4c-1.4-0.3-2.5,0.5-3.7,1.4
		C210.5,16.5,211.1,14.9,209.9,14.1L209.9,14.1z"/>
	<path class="st0" d="M570.9,170.4c2.3,1.4,4.6,1.6,7.2,0.8c1.6-0.5,3.4-1.3,5-1.2c2.5,0.2,3.5-2.1,5.4-2.6
		c-0.7-1.5,1.5-2.8,0.2-4.3c-0.5-0.6-0.6-1.4,0-2.1c0.2-0.2,0.7-0.3,0.9-0.1c0.7,0.5,0.7,1.3,0.6,2.1c-0.6,2.6-0.4,4.5,3.1,3.5
		c0.2-0.1,0.6,0,0.6,0.1c1,4.9,4.9,2.2,7.5,2.7c0.7,0.1,1.9-0.1,1.6,1c-0.2,0.9,0.2,2.7-1.4,2.5c-3.2-0.3-5.9,1.8-9.2,1.7
		c-1.6,0-2.9-1-4.5-0.8c-1.7,0.2-3.5-2.2-5.2,0.3c-2.1-2.4-3.1-0.6-4.2,1c-1.7-2-3.8,1.1-5.8-0.7c-1-0.9-1.3-0.5-0.3-1.6
		C573.2,171.5,570.5,171.7,570.9,170.4L570.9,170.4z"/>
	<path class="st0" d="M122.3,210.7c1,0,2.4-0.2,1.3-1.4c-0.9-1.1-0.1-1.8,0.1-2.2c0.5-1,1.2-0.1,1.9,0.2c1.2,0.7,2,0.1,2.4-1.1
		c1.4-3.8,1.7-4,5.7-2.2c-1.3,0.9-1.5,3.6-4,1.7c-0.1-0.1-0.9,0.3-1,0.6c-0.2,0.5-0.2,1.2,0,1.5c1.6,2.5,5.8,2.7,8,0.6
		c1-1,0.1-2.5,1.1-3.7c0.6-0.7,1-1,1.8-1c1.2,0,2.1,0.9,3.5,0.5c1.1-0.3,2.4,0.4,4,0.6c-1.3,1.1-3.5-0.3-3.7,2
		c0,0.1-0.8,0.3-0.9,0.1c-2-2.5-2.4,0.6-3.6,1c0.6,1.5-1.5,3.6,1.1,4.8c-1.9-1.3-2.5,1.1-4.2,1.2c-3.6,0.3-4.6-2.5-6.5-4.3
		c-1.2-1.1-0.7-1-2-0.1c-1.2,0.9-2.8,1.1-4,2.3C123.1,212.3,122.5,211.3,122.3,210.7L122.3,210.7z"/>
	<path class="st0" d="M132.7,23.9c-1.1-2.6-2.1-2.8-4-2.8c-3.7,0-1.6,1.5-0.5,3.5c-3.2-3-6.3-1-9.3-1.4c-1.1-0.1-2.7,0.5-3-1.1
		c-0.4-1.7,0.8-2.6,2.4-2.9c3.2-0.6,6.8,0.5,9.7-1.9c0.6-0.5,1.1,0.1,1.6,0.5c2.2,1.3,4.5,2.7,7,0.2c0.8-0.8,2.3-0.5,3.4,0
		c0.5,0.2,1.5,0.2,1.4,1.1c0,1.1-1.3,0.5-1.4,0.5C138.6,22.7,134.4,21.2,132.7,23.9L132.7,23.9z"/>
	<path class="st0" d="M122.3,210.7c-3.3-0.3-6.4-1.9-10.5-1.5c1.4-0.8,2.7-2,1.5-2.3c-2.5-0.6-2-3.6-4.1-4.2
		c-1.2-0.4-0.7-1.5-0.5-2.2c0.2-1,1.2-0.7,1.9-0.6c4.6,0.9,5.9,2.9,5.7,6.7c-0.1,0.8,0.5,1.2,1.2,0.8c1-0.6,2.7-1.2,2.8-2
		c0.7-3.9,3.1-2.7,5.9-2.3C123.2,205,119.4,206.4,122.3,210.7C122.3,210.7,122.3,210.7,122.3,210.7z"/>
	<path class="st0" d="M586,18.4c0.1-0.2,0.1-0.4,0.2-0.5c1.4-1.4,2.9-5.1,4.4,0c0.1,0.3,2.2,0.4,2-0.5c-0.6-2.7,1.3-1.9,2.5-2.1
		c1.8-0.3,3.6-0.4,5.4-0.8c3.2-0.6,5.2,2.4,8,3.5C600.9,17.1,593.5,21,586,18.4z"/>
	<path class="st0" d="M81.2,181.8c-1.7,1.4-4.3-0.6-5.4,1.9c-3.7-2-8.1,1.3-10.9-0.5c-3.3-2.1-4.8,1.1-7.3,0.9
		c-1.6-0.1-3.2-0.2-4.2-1.1c-0.9-0.7,1-1.9,0.8-3.3c0.5,2.5,2.6,2.9,4.1,3.5c0.8,0.3,1.7-1.2,3.2-1.5c2.5-0.4,4.6,0.5,6.9,0.6
		c1.2,0,2,0.4,1.4-1.3c-0.4-1.2,0.4-0.6,1-0.6C74.2,180.9,77.7,180.4,81.2,181.8z"/>
	<path class="st0" d="M91.5,20c0.2-0.2,0.3-0.4,0.5-0.6c4.7-2.1,9.1-0.1,13.6,0.7c1,0.2,0.7,1.5,0.8,2.2c0.1,0.7-0.8,0.8-1.3,0.1
		c-0.1-0.1,0.1-0.6,0.2-0.9c-1.8-0.3-3.3-1.6-5.4-1c-2.4,0.8-4.7,1.6-7.3,0.8C91.8,21.1,91.8,20.6,91.5,20z"/>
</g>
<rect x="221.6" y="34.8" class="st1" width="238.3" height="52.6"/>
<text transform="matrix(1 0 0 1 221.6507 70.3637)" class="st2 st3 st4">Call Now!</text>
<rect x="233.2" y="82.4" class="st1" width="286.8" height="46"/>
<text transform="matrix(1 0 0 1 233.2055 109.1353)" class="st2 st5 st6">Book Today </text>
<rect x="190.7" y="118.4" class="st1" width="302.1" height="46"/>
<text transform="matrix(1 0 0 1 190.7101 136.1745)" class="st2 st7 st8">Decide travel dates later </text>
<rect x="189.9" y="148.7" class="st1" width="296.9" height="52.6"/>
<text transform="matrix(1 0 0 1 189.9288 175.3607)" class="st9 st3 st6">+1 866 883 0573</text>
</svg>
