<?xml version="1.0" encoding="utf-8"?>
<!-- Generator: Adobe Illustrator 24.2.0, SVG Export Plug-In . SVG Version: 6.00 Build 0)  -->
<svg version="1.1" id="Capa_1" xmlns="http://www.w3.org/2000/svg" xmlns:xlink="http://www.w3.org/1999/xlink" x="0px" y="0px"
	 viewBox="0 0 670.41 223.28" style="enable-background:new 0 0 670.41 223.28;" xml:space="preserve">
<style type="text/css">
	.st0{fill:#27B8CB;}
	.st1{fill:#FFFFFF;}
	.st2{fill:#006581;}
</style>
<g>
	<path class="st0" d="M570.89,170.4c-2.24,0.92-4.64,1.54-6.01,3.87c-0.52,0.89-6.59,0.91-7.92,0.13c-0.45-0.26-0.85-0.61-1.5-1.09
		c-0.16,1.34-0.06,2.52-1.37,3.12c-0.75,0.34-0.83,1.31-0.47,2.05c0.35,0.72,1.02,1.14,1.9,1.02c1.58-0.22,3.15-0.42,4.75,0.26
		c-28.31,2.81-56.73,4.43-85.01,7.42c0.05,0.63,0.1,1.26,0.16,1.88c27.92-2.14,55.85-4.1,83.88-4.75c-1.3,0.81-2.63,1.41-4.21,1.52
		c-9.99,0.67-20.02,1.05-29.96,2.18c-10.89,1.24-21.82,1.85-32.74,2.71c-5.64,0.44-11.28,0.86-16.96,0.59
		c-2.69-0.13-4.41,1.17-4.21,4.49c2.78-1.06,5.63,0.37,8.3-1.03c0.58-0.3,1.86,0,2.37,0.49c0.71,0.69-0.17,1.47-0.68,2.26
		c2.23-0.35,4.64,0.33,5.98-2.33c0.54-1.06,1.09-0.08,1.69,0.4c1.23,1,2.52,2.39,3.52-0.5c0.54-1.55,2.14-0.6,3.39-0.46
		c1.82,0.21,4.18,2.89,5.37-1.17c0.3-1.03,1.57,0.1,1.99,1.07c0.36,0.83-0.46,2.44,1.48,2.28c1.34-0.11,1.86-0.08,2-2.07
		c0.11-1.67,2.97-2.86,5.33-1.68c2.84,1.43,5.38,0.58,7.86-0.94c0.89-0.55,1.38-0.36,1.62,0.69c0.69,3.11,3.53,4.43,6.68,3.26
		c0.63-0.24,1.1-1.19,2.06-0.61c-1.48,1.89-3.22,2.67-5.63,1.98c-1.21-0.34-2.83,0.33-2.4,1.61c1.22,3.6-1.78,3.46-3.31,3.46
		c-1.49,0-2.02,0.12-2.64,1.46c-0.69,1.49-2.28,1.48-3.8,1.44c-2.61-0.07-5.17-0.01-7.75,0.83c-3.28,1.08-6.74,0.26-10.08,0.06
		c-2.63-0.16-5.69,2.6-8.01-0.95c-0.28-0.42-0.14,1.25-1.03,1.25c-0.04-0.19-0.15-0.4-0.1-0.56c0.36-1.03,0.43-2.21-0.77-2.43
		c-1.11-0.2-0.52,1.73-1.62,1.96c1.15,2.66-0.86,1.66-2,1.78c-0.96,0.1-1.93,0.27-2.87,0.54c-1,0.29-1.03-0.64-1.37-1.05
		c-0.44-0.54,0.09-1.27,0.51-1.28c2.02-0.05,2.17-0.81,1.05-2.25c-1.16-1.49-2.12-0.85-3.07,0.25c-0.2,0.24-0.5,0.39-0.55,0.43
		c-1.18-5-6-1.33-8.36-3.36c0.97-1.42,2.22,0.04,3.33-0.36c-2.07-2.01-4.75-1.79-6.36,0.8c-1.04,1.68-2.11,2.66-4.11,2.47
		c-0.31-0.03-0.64,0.1-0.97,0.16c0.84,2.75-0.85,2.92-2.94,3.57c-1.34,0.42-1.17,1.18-1.91-0.45c-0.25-0.55-0.58-1.16-1.04-1.12
		c-0.79,0.06-0.51,0.68-0.32,1.22c0.22,0.61,0.05,0.68-0.53,0.34c-3.31-1.98-7.04-2.03-10.72-2.66c-3.87-0.65-7.5,1.06-11.49,0.02
		c-1.99-0.52-5.37,0.14-7.87,1.63c-1.35,0.8-1.57-0.3-1.76-1.54c-0.26-1.66-1.77-2.36-2.83-1.09c-1.95,2.33-4.75,2.78-7.2,3.22
		c-3.12,0.56-6.35-0.43-9.74,0.32c-1.6,0.36-4.27-1.05-6.51-0.66c-4.24,0.73-8.57,0.32-12.77,0.41c-6.4,0.14-12.74,2.11-19.23,0.74
		c-2.21-0.47-4.78,0.91-6.92-1.49c-0.03,4.8-4.89,0.13-5.75,3.34c0.31,0.57,0.89,0.39,1.4,0.45c0.7,0.09,1.88-0.52,2.01,0.4
		c0.23,1.61-1.36,0.24-1.62,0.66c-1.09,1.74-2.06,3.48-4.9,2.39c1.45-1.37,1.31-2.97,0.68-4.5c-0.28-0.68-3.64-0.33-5.67,0.54
		c0.98,1.34,2.76,2.23,2.6,4.18c-2.09,1.46-1.65-3.56-4.61-0.81c1.42-2.63,2.24-4.44-1.45-3.91c-0.95,0.14-2.2-1.59-3.24-2.54
		c-0.47-0.43-0.2-1.11,0.08-1.51c0.45-0.64,1.07-0.46,1.69-0.05c2.24,1.48,2.79,0.16,2.47-1.73c-0.14-0.84-0.26-1.39,0.42-1.93
		c-1.54-0.94,2.36-2.74-0.31-3.05c-1.31-0.15-4.2-2.07-4.47,1.97c-0.1,1.5-3.1,1.73-3.61,0.45c-1.71-4.26-5.37-2.57-7.96-2.61
		c-2.83-0.05-5.84,1.17-8.57,2.63c0.58,0.63,1.14,0.68,1.64,0.41c1.01-0.56,2.04-1.06,2.98-0.08c1.13,1.18-0.2,1.89-0.63,2.81
		c-0.42,0.91-2.25,2.71,1.11,1.84c0.82-0.21,2.18,2.24,3.82,0.39c0.29-0.33,0.72-0.53,0.54-1.02c-0.25-0.67-0.8-0.01-1.01-0.13
		c-0.92-0.52-2.04-0.79-0.72-2.38c1.07-1.28,2.42-1.28,3.63-1.63c0.4-0.11,0.84,1.51,1.19,2.41c0.71,1.82,1.46,3.93,4.34,3.11
		c-0.58,1.63-0.69,3.72-3.38,1.96c-0.56-0.37-1.66-0.02-2.49,0.14c-1.94,0.38-3.9,1.49-5.65-0.54c-0.76-0.88-1.1,0.51-1.35,0.48
		c-1.01-0.15-0.63,2.06-1.67,1.08c-2.74-2.59-6.22-0.63-9.35-1.53c-2.16-0.62-5.11-1.26-7.79-0.77c-1.44,0.26-2.38,1.23-3.56,2.45
		c-0.38-1.78-1.74-3.4,0.49-4.35c1.36-0.58,2.93,1.05,4.38-0.02c-1.73-1.67-6.76-2.54-8.68-1.41c-1.48,0.87-1.12,2.69-1.89,3.94
		c-0.31,0.5-0.2,1.83-0.75,1.55c-3.18-1.6-7.08,1.39-9.22-0.38c-2.08-1.72-2.13-0.02-3.25,0.15c-1.32,0.2-3.05,1.65-4.44-0.17
		c-0.52-0.69-1.44,0.21-1.63,0.11c-1.7-0.92-3.83,2.72-5.29-0.54c-0.21-0.46-1.37-0.36-1.68,0.3c-0.8,1.73-2.33,1.08-3.42,0.92
		c-1.33-0.19-2.49-0.77-3.47,0.66c-0.19,0.28-0.88,0.55-1.13,0.42c-2.98-1.59-6.37-0.68-9.45-1.59c-2.68-0.8-5.5-0.7-8.17-0.5
		c-1.5,0.11-3.03,1.11-4.77,1.26c-1.22,0.1-0.22,1.77-0.84,2.54c-0.5,0.62-0.66,2.26-1.91,0.58c-2.41-3.22-6.79-3.77-10.26-1.23
		c-1.31,0.96-2.67,1.52-4.38,1.6c0.15-0.4,0.16-0.66,0.28-0.74c0.88-0.56,2.34,0.31,2.85-1.08c0.35-0.95-0.31-1.83-0.9-2.34
		c-1.09-0.95-2.25-0.18-3.32,0.34c-1.3,0.64-3.1,0.76-3.07,2.8c0.01,0.57,0.16,1.18-0.56,1.26c-0.58,0.07-0.96-0.43-1.17-0.96
		c-1.21-3.12-2.76-5.4-6.58-3.07c-0.56,0.34-0.97-0.35-0.55-0.96c0.83-1.19-0.7-1.53-0.91-2.4c-0.26-1.09-1.54-1.77-2.94-1.46
		c-0.61,0.14-1.11,0.43-0.96,1.07c0.27,1.12-0.38,2.77,1.67,2.96c1.1,0.1,1.5,0.51,0.23,1.16c-0.19,0.1-0.57,0.15-0.57,0.24
		c-0.06,1.31,1.09,3.45-1.53,3.16c-2.03-0.22-0.88-2.35-1.27-3.57c-0.66-2.1-1.03-2.25-2.72-0.96c-0.37,0.28-1.09,0.33-1.56,0.2
		c-3.18-0.91-5.23,0.4-6.69,3.14c-0.34,0.64-1.09,1.05-1.54,0.27c-0.59-1.03-1.47-1.05-2.4-1.18c-0.6-0.08-1.4,0.1-1.42-0.91
		c-0.02-0.92,1.11-0.56,1.39-1.36c-1.01-0.81-3.07-0.39-3.16-2.46c-0.03-0.75-0.37-0.45-0.99-0.2c-1.94,0.79-3.45,1.9-4.11,4
		c-0.41-0.26-0.75-0.38-0.93-0.62c-1.16-1.58-1.79-6.29-3.99-0.4c-0.51,1.37-3.59,1.86-4.57,0.44c-1.55-2.25-1.97-0.44-2.84,0.23
		c-0.82,0.64-1.64,1.25-0.79,2.47c1,1.44,1.88,1.09,2.88,0.01c0.51-0.55,1.18-0.51,1.75,0c0.33,0.29,0.7,0.74,0.13,1.03
		c-0.92,0.46-1.8,2.34-2.61,1.36c-1.58-1.93-2.43,0.4-3.47,0.17c0.59-2.75-0.29-5.36-1.95-7.25c-1.31-1.48-1.38,1.19-1.32,1.27
		c0.82,1.15-0.5,1.2-0.8,1.73c-0.9-1.47-2.16,0.77-2.9-0.21c-0.48-0.64-0.36-1.62,0.08-2.49c0.59-1.16,3.78-2.88,5.28-3.13
		c3.93-0.67,8.05-0.83,11.84-0.6c3.76,0.23,6.8-0.32,10-1.87c0.84-0.41,1.65,0.78,2.76,0.95c2.89,0.45,5.7-2.61,8.67,0.24
		c1.38,1.33,4.25,0.84,6.13-0.25c2.46-1.42,4.79-1.93,7.4-0.68c1.37,0.65,2.72,1.42,3.77-0.55c0.54-1.01,1.84-0.78,2.35-0.41
		c1.71,1.2,3.47,0.6,4.81-0.07c2.91-1.46,6.38,0.84,9.01-1.61c0.06-0.06,0.29-0.06,0.31-0.02c1.6,3.24,5,0.42,7.25,2.17
		c1.11,0.87,2.96,1.38,4.86-0.26c1.04-0.9,3.92-1.34,5.57-0.05c2.23,1.74,4.2,0.14,5.93-0.38c2.19-0.65-1.03-1.78-0.51-2.98
		c2.09,0.22,2.15,1.94,2.7,3.51c2.21-2.47,5.66-1.14,8.01-3c0.36,0.98,0.12,2.87,1.09,2.8c2.56-0.18,5.13,1.97,7.68,0.05
		c-0.48-0.7-1.67-0.04-1.89-1.42c4.59-0.12,9.18,0.32,13.71-0.37c0.18-0.03,0.59,0.32,0.61,0.53c0.28,2.96,2.82,1.71,4.33,2.19
		c0.87,0.27,2.66,0.02,0.88-1.72c-0.33-0.32-0.57-1.23,0.05-1.74c0.2-0.17,0.63-0.08,0.95-0.1c-1.14,1.75,1.04,1.71,1.41,2.64
		c0.46,1.16,1.16,1.31,1.2,0.59c0.13-2.1,2.19-1.27,3.27-2.28c-1.11-0.57-1.96-1-3.62-1.85c1.49-0.01,2.12-0.21,2.51,0.02
		c1.04,0.59,1.91,0.3,2.01-0.69c0.07-0.73-1.03-0.74-1.75-0.91c-1.36-0.32-2.57,0.05-3.89,0.21c-4.52,0.54-9.17,1.64-13.59-0.69
		c-0.33-0.18-0.63-0.35-1.11,0.05c-2.4,1.98-5.02,2.48-7.83,0.85c-0.62-0.36-1.73-1.22-1.86-0.27c-0.42,2.85-2.51,1.25-3.79,1.74
		c0.6-1.42-0.26-2.83-0.07-4.21c0.12-0.87-0.26-0.94-0.83-0.93c-0.42,0.01-1,0.03-1.24,0.29c-2.08,2.24-4.8,3.76-6.97,3.37
		c-4.38-0.78-8.89-1.02-13.23-1.09c-3.46-0.05-7.05-0.04-10.6,0.15c0.08-0.17,0.11-0.4,0.23-0.47c0.25-0.14,4-3.75,4.62-4.42
		c0.5-0.53,1.3-0.57,1.84-0.31c0.84,0.41,1.68,0.39,2.54,0.41c0.92,0.02,2.32,1.24,2.63,2.18c0.65,1.98,2.89,1.92,3.86,1.6
		c1.41-0.48,4.07-0.58,3.49-3.53c-0.16-0.83,0.42-1.91,1.57-1.45c3.48,1.39,6.87-2.6,10.46-0.08c0.45,0.32,2.32-0.81,2.92-2.48
		c-4.79,0.05-9.32-0.98-13.95,0.47c-2.95,0.93-6.38-1.04-9.26,1.17c-2.24-2.61-5.18-1.05-7.75-1.12c-4.81-0.12-9.73-0.54-15.32,1.68
		c4.45,0.73,5.57,4.69,9.07,6.32c-4.35,0.88-6.8-2.73-10.54-3.49c0.26,1.15,0.45,2.31-0.1,3.47c-0.23,0.49-0.24,1.22-0.88,1.02
		c-3.47-1.1-6.71,0.05-10.01,0.81c-0.18,0.04-0.4-0.14-1.25-0.47c2.47-1.99,5.1-1.3,7.45-1.59c0.73-0.09,1.7,1.08,2.15-0.37
		c0.18-0.58,0.4-1.44,0.12-1.82c-0.55-0.75-1.45-0.41-2.33-0.31c-2.62,0.3-5.25,0.75-7.91-0.2c-0.67-0.24-2.68,0.35-1.67,1.58
		c1.51,1.83-0.5,2.5-0.88,2.6c-2.52,0.62-5.02,1.51-7.69,1.31c-0.43-0.03-1.13,0.05-1.25-0.17c-2.54-4.76-7.31-2.91-11.05-3.43
		c-5.76-0.8-11.67-0.35-17.46-1c-3.59-0.4-6.94-0.22-10.4,0.64c-1.93,0.48-4.01,0.32-6.02,0.5c-1.79,0.16-3.77-0.03-4.46,2.33
		c-0.08,0.28-0.77,0.67-1,0.57c-4.1-1.75-8.64-0.37-12.75-1.83c-0.95-0.34-1.85-0.75-2.55-1.8c-1.2-1.81-3.06-2.81-5.35-1.79
		c-0.53,0.24-1.27,0.57-1.5,0.21c-1.93-3.09-5.65-0.98-8.06-2.86c-0.74-0.58-2.24-0.25-3.39-0.25c-0.41,0-1.07,0.52-1.2,0.39
		c-3.14-3.15-7.66-0.77-11.08-2.81c-1.15-0.68-2.43,0.94-3.99-0.24c1.91-0.3,3.58-0.58,3.29-3.05c-0.09-0.78,1.04-1.55,2.23-0.6
		c2.3,1.84,5.14,0.27,7.67,1.06c0.85,0.26,2.07-0.25,1.61-1.7c-0.27-0.84,0.19-2.39-1.79-1.83c-0.62,0.18-1.5-0.56-2.44-0.96
		c1.62-1.49,3.05,0.12,4.45-0.18c0.62-0.13,1.62,0.65,1.51-0.78c-0.04-0.58,0.14-1.57-0.88-1.34c-1.6,0.35-2.7-1.97-4.11-0.86
		c-0.61,0.48-0.8,0.65-1.47,0.39c-2.83-1.13-5.8-0.5-8.7-0.7c-3.29-0.22-2.92,2.01-2.46,3.44c0.61,1.88-0.71,2.51-1.51,3.05
		c-0.98,0.65-1.35-0.81-1.65-1.48c-0.54-1.21-0.13-2.13,1.38-2.13c1.38,0,0.88-0.99,0.85-1.64c-0.05-1.11-0.76-1.1-1.63-0.86
		c-2.32,0.64-4.37,0.18-6.08-1.59c-0.26-0.27-0.54-0.6-1.11-0.36c-1.56,0.63-2.69,1.98-4.65,2.04c-1.95,0.06-3.81-0.91-5.69-0.24
		c-0.72-0.92,0.92-2.14-0.21-2.59c-1.03-0.4-2.83-0.56-3.36,0.48c-1.28,2.52-3.82,1.61-5.66,2.44c-2.31,1.04-4.93,1.43-7.46,1.91
		c-2.01,0.38-3.9-0.22-5.81-0.97c-1.56-0.62-3.17,0.28-4.64,0.96c-1.97,0.92-3.88,2.12-6.12,0.74c-0.3-0.19-0.86,0.64-0.7,0.2
		c0.95-2.5,0.38-6.18,4.63-6.4c0.69-0.04,1.65-0.43,2.27-1.88c-4.22,1.68-7.97-0.48-12.07-0.05c-2.49,0.27-6.07-0.08-8.89-1.56
		c-0.57-0.3-1.39-0.23-1.21-1.13c0.12-0.61,0.38-1.41,0.84-1.69c0.54-0.33,1.47-0.73,1.97,0.29c0.63,1.28,1.23,0.94,2.27,0.28
		c1.66-1.06,3.54-0.5,5.37-0.19c0.94,0.16,1.96-0.09,2.93-0.24c0.23-0.04,0.54-0.37,0.6-0.62c0.14-0.55-0.3-0.86-0.74-0.79
		c-1.38,0.21-2.48-0.62-3.7-0.87c-1.28-0.26-3.14-0.36-3.13-1.5c0.01-1.09,0.67-2.85,2.42-3.29c0.3-0.08,0.49-0.62,0.74-0.96
		c-2.59-1.3-5.06,1.15-7.71-0.18c-0.99-0.49-0.36,2.24-1.87,2.62c0.75,1.21,2.85-0.14,3.12,1.9c-1.1-0.16-1.96-1.1-3.1-0.9
		c-1.46,0.26-2.5,0.25-1.41-1.7c0.21-0.38,0.17-1.5-0.94-1.02c-1.14,0.49-1.41,0.06-1.79-1.01c-1.1-3.13-1.18-3.1-3.34-1.15
		c1.23-2.94,1.25-2.77,4.24-3.2c2.13-0.31,4.26,0.77,6.51-0.23c-0.69,1.04-2,2.05-1,3.16c0.8,0.88,2.11,1.51,3.49,0.76
		c0.92-0.5,1.9-0.31,2.87-0.36c0.9-0.04,2.92,0.56,1.44-1.67c-0.45-0.68,0.04-1.05,0.56-1.15c0.72-0.15,1.32-0.03,0.93,1.02
		c-0.24,0.64,0.3,1.11,0.83,1.12c0.53,0.01,1.03-0.46,0.85-1.09c-0.61-2.22,0.52-2,2.11-1.77c0.9,0.13,2.49,0.92,2.68-1.22
		c0.09-1,0.36-1.5-1.07-1.54c-5.53-0.16-11,0.27-16.47,1.02c-0.95,0.13-3.22,1.29-1.91-1.65c0.38-0.86-0.76-2.16-1.3-1.79
		c-1.74,1.19-4.05-0.35-5.5,1.5c-0.72-0.93,0.27-1.63,0.17-2.48c-0.18-1.46-0.63-2.66,2.18-1.7c2.12,0.73,5.35-0.8,7.63-1.78
		c2.51-1.07,4.97-0.69,7.37-1.36c1.15-0.32,2.47-0.06,3.48-1.03c0.84-0.81,1.38-0.29,2.14,0.3c1.88,1.48,3.66-0.07,5.47-0.43
		c-0.3-1.05,1.68-1.25,1.08-1.84c-1.3-1.27-3.71-2-0.71-4c0.19-0.12-0.35-0.76-0.83-0.71c-0.91,0.09-2.09-0.42-2.49,0.92
		c-0.23,0.76,0.37,1.94-1.4,1.91c0.4-1.96-0.11-3.57-2.43-2.06c-1.07,0.7-0.77-0.32-0.9-0.43c-0.43-0.38-0.18-0.81,0.35-0.88
		c2.44-0.32,2.7-1.41,1.79-3.62c-1.01-2.47,1.18-1.75,3.27-2.26c-2.64,2.21-1.22,2.99,0.24,3.75c0.31-2,3.54-5,5.65-5.01
		c1.26-0.01,2.46-0.46,2.51-1.47c0.07-1.58-1.4-0.69-2.22-0.77c-3.1-0.32-6.17-0.32-9.16,0.72c-0.2,0.07-0.48,0.26-0.6,0.19
		c-2.2-1.3-4.17-0.64-6.38,0.21c-0.98,0.38-1.29-1.6-1.79-2.79c1.06,1,1.95,1.35,3.1,0.37c1.55-1.32-0.28-1.88-0.62-2.75
		c1-0.62,2.09-0.82,2.74-0.02c0.78,0.96,1.2,1.23,1.76-0.04c0.3-0.67,2.29-0.99,0.54-2.1c-0.94-0.6-0.41-1.26-0.44-1.98
		c-0.03-0.9-0.79-1.53-1.47-0.61c-1.42,1.91-3.02,1.65-5,1.12c-1.01-0.27-2.28-0.58-3.46,0.06c-0.5,0.27-1.42,0.29-1.51-0.66
		c-0.08-0.89,0.52-1.61,1.37-1.46c4.1,0.74,8.12,0.06,11.54-1.94c2.04-1.19,4.54,0.51,6.14-1.66c-0.84-1.2-2.1-0.13-3.17-0.76
		c-0.15-1.12,1.9-0.66,1.46-2.08c-0.07-0.03-0.41-0.3-0.58-0.22c-1.27,0.59-2.91,0.48-3.8,1.81c-0.65,0.98-1.44,0-1.57-0.16
		c-1.1-1.4-1.97-0.98-2.93,0.12c-0.08,0.09-0.66,0.73-0.97,0.11c-0.05-0.1,0.79-0.5,0.84-0.81c0.17-1.27-3.05,0.41-1.69-1.69
		c0.74-1.14,1.68,1.01,2.86,0.68c0.85-0.24,1.16-0.8,0.87-1.43c-0.53-1.13-0.74-1.66,0.84-2.2c1.45-0.49,2.18-0.05,3,0.88
		c0.88,1,0.91,1.01,1.56-0.24c0.71-1.37,1.76-0.74,2.87-0.66c0.09,1.31-2.29,1.01-1.55,2.19c0.95,1.55,2.53,0,3.88,0.21
		c1.9,0.3,0.14-1.2,0.33-1.74c0.82-2.27,3.22-1.86,4.78-1.93c4.64-0.22,9.1-2.17,13.83-1.36c0.41,0.07,1.2-0.38,1.34-0.77
		c0.33-0.91-0.79-0.4-0.96-0.72c-0.92-1.69,1.63-0.44,1.41-1.83c-2.73,0.27-5.3-0.44-8.2,0.04c-3.03,0.51-6.42,0.41-9.62,0.2
		c-2.57-0.17-4.53-2.5-4.82-4.6c-0.22-1.58,2.28-3.16,4.14-3.87c0.53-0.2,2.12-0.33,2.29-0.15c3.7,3.97,4.89-0.99,7.16-1.96
		c0.39-0.17,0.69-0.65,1.07-0.71c3.11-0.49,6.23-0.91,9.42-1.37c-0.86-1.44-1.93-2.96-2.71-4.61c-1.24-2.64-0.55-5.09,2.24-5.78
		c2.75-0.68,5.31-2.92,8.52-1.53c0.81,0.35,1.85-0.18,2.8-0.55c1.04-0.41,2.52-1.16,3.45-0.38c2.92,2.44,1.96-0.43,2.5-1.45
		c-2.69-0.97-5.58,1.26-7.87-1.11c-1.08,1.48-2.73,0.94-4.11,0.98c-1.93,0.06-3.26-1.39-4.54-2.64c-0.19-0.19,0.01-0.9,0.62-0.83
		c0.3,0.03,0.74,0.46,0.85,0.38c1.29-1,4.26,0.24,4.12-1.87c-0.11-1.72-2.63-0.85-4.12-0.9c-0.65-0.03-1.32,0.05-1.97,0.12
		c-0.93,0.1-1.75-0.02-2.24-0.95c-0.39-0.74-0.03-1.29,0.5-1.7c0.92-0.71,1.7-0.12,2.28,0.51c1.92,2.1,3.87-0.79,5.77,0.09
		c0.41-1.91,2.17-3.09,2.83-4.66c1.28-3.05,3.49-2.21,5.3-1.66c2.12,0.65,4.34,0.94,6.46,1.97c1.36,0.66,3.91-0.66,5.7-1.55
		c0.72-0.36,0.09-1.42-0.92-1.89c-1.04-0.49-1.89,0.17-2.79,0.22c-3.4,0.21-6.07-2.12-9.41-2.22c-2.51-0.07-4.75-0.31-6.82,2.19
		c0.18-5.74-4.97-8.25-7.11-12.56c0.37-0.19,0.63-0.41,0.7-0.36c2.4,1.67,2.44,1.86,5.6,1.18c2.47-0.54,4.45,1.55,6.87,0.84
		c0.93-0.27,2.8,1.2,2.26-1.52c-0.12-0.59,1.4-0.66,1.99-0.43c1.51,0.58,2.96-0.03,4.51-0.03c-1.27-2.01-3.5-1.16-5.23-1.59
		c-3.89-0.98-7.97-0.62-11.95-1.65c-2.06-0.53-1.81-4.18-4.59-2.72c0.09-0.26,0.2-0.75,0.27-0.74c1.76,0.1-0.93-2.33,1.48-2.28
		c7.23,0.15,14.45-1.92,21.71-0.15c0.81,0.2,0.92-0.02,1.67-1.86c1.39,0.11,0.19,2.52,1.72,2.18c2.38-0.52,3.27-2.61,4.08-4.45
		c-2.37-3.1-5.44-1.09-8.22-1.28c-0.27-0.02-0.66,0.17-0.82,0.39c-1.51,2.07-4.06,3.03-6.88,2.46c-2.02-0.4-4-1-6.08-0.71
		c-0.58-1.35,2.35-0.56,1.23-2.53c-1.55-2.72-3.31,0.34-5.03-0.72c1.43-1.16,3.16-1.47,4.61-1.23c2.04,0.34,3.16-0.57,4.11-1.97
		c2.31-3.43,5.6-5.85,8.62-8.54c0.45-0.4,1.4-0.42,1.12-1.27c-1.06-3.13,1.31-0.86,1.78-1.53c0.93,1.43-1.94,1.35-0.66,2.8
		c1.04,1.18,1.88,0.47,2.84-0.01c2.01-1.01,2.5,0.75,3.32,1.88c-0.17,0.19-0.34,0.38-0.5,0.57c-2.31,1.87-5,2.61-7.89,2.27
		c-0.85-0.1-1.69-0.02-2.5-0.14c-1.95-0.3-1.56,1.34-1.63,2.15c-0.11,1.35,1.08,1.21,2.09,1.28c3.23,0.22,6.66,0.53,9.65,0
		c2.74-0.49,5.04,1.58,7.68,0.23c1.41-0.72,2.8,0.05,3.19,2.24c0.25-3.02,2.25-2.08,3.7-2.1c4.05-0.05,8.18-0.51,12.11,0.16
		c3.22,0.55,6.22-2.45,9.57-0.03c0.59,0.43,2.95-2.39,5.18-2.14l-0.02-0.01c1.05,1.98,2.92,1.37,4.57,1.44
		c2.76,0.11,5.6,0.82,8.11-1.07c0.8-0.61,0.97-0.06,1.35,0.61c0.49,0.88,1.26,1.63,1.98,2.36c0.44,0.44,1.07,1.16,1.65,0.66
		c0.49-0.42,0.6-1.3,0.86-1.99c0.29-0.78,0.04-1.22-0.83-1.37c-0.52-0.08-1.56,0.31-1.24-0.84c0.24-0.88,0.93-0.46,1.6-0.36
		c4.03,0.57,8.06,0.28,12.11,0.19c3.64-0.08,7.26-0.64,10.93-0.6c2.37,0.02,5.5,0.69,7.95-1.48c1.15-1.01,3.22-2.97,4.72,0.04
		c0.5,1,1.05,0.38,1.57,0.12c1.12-0.56,0.53-1.43,0.44-2.27c-0.1-0.95-0.4-1.18-1.39-1.26c-3.15-0.25-6.3,0.29-8.87,1.76
		c-2.04,1.16-4.19-0.75-5.85,0.99c-0.05,0.05-0.38-0.25-0.58-0.24c-1.61,0.09-2.65-0.93-2.56-2.56c0.01-0.11,0.06-0.21,0.06-0.31
		c0-1.24-2.72-0.01-1.84-1.95c0.64-1.43,1.92-0.21,2.83-0.48c1.09-0.33,2.09-0.63,3.27-0.78c5-0.65,10.02-0.13,15.02-0.86
		c6.42-0.94,12.94-0.89,19.43-0.68c0.83,0.03,1.43,0.48,1.92,1.11l0.01-0.02c-0.62,0.04-1.24,0.52-1.19,0.95
		c0.34,3.03-1.92,3.17-3.78,3.13c-4.36-0.08-8.7,1.28-13.1,0.03c-0.57-0.16-2.11,0.6-2.1,2.07c0.01,1.37,1.06,1.39,1.83,1.23
		c3.04-0.65,6.41,0.85,9.2-1.42c0.31-0.25,0.9-0.57,1.11-0.44c4.32,2.59,8.5-0.19,12.74-0.34c2.31-0.09,4.71,0.62,6.99-0.5
		c0.41-0.2,1.14-0.08,1.57,0.15c2.29,1.26,2.25,0.47,4.86,0.41c2.31-0.06,5.49-2.68,7.45,1.19c0.56,1.11,1.82,0.44,2.38-0.48
		c1.05-1.72,2.84-1.81,3.92-0.86c2.8,2.47,5.46,0.91,7.93-0.07c1.69-0.67,3.33-1.36,5.64-1.59c-1.85-1.5-2.47-3.66-4.88-3.97
		c-0.59-0.08-1.85-0.26-1.17-1.71c0.44-0.94,0.39-2.76,1.73-2.21c4.2,1.75,8.04-1.27,12.24-0.5c2.52,0.46,5.31-0.65,6.58,3.61
		c0.77-2.2,0.99-4.56,3.32-2.41c0.58,0.53,1.18-0.18,1.67-0.6c1.22-1.04,3.25-1.27,3.98-0.59c2.1,1.94,3.62,0.79,5.35-0.22
		c1.11-0.65,2.3-0.45,3.51-0.43c4.92,0.1,9.83,0.18,14.75,0.15c3.02-0.01,4.01,2.03,4.93,4.06c-4.47,1.32-8.99,0.02-13.05-0.55
		c-3.85-0.54-6.73,2.35-10.22,0.76c1.58,1.05,3.03,2.02,4.89,1.93c1.12-0.05,2.2,0.18,2.71,1.36c0.4,0.92,0.89,1.34,1.6,0.34
		c1.86-2.61,4.22-1.89,6.33-0.71c1.67,0.93,3.54,1.26,5.19,1.44c2.49,0.26,5.21-0.37,4.31-4.25c5,1.26,9.71,2.49,14.44,3.6
		c0.98,0.23,1.18-1.53,2.64-1.11c2.72,0.8,7.49,0.44,10.66-0.18c1.08-0.21,2.51-1.14,3.24,0.81c0.09,0.25,1.33,1.72,2.15-0.09
		c0.71-1.57,0.91,0.5,1.48,0.4c1.1-0.19,3.03,2.66,3.26-1.04c0.08-1.28,1.62-0.5,1.95,0.09c0.78,1.37,1.94,2.04,3.18,1.37
		c1.15-0.62,0.45-1.82,0-2.86c-0.61-1.41,0.36-2.32,1.51-2.83c1.27-0.57,1.58,0.43,2.06,1.37c0.29,0.58,0.6,2.13,1.75,1.18
		c1.01-0.83-0.13-1.65-0.57-2.52c2.77,1.71,6.72,1.19,8.53,4.98c-2.2,1.23-3.91-0.46-5.75-1.11c-0.56-0.2-1.43-0.98-1.23,0.23
		c0.16,0.96-1.78,1-0.59,2c1.69,1.42,10.2,2.09,12.04,0.86c0.48-0.32,1.06-0.79,0.96-1.85c-1.65,0.69-2.89-0.16-4.53-1.07
		c1.45-0.89,4.23,0.39,3.49-2.61c-0.11-0.45,0.47-0.67,0.93-0.69c3.89-0.17,7.72,0.28,11.48,1.26c0.48,0.13,0.88,0.51,0.9,1.2
		c0.04,1.1,0.65,1.61,1.22,1.08c2.51-2.36,5.76-2.65,8.84-2.95c2.87-0.28,5.78,1.24,8.77,0.13c0.25-0.09,0.94,0.99,1.39,1.49
		c-0.85,1.33-2.44-0.57-3.18,0.9c-0.39,0.79,1.12,3.28,2.01,3.28c6.19,0.01,12.3-1.66,18.53-0.91c0.97,0.12,1.22-0.78,1.7-1.31
		c2.04-2.24,3.99-2.09,4.84,0.65c0.34,1.11,0.58,0.94,1.46,0.91c2.2-0.06,1.78-1.73,2.13-3.69c0.77,2.2,3,2.26,3.65,2.17
		c2.59-0.34,4.48,0.79,6.54,1.82c1.78,0.89,3.44,0.76,4.99-0.66c1.06-0.97,2.27-1.27,3.85-0.99c2.71,0.47,5.49,0.46,8.67-1.71
		c-0.86,2.05-1.55,3.79,1,3.11c1.96-0.52,2.5,1.34,3.83,2.2c0.87-1.59,0.24-2.87-0.66-4.15c3.96,0.09,6.74,3.13,10.46,2.92
		c1.29-0.07,2.61,0.2,3.82-0.56c1.26-0.78,2.36-0.4,3.64,0.28c1.05,0.55,2.72,2.61,3.58-0.49c0.28-1,1.17-0.25,1.52,0.17
		c0.68,0.83,1.31,1.74,1.77,2.71c1.47,3.05,3.94,2.88,6.74,2.5c3.49-0.47,6.68-1.51,9.6-3.47c-0.63-1.42-2.21-0.02-2.88-1.36
		c2.29-2.7,5.78-2.37,8.73-3.34c0.17-0.06,0.59,0.29,0.74,0.54c0.71,1.14-1.84,0.61-1.03,2.36c0.96,2.07-0.93,0.63-1.58,0.75
		c-1.2,0.23-2.74,0.03-3.02,1.72c-0.38,2.28,1.67,0.95,2.49,1.49c0.55,0.37,1.47,0.21,2.22,0.26c0.62,0.04,1.24,0.02,2.25,0.02
		c-1.66,2.25-3.74,1.63-5.4,1.48c-1.44-0.13-2.82-0.1-4.21,0.06c-1.1,0.12-2.73,0.15-1.37,2.08c0.18,0.25-0.09,0.82-0.13,1.24
		c-0.07,0.72-2.11,0.73-0.8,1.87c1.16,1,2.15-0.16,2.66-0.89c0.49-0.69,1.2-1.07,1.49-0.69c2.18,2.88,2.67,0.89,4.08-0.89
		c1.86-2.34,4.89-0.66,6.65,0.2c2.48,1.22,4.62,1.02,6.77,0.3c2.07-0.7,3.33-0.79,3.6,2.53c1.71-3.61,3.32-2.69,5.29-1.09
		c1.59,1.29,3.47,2.35,5.79,1.69c0.83-0.24,1.49-0.38,1.17-1.42c-0.15-0.47-0.69-0.93,0.21-1.23c0.82-0.27,1.44,0.26,1.56,0.79
		c0.8,3.69,3.95,1.65,4.74,1.13c3.71-2.48,7.61-4.07,12.04-4.45c0.21-0.02,0.41-0.15,0.77-0.28c-1.31-1.58-2.82-0.9-4.56-0.3
		c1.53-1.58,4.11-2.07,5.27-0.82c1.26,1.37,1.93,1.27,3.03-0.01c0.34-0.4,1.24-0.44,1.88-0.44c2,0.01,4.02,0.95,5.96-0.75
		c0.42-0.37,2.34-0.13,3.22,1.3c0.84,1.36,5.59,1.56,6.75,0.59c0.91-0.76,0.91-0.76,0.58-3.13c1.6,3.06,3.33,4.18,6.13,2.26
		c0.54-0.37,2.53-0.66,2.59,1.35c0.05,1.84,0.93,1.66,2,0.76c2.78-2.35,5.46-2.5,8.34-0.56c1.41,0.95,2.98,0.29,4.46,0.1
		c0.59-0.08,1.09-0.76,1.72-0.03c0.41,0.48,0.23,0.9-0.19,1.02c-0.7,0.2-0.47,1.82-1.61,1.11c-1.74-1.08-2.46-0.61-3.05,1.32
		c-0.62,2.02,0.97,2.11,1.92,2.74c0.65,0.43,1.28,0.82,1.69,1.74c-6.05,2.34-13.61-0.97-18.8,4.99c1.55,0.47,3.18,0.6,4.18-0.23
		c1.01-0.84,2.65-0.72,2.83-0.59c4.08,2.7,8.87-0.96,12.95,1.52c1.04,0.63,1.66-0.74,2.42-1.35c2,9.05,4.92-0.61,7.32,0.49
		c0.54,1.15-1.83,2.54,0.3,3.52c0.06,0.03,0.11,0.26,0.08,0.29c-1.76,1.53-2.79,3.19-2.38,5.8c0.11,0.68-1.6,1.55,0.23,2.54
		c0.64,0.35,0.76,1.63,1.12,2.49c-0.99,0.15-1.71,0.9-2.9,0.82c-4.27-0.29-8.51-0.73-12.86-0.35c-1.74,0.15-3.1,0.5-4.68,0.93
		c4.39,4.27,9.56,1.86,14.32,2.21c0.75,0.06,1.45-0.13,2.11,0.39c1.69,1.32,3.22,1.39,4.55-0.57c0.46-0.67,1.45-1.09,1.94-0.42
		c0.76,1.04-0.18,1.14-1,1.15c-0.17,0-0.45,0.17-0.49,0.31c-1.08,4.45-4.6,4.01-7.97,4.17c-0.8,0.04-1.65-0.95-2.34-0.05
		c-1.31,1.71-2.53,3.46-4.16,4.91c-0.42,0.38,0.52,1.16,0.86,0.79c1.09-1.2,2.86,0.42,3.99-1.41c1.06-1.72,1.33,1.67,2.85,0.86
		c-1.51-3.78,3.85-0.81,3.19-4.53c1.05,1.63-0.63,2.25,0.34,2.92c0.73,0.5,1.2-0.14,1.67-0.58c0.52-0.49,1.27-0.89,1.75-0.39
		c2.07,2.17,5.13,1.66,7.14,1.32c2.4-0.41,2.41,1.88,4.24,2.12c1.88,0.24,3.79,0.24,5.68,0.44c3.28,0.35,6.58-1.19,9.85,0.13
		c0.21,0.08,0.65-0.02,0.78-0.2c2.09-2.66,5.29,0.09,7.64-1.58c0.5-0.35,0.56,0.7,0.73,1.16c0.26,0.7,0.25,1.28-0.64,1.5
		c-0.94,0.23-1.89,0.56-2.72-0.29c-0.77,1.13-2.9-3.61-2.94,0.68c-2.21-0.6-4.21,0.91-6.43,0.58c-1.89-0.27-3.74,0.4-4.07,2.44
		c-0.39,2.42,0.71,3.84,4.43,2.55c-2.3,1.91-4.09,2.25-5.88,2.51c-0.8,0.12-1.72,0.2-1.78,1.1c-0.08,1.18,1.12,0.95,1.82,1.33
		c1.41,0.77,2.81-0.07,4.17,0.25c0.58,0.14,1.36-0.71,1.69,0.13c0.32,0.8-0.35,1.27-1.01,1.78c-0.77,0.6-1.47,1.27-2.77,1.4
		c3.86,3.37,8.13,2.97,12.35,2.71c0.99-0.06,1.06,0.62,1.09,1.26c0.05,1.07,0.99,1.39,1.58,1.3c1.43-0.21,0.39-0.96,0.14-1.51
		c1.67-0.18,3.27-1.16,5.01-0.55c0.6,0.21,1.32,0.49,1.67,0.96c2.17,2.9,5.14,4.21,8.43,2.98c3.22-1.2,4.63,1.21,6.86,2.56
		c-2.53-0.6-3.88,0.26-4.82,2.67c-1.1,2.83-2.21-0.4-3.38-0.42c-0.38,0.95,1.12,3.18-2.06,1.85c-2.69-1.12-6.09-0.6-9.18-0.64
		c-0.95-0.01-2.45-0.49-2.74,1.03c-0.32,1.61,1.23,1.83,2.25,2.35c0.46,0.23,1.01,0.27,1.69,0.44c-0.98,1.6-3.48-0.13-4.04,2.29
		c2.59,0.15,5.14,0.12,7.62,0.53c1.29,0.22,3.8-0.38,3,2.66c-0.49,1.83-0.26,1.58-2.12,1.17c-1.49-0.33-2.86-0.83-4.86-0.32
		c-4.86,1.26-7.97,5.35-12.61,6.5c0.37-2.91,0.37-2.86,3.21-3c1-0.05,2.25,0.32,2.41-1.54c0.14-1.69-0.91-2.09-1.97-2.09
		c-3.12-0.01-6.25,0.23-9.37,0.39c-0.44,0.02-1.14,0.33-0.96,0.63c1.52,2.49-1.17,4.21-1.06,6.38c0.03,0.6-1,1.53,0.32,1.87
		c0.9,0.23,1.62-0.35,1.81-1.07c0.36-1.39,1.52-1.72,2.97-2.64c-1.49,3.65,0.71,3.43,2.82,3.31c1.71-0.1,3.47-0.49,5.12-0.22
		c2.5,0.41,6.04-0.08,5.09,4.48c2.17-0.58,4.34-0.39,4.42-3.36c0.02-0.66,1.23-2.61,3.16-1.38c1.86,1.19,2.92-0.88,4.12-1.57
		c1.37-0.8-0.39-1.53-0.9-2.17c-0.8-1.01-0.03-1.79,0.44-2.28c0.63-0.64,1.41-0.08,1.93,0.55c1.52,1.8,0.92,4.35-1.45,5.45
		c-1.11,0.51-1.32,1.48-1.51,2.32c-0.25,1.1,0.89,0.47,1.36,0.72c0.25,0.13,0.67,0.46,0.64,0.52c-0.18,0.36-0.4,0.88-0.71,0.96
		c-2.93,0.75-5.55,2.54-8.64,2.66c-3.13,0.12-6.47-2.26-9.46,0.96c-0.21,0.22-3.92,1.44-5.12-1.28c-0.13-0.29-1.35-0.48-1.41-0.36
		c-2.03,3.83-4.89-0.23-7.27,0.73c-0.52,0.21-2.11,0.67-2.63-0.83c-0.11-0.31-0.9-0.68-1.01-0.17c-0.9,4.11-4.28,1.69-6.54,2.86
		c2.19,0.14,3.08,3.83,6.13,1.82c0.57-0.38,1.54-0.43,2.24-0.28c3.09,0.69,6.2,0.92,9.34,0.61c1.08-0.11,1.94,0.15,2.43,1.37
		c-1.41,0.01-2.6,1.49-4.13,0.04c-0.69-0.66-1.34,0.29-1.84,0.85c-0.38,0.43-0.77,0.96-0.43,1.46c0.43,0.65,1.18,0.46,1.79,0.22
		c1.55-0.62,2.5,1.79,4.63-0.26c-1.84,3.71-4.33,2.6-6.4,2.89c-0.67,0.09-1.78-0.2-1.69,0.98c0.07,0.89,0.98,0.62,1.59,0.65
		c2.34,0.11,4.69,0.21,6.93,0.31c-2.7,2.04-6,2.96-9.34,3.82c-0.87,0.22-1.1,1.03-0.97,1.84c0.19,1.15-0.83,1.72-1.16,2.62
		c-0.42,1.14-1.13,0.36-1.53,0.11c-0.83-0.53-0.01-0.74,0.33-1.03c0.4-0.35,0.78-0.71,1.17-1.07c-0.96-0.9,1.14-1.79,0.13-2.45
		c-0.85-0.55-1.7,0.13-2.14,0.97c-0.98,1.84-2.81,1.39-5.39,1.52c3.42,1.38,3.73,4.55,6.16,5.34c-6.05,1.33-9.35,7.44-15.7,8.31
		c1.3,1.55,3.37-0.1,3.95,2.14c-1.29,0.48-2.69,0.67-3.99,0.24c-1.41-0.47-2.48-0.05-3.72,0.5c-1.85,0.83-3.65,0.7-5.6-0.26
		c-2.5-1.23-5.14,0.19-7.73,0.28c-6.15,0.21-12.06,2.29-18.26,2.25c-1.8-0.01-3.62,0.58-5.4,1.05c-0.56,0.15-1.87-0.17-1.46,1.13
		c0.22,0.71,0.94,1.34,1.81,0.8c0.71-0.44,1.36-0.63,2.13-0.32c0.55,1.04-1.65,0.58-0.88,1.52c0.36,0.43,1.21,1.06,1.96,0.2
		c0.96-1.09,1.51-0.6,2.23,0.4c1.34,1.85-1.05,0.77-1.07,1.46C575.81,168.88,571.96,168.18,570.89,170.4L570.89,170.4z
		 M385.22,192.91c-2.55-1.49-4.91-1.93-7.78-1.37c-2.38,0.47-5.06,1.33-7.4,0.89c-7.81-1.44-15.67-0.57-23.47-0.76
		c-5.84-0.14-11.69,0.03-17.57-0.29c-6.46-0.35-12.93,1.1-19.46,0.03c-1.6-0.26-3.9-1.2-4.59-0.85c-4.26,2.19-8.53,0.15-12.74,0.5
		c-5.21,0.43-10.45,0.75-15.73,0.7c-4.6-0.05-9.21,1.7-13.9,0.55c-1.55-0.38-1.24,1.14-1.99,1.74
		C302.19,195.28,343.74,195.08,385.22,192.91z M543.27,165.89c-1.95,1,0.84,1.91,1.36,2.16c1.85,0.9,3.8-0.65,5.83-0.25
		c0.59,0.12,0.75-1.13,0.84-2.21c-1.35,0.67-2.67,1.13-3.71-0.97c2.12,1.3,3.95,0.28,5.73,0.5c1.33,0.17,0.07-2.24,0.93-1.18
		c1.09,1.34,2.6,1.3,3.77,2.14c1.46,1.05,3.24,2.27,3.12,3.89c-0.16,2.17,0.79,2.8,2.37,3.39c0.87-0.58-0.19-2.36,1.58-2.39
		c1-0.02,2.4,1.34,2.98-0.75c-1.86-1.11-4.41-0.73-5.95-2.87c2.65,1.4,5.64-1.64,8.22,0.97c0.46,0.47,1.09,0.03,1.36-0.45
		c0.52-0.9,1.12-1.55,2.27-1.52c0.52,0.01,1.16-0.1,1.15-0.83c-0.01-0.78-0.68-0.67-1.19-0.77c-3.27-0.61-6.54-1.18-9.8-1.87
		c-1.23-0.26-2.73,0.43-2.96,0.89c-1.64,3.23-3.19,0.63-4.21-0.19c-1.54-1.24-2.99-1.74-4.91-1.45c-3.24,0.49-6.28,1.71-9.82,1.07
		c-1.78-0.32-4.82,0.78-4.97,4.08C539.87,167.73,542.19,167.53,543.27,165.89z M371.62,199.43c1.23-0.81,3.76,0.22,3.64-1.15
		c-0.16-1.89-2.56-1.18-4.08-1.3c-0.22-0.02-0.44,0.03-0.65,0.04c-5.04,0.12-10.1-0.04-15.1,0.46c-4.46,0.44-8.96-0.59-13.39,0.74
		c-1.97,0.59-1.13,1.35-0.56,2.21c0.66,0.98,1.75,0.88,2.69,0.67c3.35-0.77,6.61,0.03,9.89,0.49c1.15,0.16,2.32,0.19,3.04-0.69
		c1.65-2.01,3.99-1.92,5.96-1.58C365.99,199.82,368.8,198.69,371.62,199.43z M60.75,164.1c-5.6,0.02-10.53,1.07-15.48,0.55
		c-0.43-0.04-2.01,0.08-1.94,1.28c0.08,1.36,1.35,1.31,2.25,1.15c1.84-0.32,3.12-0.23,3.23,2.15c0.01,0.28,0.67,4.41,2.73,0.81
		c0.33-0.57,0.84-0.42,1.4-0.11c2.62,1.45,5.33,0.13,8,0.19c0.39,0.01,0.89-0.05,1.01-0.62c0.16-0.75-0.47-0.83-0.88-1.14
		c-1.45-1.12-3.06-1.37-4.81-0.94c-0.76,0.19-1.74,0.32-1.72-0.71c0.02-0.79,0.8-0.56,1.52-0.39
		C57.78,166.71,59.1,165.86,60.75,164.1z M282.96,12.91c-5.14,0.35-10.16,0.71-15.18,1.01c-1.25,0.08-2.85,0.81-2.57-1.83
		c0.19-1.83-2.02-1.67-2.96-1.57c-2.28,0.25,0.4,0.92,0.07,1.57c-0.2,0.39-0.26,0.74-0.72,0.92c-1.21,0.45-1.66,1.3-1.13,2.51
		c0.57,1.3,1.57,1.17,2.87,1.23c3.83,0.16,7.58-0.69,11.44-0.48C277.58,16.43,281.69,18.22,282.96,12.91z M434.86,200.11
		c2.81,0,3.1-1.32,3.11-3.98c0.01-2.98-1.69-1.1-2.54-1.57c-2.54-1.39-1.52,1.17-2.11,1.83c-1.31,1.46-1.36-3.64-2.98-0.47
		c-0.51,1-1.97,1.39-3.23,1.16c-1.82-0.34-3.55,0.14-5.29,0.43c-0.76,0.13-2.06-0.33-2.02,0.98c0.04,1.16,1.45,0.92,2.12,1.03
		C426.19,200.22,430.53,200.25,434.86,200.11z M417.86,200.35c-0.41-1.46-2.37-1.75-1.59-3.3c0.24-0.49,1.79-0.21,1.09-1.4
		c-0.45-0.77-1.4-0.34-2.12-0.32c-2.04,0.05-4.08,0.06-6.1,0.32c-0.89,0.12-2.18-0.26-2.67,0.78c-0.78,1.65,2.06,0.38,1.59,2.32
		c-1.45-0.95-3-0.67-4.55-0.55c-1.45,0.11-1.04,1.74-0.8,1.71c2.91-0.36,0.45,1.67,1.36,2.62c2.27-2.09,6.02,0.02,8.2-3.06
		c0.35-0.5,0.76,0,0.63,0.5c-0.47,1.86,0.98,1.05,1.5,0.94C415.5,200.64,416.48,199.8,417.86,200.35z M590.76,42.53
		c-1.19,4.29-1.01,4.74,2.02,4.69c2.95-0.05,6.23-0.28,8.66-1.23c2.71-1.05,4.79-1.05,7.29-0.45c0.72,0.17,1.62-0.28,1.77-1.06
		c0.21-1.06-1.08-1.34-1.53-1.28c-1.97,0.28-3.9-0.37-5.95,0.13c-1.47,0.36-5.17,1.85-3.07-3
		C596.67,41.63,594.17,44.26,590.76,42.53z M392.91,200.59c2.9,2.63,6.57,1.64,8.93-2.26c0.37-0.61,1.71-1.15,0.66-2.03
		c-0.79-0.66-2.11-1.25-2.9-0.08c-2.16,3.22-5.05,3.07-8.35,2.43c-1.14-0.22-2.66,0.52-3.7,1.26c-0.43,0.31,0.46,1.55,1.06,2.13
		c1.09,1.05,2.57,1.21,3.91,0.88C393.82,202.6,392.15,201.44,392.91,200.59z M546.98,34.26c1.28-0.09,1.94-0.12,2.59-0.18
		c0.89-0.08,2.08-0.24,1.79-1.33c-0.27-1.01-1.57-2.01-2.55-1.67c-2.31,0.8-4.91-0.3-7.07,1.32c-0.53,0.4-1.5,0.22-1.85-0.73
		c-0.17-0.45-0.13-1.06-1-0.5c-2.31,1.48-4.84,2.29-7.62,1.54c-0.56-0.15-0.85,0.14-1.02,0.52c-0.25,0.54,0.18,0.75,0.61,0.87
		c0.62,0.17,1.23,0.37,1.86,0.46C537.7,35.24,542.63,33.83,546.98,34.26z M468.66,26.65c1.45,0.22,2.42,0.3,3.35,0.52
		c5.67,1.36,11.43,0.76,17.15,0.71c0.76-0.01,2.3,0.21,2.71-1.24c-1.65-0.38-1.73-2.45-3.22-3c-1.21,3.45-4.03,1.33-6.08,1.66
		c-2.78,0.45-5.81,1.17-8.39,0.48C472.07,25.2,470.73,25.48,468.66,26.65z"/>
	<path class="st0" d="M209.88,14.08c1.48-1.65,2.85-2.55,5.48-1.86c2.11,0.56,4.71-0.26,6.98-0.87c2.51-0.67,4.78,0.73,7.22,0.41
		c0.55-0.07,1.66,0.61,0.35,1.4c-0.47,0.28-1.12,0.34-0.51,1.06c0.32,0.38,0.68,0.39,1.14,0.17c1-0.49,2.12-0.44,2.34-2.18
		c0.26-1.95,2.17-3.12,3.96-2.17c2.94,1.56,5.69,0.34,8.51,0.1c0.64-0.05,1.28-0.53,1.62,0.29c0.48,1.19,1.31,2.34,0.9,3.73
		c-0.32,1.09-1.29,0.66-1.95,0.57c-1.76-0.25-3.36,0.4-5.03,0.66c-2.19,0.35-4.51,1.9-6.54-0.45c-0.1-0.11-0.43-0.2-0.47-0.15
		c-2.95,3.76-7.25,1.52-10.67,1.7c-2.5,0.14-5.53,0.19-8.27-0.4c-1.39-0.3-2.5,0.52-3.69,1.43c-0.74-1.02-0.14-2.66-1.39-3.45
		L209.88,14.08z"/>
	<path class="st0" d="M570.9,170.39c2.27,1.39,4.62,1.6,7.18,0.81c1.64-0.51,3.37-1.32,4.98-1.17c2.54,0.24,3.48-2.08,5.42-2.63
		c-0.71-1.47,1.47-2.79,0.19-4.34c-0.49-0.59-0.61-1.42-0.05-2.1c0.15-0.18,0.71-0.28,0.88-0.15c0.69,0.51,0.73,1.29,0.56,2.05
		c-0.56,2.6-0.42,4.54,3.11,3.46c0.18-0.05,0.58,0.03,0.6,0.11c1.03,4.94,4.86,2.18,7.47,2.7c0.72,0.15,1.89-0.1,1.61,0.98
		c-0.23,0.88,0.15,2.69-1.37,2.54c-3.24-0.33-5.92,1.8-9.22,1.71c-1.61-0.04-2.88-0.99-4.5-0.76c-1.69,0.23-3.55-2.17-5.19,0.29
		c-2.08-2.39-3.11-0.57-4.19,1.04c-1.66-2.04-3.8,1.1-5.85-0.66c-1.04-0.89-1.26-0.49-0.29-1.61
		C573.25,171.51,570.5,171.71,570.9,170.39L570.9,170.39z"/>
	<path class="st0" d="M122.26,210.73c1.02,0.01,2.4-0.19,1.33-1.43c-0.94-1.09-0.14-1.75,0.12-2.25c0.53-0.98,1.23-0.12,1.86,0.25
		c1.24,0.73,2,0.13,2.43-1.06c1.38-3.83,1.7-3.97,5.7-2.18c-1.3,0.88-1.51,3.56-4,1.74c-0.13-0.09-0.86,0.32-0.97,0.62
		c-0.17,0.46-0.25,1.17-0.01,1.53c1.64,2.46,5.81,2.72,7.98,0.56c1.01-1.01,0.12-2.51,1.07-3.73c0.58-0.74,1.04-0.99,1.76-0.98
		c1.18,0.02,2.11,0.95,3.54,0.51c1.05-0.32,2.41,0.35,3.98,0.65c-1.27,1.12-3.51-0.29-3.71,1.98c-0.01,0.08-0.76,0.26-0.86,0.14
		c-2.01-2.49-2.42,0.55-3.56,1.01c0.61,1.49-1.51,3.57,1.07,4.84c-1.93-1.34-2.53,1.09-4.16,1.24c-3.55,0.31-4.64-2.48-6.46-4.29
		c-1.16-1.15-0.71-0.99-2.03-0.08c-1.23,0.85-2.84,1.15-4,2.33c-0.21,0.21-0.86-0.81-1.08-1.43L122.26,210.73z"/>
	<path class="st0" d="M132.7,23.93c-1.07-2.64-2.07-2.79-4.02-2.77c-3.72,0.04-1.61,1.52-0.53,3.52c-3.24-3.02-6.35-0.98-9.3-1.37
		c-1.08-0.14-2.67,0.48-3-1.11c-0.36-1.71,0.82-2.62,2.42-2.94c3.24-0.64,6.81,0.46,9.74-1.87c0.62-0.49,1.06,0.13,1.63,0.46
		c2.25,1.28,4.51,2.74,7.04,0.21c0.81-0.81,2.29-0.46,3.41-0.05c0.53,0.2,1.47,0.19,1.44,1.06c-0.04,1.1-1.3,0.45-1.35,0.55
		c-1.6,3.05-5.77,1.59-7.49,4.31L132.7,23.93z"/>
	<path class="st0" d="M122.27,210.72c-3.35-0.26-6.44-1.92-10.46-1.47c1.42-0.81,2.67-1.98,1.46-2.26c-2.5-0.59-1.98-3.55-4.1-4.18
		c-1.23-0.37-0.66-1.52-0.49-2.25c0.24-1,1.23-0.73,1.93-0.59c4.61,0.9,5.91,2.87,5.65,6.72c-0.05,0.76,0.47,1.21,1.23,0.76
		c1.02-0.61,2.69-1.21,2.83-2.03c0.65-3.85,3.14-2.73,5.91-2.33c-3.07,1.88-6.8,3.27-3.97,7.64
		C122.26,210.73,122.27,210.72,122.27,210.72z"/>
	<path class="st0" d="M585.95,18.39c0.07-0.18,0.1-0.41,0.23-0.54c1.44-1.37,2.89-5.14,4.38,0.02c0.09,0.32,2.16,0.36,1.96-0.53
		c-0.6-2.66,1.3-1.93,2.49-2.15c1.79-0.33,3.61-0.43,5.42-0.8c3.21-0.65,5.23,2.42,8.02,3.48
		C600.87,17.11,593.49,21.01,585.95,18.39z"/>
	<path class="st0" d="M81.25,181.82c-1.66,1.43-4.31-0.58-5.4,1.94c-3.67-2.04-8.09,1.34-10.94-0.49c-3.33-2.14-4.84,1.08-7.35,0.87
		c-1.59-0.13-3.22-0.25-4.24-1.13c-0.86-0.74,0.97-1.86,0.81-3.27c0.46,2.48,2.58,2.87,4.12,3.54c0.76,0.33,1.67-1.24,3.16-1.5
		c2.5-0.44,4.63,0.52,6.94,0.56c1.16,0.02,2.02,0.45,1.44-1.33c-0.4-1.22,0.39-0.64,1.01-0.56
		C74.21,180.9,77.74,180.35,81.25,181.82z"/>
	<path class="st0" d="M91.54,20.02c0.17-0.19,0.34-0.38,0.5-0.57c4.65-2.09,9.1-0.09,13.6,0.71c0.98,0.17,0.67,1.5,0.8,2.2
		c0.13,0.66-0.82,0.81-1.32,0.14c-0.12-0.15,0.14-0.59,0.22-0.9c-1.79-0.31-3.32-1.63-5.37-0.98c-2.36,0.76-4.74,1.57-7.33,0.75
		C91.8,21.12,91.75,20.6,91.54,20.02z"/>
</g>
<g>
	<path class="st1" d="M221.11,53.56c0-10.13,7.78-17.38,18.24-17.38c5.81,0,10.66,2.11,13.83,5.95l-4.99,4.61
		c-2.26-2.59-5.09-3.94-8.45-3.94c-6.29,0-10.75,4.42-10.75,10.75c0,6.34,4.46,10.75,10.75,10.75c3.36,0,6.19-1.34,8.45-3.98
		l4.99,4.61c-3.17,3.89-8.02,6-13.87,6C228.89,70.94,221.11,63.69,221.11,53.56z"/>
	<path class="st1" d="M280.54,55.63v14.74h-7.01v-3.22c-1.39,2.35-4.08,3.6-7.87,3.6c-6.05,0-9.65-3.36-9.65-7.82
		c0-4.56,3.22-7.73,11.09-7.73h5.95c0-3.22-1.92-5.09-5.95-5.09c-2.74,0-5.57,0.91-7.44,2.4l-2.69-5.23
		c2.83-2.02,7.01-3.12,11.14-3.12C275.98,44.15,280.54,47.8,280.54,55.63z M273.05,62.2v-2.64h-5.14c-3.5,0-4.61,1.3-4.61,3.02
		c0,1.87,1.58,3.12,4.22,3.12C270.03,65.71,272.19,64.55,273.05,62.2z"/>
	<path class="st1" d="M287.3,34.74h7.49v35.62h-7.49V34.74z"/>
	<path class="st1" d="M301.75,34.74h7.49v35.62h-7.49V34.74z"/>
	<path class="st1" d="M361.13,36.76v33.6h-6.38l-16.75-20.4v20.4h-7.68v-33.6h6.43l16.71,20.4v-20.4H361.13z"/>
	<path class="st1" d="M366.65,57.45c0-7.78,6-13.3,14.21-13.3c8.21,0,14.16,5.52,14.16,13.3s-5.95,13.3-14.16,13.3
		C372.65,70.75,366.65,65.23,366.65,57.45z M387.43,57.45c0-4.46-2.83-7.15-6.58-7.15c-3.75,0-6.63,2.69-6.63,7.15
		s2.88,7.15,6.63,7.15C384.6,64.6,387.43,61.91,387.43,57.45z"/>
	<path class="st1" d="M440.76,44.54l-9.36,25.83h-7.2l-5.81-16.03l-6,16.03h-7.2l-9.31-25.83h7.06l6.1,17.47l6.34-17.47h6.34
		l6.14,17.47l6.29-17.47H440.76z"/>
	<path class="st1" d="M443.16,66.38c0-2.45,1.92-4.27,4.61-4.27c2.69,0,4.61,1.82,4.61,4.27c0,2.4-1.92,4.37-4.61,4.37
		C445.08,70.75,443.16,68.78,443.16,66.38z M443.3,36.76h8.93l-1.49,21.94h-5.95L443.3,36.76z"/>
</g>
<g>
	<path class="st1" d="M257.28,102.33c0,4.32-3.28,6.8-9.65,6.8h-12.02v-25.2h11.3c5.8,0,9.04,2.45,9.04,6.51
		c0,2.74-1.4,4.64-3.38,5.62C255.4,96.86,257.28,98.98,257.28,102.33z M239.21,86.85v8.06h7.38c3.67,0,5.76-1.37,5.76-4.03
		c0-2.66-2.09-4.03-5.76-4.03H239.21z M253.64,102.04c0-2.92-2.16-4.21-6.16-4.21h-8.28v8.39h8.28
		C251.48,106.22,253.64,104.96,253.64,102.04z"/>
	<path class="st1" d="M260.59,99.6c0-5.69,4.21-9.72,9.94-9.72c5.72,0,9.9,4.03,9.9,9.72c0,5.69-4.18,9.75-9.9,9.75
		C264.8,109.35,260.59,105.28,260.59,99.6z M276.93,99.6c0-4.07-2.74-6.7-6.41-6.7c-3.67,0-6.44,2.63-6.44,6.7
		c0,4.07,2.77,6.73,6.44,6.73C274.2,106.33,276.93,103.66,276.93,99.6z"/>
	<path class="st1" d="M283.45,99.6c0-5.69,4.21-9.72,9.94-9.72c5.72,0,9.9,4.03,9.9,9.72c0,5.69-4.18,9.75-9.9,9.75
		C287.66,109.35,283.45,105.28,283.45,99.6z M299.79,99.6c0-4.07-2.74-6.7-6.41-6.7c-3.67,0-6.44,2.63-6.44,6.7
		c0,4.07,2.77,6.73,6.44,6.73C297.06,106.33,299.79,103.66,299.79,99.6z"/>
	<path class="st1" d="M315.49,100.24l-3.96,3.67v5.22h-3.46V82.43h3.46v17.13l10.4-9.5h4.17l-8.03,7.88l8.82,11.19h-4.25
		L315.49,100.24z"/>
	<path class="st1" d="M345.44,87.07h-8.64v-3.13h20.84v3.13h-8.64v22.06h-3.56V87.07z"/>
	<path class="st1" d="M357.32,99.6c0-5.69,4.21-9.72,9.94-9.72c5.72,0,9.9,4.03,9.9,9.72c0,5.69-4.18,9.75-9.9,9.75
		C361.53,109.35,357.32,105.28,357.32,99.6z M373.66,99.6c0-4.07-2.74-6.7-6.41-6.7c-3.67,0-6.44,2.63-6.44,6.7
		c0,4.07,2.77,6.73,6.44,6.73C370.93,106.33,373.66,103.66,373.66,99.6z"/>
	<path class="st1" d="M399.94,82.43v26.71h-3.31v-3.02c-1.55,2.16-4,3.24-6.8,3.24c-5.58,0-9.65-3.92-9.65-9.75
		c0-5.83,4.07-9.72,9.65-9.72c2.7,0,5.08,1.01,6.66,3.06V82.43H399.94z M396.52,99.6c0-4.07-2.77-6.7-6.41-6.7
		c-3.67,0-6.44,2.63-6.44,6.7c0,4.07,2.77,6.73,6.44,6.73C393.75,106.33,396.52,103.66,396.52,99.6z"/>
	<path class="st1" d="M421.62,97.62v11.52h-3.28v-2.52c-1.15,1.73-3.28,2.74-6.26,2.74c-4.32,0-7.06-2.3-7.06-5.62
		c0-3.06,1.98-5.58,7.67-5.58h5.47v-0.68c0-2.92-1.69-4.61-5.11-4.61c-2.27,0-4.57,0.79-6.05,2.05l-1.44-2.59
		c1.98-1.58,4.82-2.45,7.88-2.45C418.66,89.88,421.62,92.4,421.62,97.62z M418.16,103.3v-2.66h-5.33c-3.42,0-4.39,1.33-4.39,2.95
		c0,1.91,1.58,3.1,4.21,3.1C415.24,106.69,417.3,105.5,418.16,103.3z"/>
	<path class="st1" d="M444.55,90.06l-9.25,20.99c-1.69,4.03-3.89,5.29-6.8,5.29c-1.84,0-3.71-0.61-4.9-1.76l1.48-2.59
		c0.94,0.9,2.12,1.4,3.42,1.4c1.66,0,2.7-0.76,3.64-2.95l0.61-1.33l-8.42-19.04h3.6l6.66,15.26l6.59-15.26H444.55z"/>
</g>
<g>
	<path class="st1" d="M216.84,122.82h7.34c5.45,0,9.17,3.36,9.17,8.4c0,5.04-3.72,8.4-9.17,8.4h-7.34V122.82z M224.04,136.99
		c3.74,0,6.17-2.28,6.17-5.76s-2.42-5.76-6.17-5.76h-4.08v11.52H224.04z"/>
	<path class="st1" d="M250.17,134.18h-10.06c0.36,1.87,1.92,3.07,4.15,3.07c1.44,0,2.57-0.46,3.48-1.39l1.61,1.85
		c-1.15,1.37-2.95,2.09-5.16,2.09c-4.3,0-7.08-2.76-7.08-6.58s2.81-6.55,6.62-6.55c3.74,0,6.48,2.62,6.48,6.63
		C250.22,133.53,250.2,133.89,250.17,134.18z M240.09,132.18h7.27c-0.24-1.85-1.66-3.12-3.62-3.12
		C241.8,129.06,240.38,130.31,240.09,132.18z"/>
	<path class="st1" d="M253.84,133.22c0-3.84,2.88-6.55,6.94-6.55c2.5,0,4.49,1.03,5.47,2.98l-2.3,1.34
		c-0.77-1.22-1.92-1.78-3.19-1.78c-2.21,0-3.89,1.54-3.89,4.01c0,2.5,1.68,4.01,3.89,4.01c1.27,0,2.42-0.55,3.19-1.78l2.3,1.34
		c-0.98,1.92-2.98,3-5.47,3C256.72,139.79,253.84,137.06,253.84,133.22z"/>
	<path class="st1" d="M270.23,122.9c0-1.01,0.82-1.8,1.92-1.8c1.1,0,1.92,0.74,1.92,1.73c0,1.06-0.79,1.87-1.92,1.87
		C271.05,124.7,270.23,123.9,270.23,122.9z M270.64,126.81h3v12.82h-3V126.81z"/>
	<path class="st1" d="M291.93,121.82v17.81h-2.88v-1.66c-1.01,1.22-2.5,1.82-4.25,1.82c-3.72,0-6.48-2.59-6.48-6.58
		s2.76-6.55,6.48-6.55c1.66,0,3.12,0.55,4.13,1.73v-6.58H291.93z M288.98,133.22c0-2.45-1.66-4.01-3.82-4.01
		c-2.16,0-3.82,1.56-3.82,4.01s1.66,4.01,3.82,4.01C287.32,137.22,288.98,135.67,288.98,133.22z"/>
	<path class="st1" d="M309.67,134.18h-10.06c0.36,1.87,1.92,3.07,4.15,3.07c1.44,0,2.57-0.46,3.48-1.39l1.61,1.85
		c-1.15,1.37-2.95,2.09-5.16,2.09c-4.3,0-7.08-2.76-7.08-6.58s2.81-6.55,6.62-6.55c3.74,0,6.48,2.62,6.48,6.63
		C309.72,133.53,309.69,133.89,309.67,134.18z M299.59,132.18h7.27c-0.24-1.85-1.66-3.12-3.62-3.12
		C301.29,129.06,299.87,130.31,299.59,132.18z"/>
	<path class="st1" d="M335.37,121.82v17.81h-2.88v-1.66c-1.01,1.22-2.5,1.82-4.25,1.82c-3.72,0-6.48-2.59-6.48-6.58
		s2.76-6.55,6.48-6.55c1.66,0,3.12,0.55,4.13,1.73v-6.58H335.37z M332.42,133.22c0-2.45-1.66-4.01-3.82-4.01s-3.82,1.56-3.82,4.01
		s1.66,4.01,3.82,4.01S332.42,135.67,332.42,133.22z"/>
	<path class="st1" d="M351.83,132.11v7.51H349v-1.56c-0.72,1.1-2.11,1.73-4.03,1.73c-2.93,0-4.78-1.61-4.78-3.84
		c0-2.14,1.44-3.82,5.33-3.82h3.31v-0.19c0-1.75-1.06-2.78-3.19-2.78c-1.44,0-2.93,0.48-3.89,1.27l-1.18-2.18
		c1.37-1.06,3.36-1.58,5.42-1.58C349.7,126.66,351.83,128.42,351.83,132.11z M348.83,135.62v-1.49h-3.1c-2.04,0-2.59,0.77-2.59,1.7
		c0,1.08,0.91,1.78,2.45,1.78C347.06,137.61,348.33,136.94,348.83,135.62z"/>
	<path class="st1" d="M365.18,138.93c-0.72,0.58-1.8,0.86-2.88,0.86c-2.81,0-4.42-1.49-4.42-4.32v-6.17h-2.11v-2.4h2.11v-2.93h3
		v2.93h3.43v2.4h-3.43v6.1c0,1.25,0.62,1.92,1.78,1.92c0.62,0,1.22-0.17,1.68-0.53L365.18,138.93z"/>
	<path class="st1" d="M381.02,134.18h-10.06c0.36,1.87,1.92,3.07,4.15,3.07c1.44,0,2.57-0.46,3.48-1.39l1.61,1.85
		c-1.15,1.37-2.95,2.09-5.16,2.09c-4.3,0-7.08-2.76-7.08-6.58s2.81-6.55,6.62-6.55c3.74,0,6.48,2.62,6.48,6.63
		C381.07,133.53,381.04,133.89,381.02,134.18z M370.94,132.18h7.27c-0.24-1.85-1.66-3.12-3.63-3.12
		C372.64,129.06,371.22,130.31,370.94,132.18z"/>
	<path class="st1" d="M384.28,138.35l1.15-2.28c1.13,0.74,2.86,1.27,4.46,1.27c1.9,0,2.69-0.53,2.69-1.42
		c0-2.45-7.92-0.14-7.92-5.26c0-2.42,2.18-4.01,5.64-4.01c1.7,0,3.65,0.41,4.8,1.1l-1.15,2.28c-1.22-0.72-2.45-0.96-3.67-0.96
		c-1.82,0-2.69,0.6-2.69,1.44c0,2.59,7.92,0.29,7.92,5.3c0,2.4-2.21,3.96-5.81,3.96C387.57,139.79,385.43,139.17,384.28,138.35z"/>
	<path class="st1" d="M408.33,121.82h3v17.81h-3V121.82z"/>
	<path class="st1" d="M427.79,132.11v7.51h-2.83v-1.56c-0.72,1.1-2.11,1.73-4.03,1.73c-2.93,0-4.78-1.61-4.78-3.84
		c0-2.14,1.44-3.82,5.33-3.82h3.31v-0.19c0-1.75-1.06-2.78-3.19-2.78c-1.44,0-2.93,0.48-3.89,1.27l-1.18-2.18
		c1.37-1.06,3.36-1.58,5.42-1.58C425.66,126.66,427.79,128.42,427.79,132.11z M424.79,135.62v-1.49h-3.1c-2.04,0-2.59,0.77-2.59,1.7
		c0,1.08,0.91,1.78,2.45,1.78C423.02,137.61,424.29,136.94,424.79,135.62z"/>
	<path class="st1" d="M441.14,138.93c-0.72,0.58-1.8,0.86-2.88,0.86c-2.81,0-4.42-1.49-4.42-4.32v-6.17h-2.11v-2.4h2.11v-2.93h3
		v2.93h3.43v2.4h-3.43v6.1c0,1.25,0.62,1.92,1.78,1.92c0.62,0,1.22-0.17,1.68-0.53L441.14,138.93z"/>
	<path class="st1" d="M456.98,134.18h-10.06c0.36,1.87,1.92,3.07,4.15,3.07c1.44,0,2.57-0.46,3.48-1.39l1.61,1.85
		c-1.15,1.37-2.95,2.09-5.16,2.09c-4.3,0-7.08-2.76-7.08-6.58s2.81-6.55,6.63-6.55c3.74,0,6.48,2.62,6.48,6.63
		C457.02,133.53,457,133.89,456.98,134.18z M446.9,132.18h7.27c-0.24-1.85-1.66-3.12-3.62-3.12
		C448.6,129.06,447.18,130.31,446.9,132.18z"/>
	<path class="st1" d="M469.12,126.66v2.86c-0.26-0.05-0.48-0.07-0.7-0.07c-2.28,0-3.72,1.34-3.72,3.96v6.22h-3v-12.82h2.86v1.87
		C465.42,127.34,466.98,126.66,469.12,126.66z"/>
</g>
<g>
	<path class="st2" d="M209.29,164.96h-6.26v6.12h-4.64v-6.12h-6.23v-4.39h6.23v-6.12h4.64v6.12h6.26V164.96z"/>
	<path class="st2" d="M221.86,150.16v25.2h-5.83v-20.52h-5.04v-4.68H221.86z"/>
	<path class="st2" d="M257.53,168.05c0,4.75-4.25,7.74-10.65,7.74c-6.37,0-10.58-2.99-10.58-7.74c0-2.7,1.4-4.72,3.82-5.94
		c-1.87-1.15-2.92-2.92-2.92-5.18c0-4.43,3.96-7.2,9.68-7.2c5.8,0,9.75,2.77,9.75,7.2c0,2.27-1.08,4.03-2.95,5.18
		C256.13,163.34,257.53,165.35,257.53,168.05z M251.63,167.87c0-2.23-1.84-3.6-4.75-3.6c-2.88,0-4.68,1.37-4.68,3.6
		c0,2.23,1.8,3.64,4.68,3.64C249.79,171.51,251.63,170.11,251.63,167.87z M242.99,157.18c0,1.91,1.51,3.1,3.89,3.1
		c2.41,0,3.96-1.19,3.96-3.1c0-1.98-1.58-3.17-3.96-3.17C244.54,154.02,242.99,155.2,242.99,157.18z"/>
	<path class="st2" d="M281,167.41c0,5.15-4.21,8.39-9.54,8.39c-6.95,0-11.27-4.36-11.27-12.49c0-8.71,5.26-13.57,12.85-13.57
		c2.66,0,5.26,0.61,7.02,1.73l-2.16,4.28c-1.4-0.94-3.02-1.26-4.72-1.26c-4.21,0-6.91,2.48-7.09,7.31c1.48-1.48,3.6-2.23,6.23-2.23
		C277.19,159.56,281,162.65,281,167.41z M275.35,167.69c0-2.3-1.69-3.78-4.28-3.78c-2.56,0-4.36,1.58-4.36,3.78
		c0,2.16,1.62,3.74,4.43,3.74C273.63,171.44,275.35,170,275.35,167.69z"/>
	<path class="st2" d="M303.94,167.41c0,5.15-4.21,8.39-9.54,8.39c-6.95,0-11.27-4.36-11.27-12.49c0-8.71,5.26-13.57,12.85-13.57
		c2.66,0,5.26,0.61,7.02,1.73l-2.16,4.28c-1.4-0.94-3.02-1.26-4.72-1.26c-4.21,0-6.91,2.48-7.09,7.31c1.48-1.48,3.6-2.23,6.23-2.23
		C300.12,159.56,303.94,162.65,303.94,167.41z M298.29,167.69c0-2.3-1.69-3.78-4.28-3.78c-2.56,0-4.36,1.58-4.36,3.78
		c0,2.16,1.62,3.74,4.43,3.74C296.56,171.44,298.29,170,298.29,167.69z"/>
	<path class="st2" d="M337.34,168.05c0,4.75-4.25,7.74-10.66,7.74c-6.37,0-10.58-2.99-10.58-7.74c0-2.7,1.4-4.72,3.82-5.94
		c-1.87-1.15-2.92-2.92-2.92-5.18c0-4.43,3.96-7.2,9.68-7.2c5.8,0,9.75,2.77,9.75,7.2c0,2.27-1.08,4.03-2.95,5.18
		C335.94,163.34,337.34,165.35,337.34,168.05z M331.44,167.87c0-2.23-1.84-3.6-4.75-3.6c-2.88,0-4.68,1.37-4.68,3.6
		c0,2.23,1.8,3.64,4.68,3.64C329.6,171.51,331.44,170.11,331.44,167.87z M322.8,157.18c0,1.91,1.51,3.1,3.89,3.1
		c2.41,0,3.96-1.19,3.96-3.1c0-1.98-1.58-3.17-3.96-3.17C324.35,154.02,322.8,155.2,322.8,157.18z"/>
	<path class="st2" d="M361.1,168.05c0,4.75-4.25,7.74-10.66,7.74c-6.37,0-10.58-2.99-10.58-7.74c0-2.7,1.4-4.72,3.82-5.94
		c-1.87-1.15-2.92-2.92-2.92-5.18c0-4.43,3.96-7.2,9.68-7.2c5.8,0,9.75,2.77,9.75,7.2c0,2.27-1.08,4.03-2.95,5.18
		C359.7,163.34,361.1,165.35,361.1,168.05z M355.2,167.87c0-2.23-1.84-3.6-4.75-3.6c-2.88,0-4.68,1.37-4.68,3.6
		c0,2.23,1.8,3.64,4.68,3.64C353.36,171.51,355.2,170.11,355.2,167.87z M346.56,157.18c0,1.91,1.51,3.1,3.89,3.1
		c2.41,0,3.96-1.19,3.96-3.1c0-1.98-1.58-3.17-3.96-3.17C348.11,154.02,346.56,155.2,346.56,157.18z"/>
	<path class="st2" d="M382.38,167.66c0,4.25-3.28,8.14-10.44,8.14c-3.53,0-7.16-0.97-9.61-2.7l2.27-4.46
		c1.91,1.44,4.57,2.27,7.2,2.27c2.92,0,4.71-1.19,4.71-3.24c0-1.91-1.4-3.1-4.71-3.1h-2.66v-3.85l5.18-5.87h-10.73v-4.68h17.64v3.78
		l-5.69,6.48C380.08,161.14,382.38,163.95,382.38,167.66z"/>
	<path class="st2" d="M395.27,162.76c0-8.31,4.61-13.03,10.8-13.03c6.23,0,10.8,4.72,10.8,13.03c0,8.32-4.57,13.03-10.8,13.03
		C399.88,175.79,395.27,171.08,395.27,162.76z M411,162.76c0-5.72-2.02-8.1-4.93-8.1c-2.88,0-4.9,2.38-4.9,8.1
		c0,5.72,2.02,8.1,4.9,8.1C408.98,170.86,411,168.49,411,162.76z"/>
	<path class="st2" d="M438.76,167.44c0,4.46-3.28,8.35-10.48,8.35c-3.49,0-7.16-0.97-9.61-2.7l2.3-4.46
		c1.91,1.44,4.54,2.27,7.16,2.27c2.92,0,4.72-1.22,4.72-3.28c0-1.98-1.3-3.28-5.87-3.28h-6.44l1.29-14.18h15.37v4.68H426.7
		l-0.4,4.79h2.05C435.8,159.63,438.76,162.98,438.76,167.44z"/>
	<path class="st2" d="M460.43,150.16v3.78l-9.36,21.42h-6.33l9.03-20.45h-8.35v4.1h-5.18v-8.85H460.43z"/>
	<path class="st2" d="M481.38,167.66c0,4.25-3.28,8.14-10.44,8.14c-3.53,0-7.16-0.97-9.61-2.7l2.27-4.46
		c1.91,1.44,4.57,2.27,7.2,2.27c2.92,0,4.72-1.19,4.72-3.24c0-1.91-1.4-3.1-4.72-3.1h-2.66v-3.85l5.18-5.87h-10.73v-4.68h17.64v3.78
		l-5.69,6.48C479.08,161.14,481.38,163.95,481.38,167.66z"/>
</g>
</svg>
