<?xml version="1.0" encoding="utf-8"?>
<!-- Generator: Adobe Illustrator 25.4.1, SVG Export Plug-In . SVG Version: 6.00 Build 0)  -->
<svg version="1.1" id="lettering" xmlns="http://www.w3.org/2000/svg" xmlns:xlink="http://www.w3.org/1999/xlink" x="0px" y="0px"
	 viewBox="0 0 200 200" style="enable-background:new 0 0 200 200;" xml:space="preserve">
<style type="text/css">
	.st0{fill:#FFFFFF;}
	.st1{fill:#AA531E;}
	.st2{fill:#F7F0F0;}
	.st3{fill:#FD2B42;}
	.st4{fill:#D0202A;}
	.st5{fill:#003657;}
	.st6{fill:#D4D4D4;}
	.st7{fill:#9E1524;}
	.st8{fill:#7D3102;}
	.st9{fill:none;}
</style>
<g>
	<g>
		<path class="st0" d="M185.4,72.7c-0.5-0.7-12.5-17.1-29.7-26.9c-3.2-1.8-6.4-3.3-9.5-4.4c-4.9-1.8-9.7-2.7-14.4-2.9
			c-1.2,0-2.4-0.1-3.7-0.2c-13.6-1.2-27.4-7.1-36.3-11.6c0.4-1.8,0.2-3.7-0.6-5.5c-1-2.3-2.8-4-5.1-5c-4.3-1.7-9.2,0.1-11.5,4
			c-1.1,0.6-2,1.6-2.5,2.9L52.2,72.9c0,0,0,0,0,0l-4.5,11.2c0,0,0,0,0,0l-4.3,10.9c-0.5,1.2-0.5,2.5-0.2,3.7l-29,72.9
			c-0.9,2.3-0.9,4.8,0.1,7.1c1,2.3,2.8,4,5.1,5c1.1,0.4,2.3,0.7,3.4,0.7c3.7,0,7.2-2.2,8.6-5.9l27.4-68.9
			c10.8,5.4,27,11.9,42.3,11.9c1.6,0,3.3,0.2,5,0.5c1,0.2,2,0.4,3.1,0.7c19.6,5.4,38.9,27,39.1,27.2c1.4,1.5,3.4,2.2,5.4,1.9
			c2-0.4,3.7-1.7,4.5-3.6l27.8-69.8C186.8,76.5,186.6,74.4,185.4,72.7z"/>
		<g>
			<g>
				<g>
					<path class="st1" d="M19.7,173.9c-0.7,1.7,0.2,3.7,1.9,4.4c1.7,0.7,3.7-0.2,4.4-1.9l29.9-75c-2.7-1.5-4.8-2.8-5.9-3.5
						L19.7,173.9z"/>
				</g>
				<g>
					<path class="st2" d="M56.5,81.5c-0.4-0.2-0.7-0.3-1-0.5l-2.2,5.4c0.3,0.2,0.7,0.3,1,0.5L56.5,81.5z"/>
				</g>
				<g>
					<path class="st2" d="M132.4,60.5c0.8-2,1.8-3.7,2.8-5.3c-2.7-0.7-4.9-1-7.8-1.3c-1.5-0.2-3.1-0.3-5-0.6
						c-0.8,1.7-1.6,3.5-2.4,5.4c1.4,0.2,2.7,0.3,3.9,0.5C127,59.5,129.5,59.8,132.4,60.5z"/>
				</g>
				<g>
					<path class="st2" d="M60.9,70.2c-0.7-0.3-1-0.5-1-0.5L59,71.8l-1.3,3.3c0.3,0.2,0.7,0.3,1,0.5L60.9,70.2z"/>
				</g>
				<g>
					<path class="st2" d="M50.9,92.2l-2,5.1c0,0,0.4,0.2,1,0.6l2.1-5.2C51.6,92.5,51.3,92.4,50.9,92.2z"/>
				</g>
				<g>
					<path class="st2" d="M125.5,47.5c0.9,0.1,1.8,0.2,2.6,0.3c3.9,0.4,7.1,0.8,11.6,2.3c2.4-2.1,4.3-3.1,4.3-3.1
						c-4-1.5-8.2-2.4-12.5-2.5c-1.3,0-2.7-0.1-4.1-0.2l0,0C126.9,45.2,126.2,46.3,125.5,47.5z"/>
				</g>
				<g>
					<path class="st2" d="M130.4,85.2c0.3-2,0.4-4,0.4-6.1c-4.3-1.5-7.4-1.9-11.5-2.3c-1.6-0.2-3.5-0.4-5.5-0.7
						c-0.7,2-1.2,3.9-1.7,5.5c1.4,0.2,2.6,0.3,3.8,0.4C120.5,82.6,124.6,83,130.4,85.2z"/>
				</g>
				<g>
					<path class="st2" d="M130.3,72.5c0-2.1,0.1-4.1,0.4-5.9c-2.5-0.6-4.7-0.8-7.4-1.1c-1.6-0.2-3.5-0.4-5.6-0.7
						c-0.7,1.8-1.4,3.7-2,5.4c1.5,0.2,2.9,0.3,4.2,0.5C123.5,71,126.6,71.4,130.3,72.5z"/>
				</g>
				<g>
					<path class="st2" d="M111.1,99.7c-4.3-0.4-9.2-1-16.3-2.8c-10-2.6-22.9-8.2-32.3-12.5l-2.2,5.4c9.1,4.2,21.9,9.8,31.5,12.4
						c6.7,1.8,11.5,2.3,15.8,2.7c4.3,0.4,8.1,0.8,12.8,2.4c1.3-1.5,2.6-3.1,3.7-4.9C119.3,100.6,115.7,100.2,111.1,99.7z"/>
				</g>
				<g>
					<path class="st2" d="M115.2,88.3c-4.1-0.4-8.8-0.9-15.8-2.7c-10-2.5-22.9-8.1-32.3-12.5l-2.2,5.4c9.1,4.3,21.9,9.8,31.5,12.3
						c6.7,1.7,11.3,2.2,15.4,2.6c4.9,0.5,9.3,1,15.3,3.4c0.8-1.8,1.4-3.6,2-5.5C123.6,89.2,119.9,88.8,115.2,88.3z"/>
				</g>
				<g>
					<path class="st2" d="M107,111.2c-4.5-0.5-9.5-1-16.7-2.9c-10-2.7-23-8.3-32.2-12.6l-2.3,5.7c9.8,5.4,28.3,14.2,45.4,14.3
						c2,0,4.1,0.2,6.1,0.6c2.7-0.9,5.3-2.2,7.7-3.9C112.3,111.7,109.8,111.5,107,111.2z"/>
				</g>
				<g>
					<path class="st2" d="M62.6,84.4c-2.3-1.1-4.4-2.1-6.1-2.9l-2.2,5.4c1.7,0.8,3.8,1.8,6.1,2.9L62.6,84.4z"/>
				</g>
				<g>
					<path class="st2" d="M67.1,73.2c-0.2-0.1-0.4-0.2-0.7-0.3c-2.5-1.2-4.4-2.1-5.5-2.6l-2.2,5.4c1.7,0.8,3.8,1.8,6.1,2.9
						L67.1,73.2z"/>
				</g>
				<g>
					<path class="st2" d="M52,92.7l-2.1,5.2c1.1,0.7,3.2,2,5.9,3.5l2.3-5.7C55.8,94.6,53.7,93.6,52,92.7z"/>
				</g>
				<g>
					<path class="st3" d="M135.3,55.2c1.5-2.2,3.1-3.9,4.5-5.1c-4.6-1.6-7.7-1.9-11.6-2.3c-0.8-0.1-1.7-0.2-2.6-0.3
						c-1,1.8-2,3.8-3,5.9c1.9,0.3,3.5,0.4,5,0.6C130.3,54.3,132.6,54.5,135.3,55.2z"/>
				</g>
				<g>
					<path class="st3" d="M123.4,65.4c2.6,0.3,4.9,0.5,7.4,1.1c0.4-2.2,1-4.2,1.7-6c-2.9-0.7-5.4-1-8.4-1.3
						c-1.2-0.1-2.5-0.3-3.9-0.5c-0.8,2-1.6,4-2.4,6C119.9,65,121.7,65.2,123.4,65.4z"/>
				</g>
				<g>
					<path class="st3" d="M130.8,79.2c0-1.2-0.1-2.4-0.2-3.6c-0.1-1.1-0.2-2.1-0.2-3c-3.8-1.1-6.9-1.4-10.4-1.8
						c-1.3-0.1-2.7-0.3-4.2-0.5c-0.7,2.1-1.4,4.1-2,6c2.1,0.3,3.9,0.5,5.5,0.7C123.4,77.3,126.5,77.6,130.8,79.2z"/>
				</g>
				<g>
					<path class="st3" d="M99.4,85.6c7,1.7,11.7,2.2,15.8,2.7c4.7,0.5,8.4,0.9,13.9,3.1c0.6-2,1-4.1,1.3-6.2
						c-5.8-2.2-9.9-2.7-14.5-3.2c-1.2-0.1-2.5-0.3-3.8-0.4c-1.1,3.7-1.8,6.1-1.8,6.1c-15.2-2.4-33.3-10.1-43.2-14.6l0,0
						C76.5,77.5,89.4,83.1,99.4,85.6z"/>
				</g>
				<g>
					<path class="st4" d="M67.1,73.1c-0.2-0.1-0.4-0.2-0.7-0.3C66.6,72.9,66.8,73,67.1,73.1L67.1,73.1z"/>
				</g>
				<g>
					<path class="st3" d="M111.8,93.5c-4.1-0.4-8.7-0.9-15.4-2.6c-9.6-2.5-22.4-8-31.5-12.3l-2.3,5.8c9.3,4.4,22.3,10,32.3,12.5
						c7.1,1.8,12,2.4,16.3,2.8c4.6,0.5,8.1,0.9,13,2.7c1.1-1.7,2.1-3.6,3-5.6C121,94.5,116.7,94,111.8,93.5z"/>
				</g>
				<g>
					<path class="st3" d="M120.5,107.3c-4.7-1.5-8.5-1.9-12.8-2.4c-4.2-0.4-9-0.9-15.8-2.7c-9.6-2.6-22.4-8.2-31.5-12.4l-2.3,5.8
						c9.2,4.3,22.2,9.9,32.2,12.6c7.2,1.9,12.3,2.5,16.7,2.9c2.8,0.3,5.3,0.5,7.9,1.1C116.9,110.9,118.8,109.2,120.5,107.3z"/>
				</g>
				<path class="st3" d="M58.8,75.6c-0.4-0.2-0.7-0.4-1-0.5L55.4,81c0.3,0.2,0.7,0.3,1,0.5c1.8,0.9,3.8,1.9,6.1,2.9l2.3-5.8
					C62.6,77.5,60.5,76.5,58.8,75.6z"/>
				<path class="st3" d="M53.2,86.4l-2.3,5.8c0.3,0.2,0.7,0.3,1.1,0.5c1.7,0.9,3.8,1.8,6.1,2.9l2.3-5.8c-2.3-1.1-4.4-2.1-6.1-2.9
					C53.9,86.7,53.6,86.5,53.2,86.4z"/>
				<g>
					<polygon class="st4" points="64.4,58.5 66.7,52.6 68.3,48.6 68.8,47.2 71.2,41.4 73.3,36 75.3,31.1 59.9,69.7 62.2,63.9 					
						"/>
				</g>
				<g>
					<path class="st4" d="M78.6,25.8l-1.1-0.4c0,0,0.4,0.2,1,0.6L78.6,25.8z"/>
				</g>
				<path class="st1" d="M83.9,21.7c-1.7-0.7-3.7,0.2-4.4,1.9l-0.9,2.1L78.5,26c1.1,0.7,3.2,1.9,5.9,3.5l0.5-1.3l0.8-2
					C86.5,24.4,85.6,22.4,83.9,21.7z"/>
				<g>
					<path class="st4" d="M60.9,70.2c-0.4-0.2-0.7-0.3-1-0.5C59.9,69.7,60.3,69.9,60.9,70.2L60.9,70.2z"/>
				</g>
				<g>
					<path class="st4" d="M60.9,70.2L60.9,70.2c1.1,0.5,3,1.5,5.5,2.6C64.4,71.9,62.5,71,60.9,70.2z"/>
				</g>
				<g>
					<path class="st5" d="M66.4,72.8c0.2,0.1,0.4,0.2,0.7,0.3c9.8,4.5,23.7,12.1,43.2,14.6c0,0,0.7-2.4,1.8-6.1
						c0.5-1.6,1.1-3.4,1.7-5.5c0.6-1.9,1.3-3.9,2-6c0.6-1.8,1.3-3.6,2-5.4c0.8-2,1.5-4,2.4-6c0.8-1.8,1.6-3.6,2.4-5.4
						c1-2.1,2-4.1,3-5.9c0.7-1.2,1.3-2.3,2-3.3l0,0c-17-1.6-34-9.7-43.1-14.7c-2.8-1.5-4.8-2.8-5.9-3.5c-0.6-0.4-1-0.6-1-0.6
						l-1.9,4.8l-0.4,1L73.3,36l-2.2,5.4l-2.3,5.8l-0.6,1.4l-1.6,4l-2.3,5.8l-2.2,5.4l-2.3,5.8c0.3,0.2,0.7,0.3,1,0.5
						C62.5,71,64.4,71.9,66.4,72.8z"/>
				</g>
				<g>
					<path class="st6" d="M135.3,55.2c-1,1.5-2,3.3-2.8,5.3c2.9,0.7,6.3,1.9,10.8,4c12.2,5.8,24.7,18.1,31.8,25.7l1.8-4.4
						c-5.9-6.5-20-21.3-32.1-27C140.6,57,137.8,55.9,135.3,55.2z"/>
				</g>
				<g>
					<path class="st6" d="M139.8,50.1c2.1,0.7,4.5,1.7,7.5,3.1c11.9,5.6,25.1,18.7,32.1,26.2l1.3-3.1c0,0-11.6-15.9-27.9-25.2
						c-2.7-1.6-5.6-2.9-8.6-4C144.1,46.9,142.2,47.9,139.8,50.1z"/>
				</g>
				<g>
					<path class="st6" d="M130.8,79.2c0,2-0.1,4.1-0.4,6.1c1.4,0.6,3,1.2,4.7,2c12.5,6,24.2,17.1,31.3,24.8l1.8-4.4
						c-6.3-7-19.1-20.1-31.6-26.1C134.3,80.5,132.4,79.7,130.8,79.2z"/>
				</g>
				<g>
					<path class="st6" d="M130.7,66.5c-0.3,1.8-0.4,3.8-0.4,5.9c2.5,0.7,5.3,1.8,8.8,3.4c12.4,5.9,24.5,17.6,31.5,25.2l0.7-1.7
						l1.1-2.7c-6.1-6.8-19.5-20.7-31.9-26.5C136.4,68.2,133.4,67.2,130.7,66.5z"/>
				</g>
				<g>
					<path class="st6" d="M124.1,102.5c-1.1,1.7-2.3,3.4-3.7,4.9c2,0.6,4.1,1.5,6.5,2.6c12.7,6.1,23.7,16.3,30.8,23.8l1.7-4.4
						c-6.5-7.2-18.2-19-31.1-25.1C126.8,103.5,125.4,102.9,124.1,102.5z"/>
				</g>
				<g>
					<path class="st6" d="M129.1,91.4c-0.5,1.9-1.2,3.7-2,5.5c1.2,0.5,2.5,1,3.9,1.7c12.7,6.1,23.9,16.7,31,24.3l0.1-0.2l1.7-4.2
						c-6.4-7.1-18.6-19.5-31.4-25.6C131.2,92.3,130.1,91.9,129.1,91.4z"/>
				</g>
				<g>
					<path class="st6" d="M152.8,146l2.3-5.7c-6.5-7.2-17.8-18.4-30.9-24.7c-3.6-1.7-6.5-2.7-9.2-3.3c-2.4,1.7-5,3-7.7,3.9
						c1.2,0.2,2.4,0.5,3.6,0.8C132.4,123,152.8,146,152.8,146z"/>
				</g>
				<g>
					<path class="st7" d="M139.8,50.1c-1.4,1.3-3,3-4.5,5.1c2.5,0.7,5.3,1.7,9.3,3.6c12.1,5.7,26.3,20.5,32.1,27l2.6-6.5
						c-7-7.5-20.1-20.5-32.1-26.2C144.3,51.8,141.9,50.8,139.8,50.1z"/>
				</g>
				<g>
					<path class="st7" d="M132.4,60.5c-0.7,1.8-1.3,3.8-1.7,6c2.7,0.6,5.6,1.7,9.8,3.7c12.4,5.9,25.8,19.7,31.9,26.5l2.6-6.5
						c-7-7.6-19.6-20-31.8-25.7C138.7,62.4,135.4,61.2,132.4,60.5z"/>
				</g>
				<g>
					<path class="st7" d="M130.3,72.5c0,1,0.1,2,0.2,3c0.1,1.2,0.2,2.4,0.2,3.6c1.7,0.6,3.5,1.4,5.7,2.4c12.6,6,25.3,19.1,31.6,26.1
						l2.6-6.5c-7.1-7.6-19.2-19.4-31.5-25.2C135.7,74.3,132.9,73.2,130.3,72.5z"/>
				</g>
				<g>
					<path class="st7" d="M130.4,85.2c-0.3,2.1-0.7,4.2-1.3,6.2c1,0.4,2.1,0.9,3.3,1.5c12.8,6.1,25,18.5,31.4,25.6l2.6-6.5
						c-7.1-7.6-18.7-18.8-31.3-24.8C133.4,86.5,131.8,85.8,130.4,85.2z"/>
				</g>
				<g>
					<path class="st7" d="M127.1,96.9c-0.9,1.9-1.8,3.8-3,5.6c1.3,0.5,2.6,1.1,4.2,1.8c12.9,6.2,24.7,17.9,31.1,25.1l2.6-6.5
						c-7.1-7.6-18.4-18.2-31-24.3C129.6,97.9,128.3,97.4,127.1,96.9z"/>
				</g>
				<g>
					<path class="st7" d="M120.5,107.3c-1.7,1.9-3.5,3.6-5.5,5c2.8,0.6,5.7,1.6,9.2,3.3c13,6.3,24.4,17.4,30.9,24.7l2.6-6.5
						c-7-7.5-18-17.7-30.8-23.8C124.6,108.8,122.4,108,120.5,107.3z"/>
				</g>
				<g>
					<g>
						<path class="st0" d="M76.4,36.4c0.1-0.1,0.2-0.2,0.3-0.3c0.4-0.5,0.8-1,1.2-1.4c0.2-0.2,0.4-0.5,0.6-0.7c0-0.1,0-0.1,0-0.2
							c-0.2-0.4-0.5-0.8-0.7-1.3c-0.2-0.4-0.5-0.8-0.7-1.3c0,0,0-0.1-0.1-0.1c0,0,0.1,0,0.1,0c0.9,0.4,1.8,0.7,2.7,1.1
							c0.1,0,0.1,0,0.1,0c0.4-0.4,0.7-0.9,1.1-1.3c0.3-0.3,0.6-0.7,0.9-1c0,0,0,0,0.1-0.1c-0.1,1.1-0.1,2.1-0.2,3.2
							c0.9,0.4,1.9,0.8,2.8,1.2c-0.1,0-0.2,0-0.2,0.1c-0.6,0.2-1.1,0.3-1.7,0.5c-0.4,0.1-0.7,0.2-1.1,0.3c-0.1,0-0.1,0-0.1,0.1
							c0,0.5-0.1,0.9-0.1,1.4c0,0.5-0.1,1.1-0.1,1.6c0,0.1,0,0.2,0,0.2c-0.5-0.9-1.1-1.8-1.6-2.7C78.4,35.9,77.4,36.1,76.4,36.4
							C76.4,36.4,76.4,36.4,76.4,36.4z"/>
						<path class="st0" d="M84.8,41.2c0.1-0.1,0.2-0.2,0.3-0.3c0.4-0.5,0.8-1,1.2-1.5c0.2-0.2,0.4-0.5,0.6-0.7c0-0.1,0-0.1,0-0.2
							c-0.3-0.4-0.5-0.8-0.8-1.3c-0.3-0.4-0.5-0.8-0.8-1.2c0,0,0-0.1-0.1-0.1c0,0,0.1,0,0.1,0c0.9,0.3,1.8,0.7,2.7,1
							c0.1,0,0.1,0,0.1,0c0.4-0.4,0.7-0.9,1.1-1.3c0.3-0.4,0.6-0.7,0.9-1.1c0,0,0,0,0.1-0.1c-0.1,1.1-0.1,2.1-0.2,3.2
							c0.9,0.4,1.9,0.7,2.8,1.1c-0.1,0-0.2,0.1-0.2,0.1c-0.6,0.2-1.1,0.3-1.7,0.5c-0.4,0.1-0.7,0.2-1.1,0.3c-0.1,0-0.1,0-0.1,0.1
							c0,0.5-0.1,0.9-0.1,1.4c0,0.5-0.1,1.1-0.1,1.6c0,0.1,0,0.2,0,0.2c-0.5-0.9-1.1-1.8-1.6-2.7C86.9,40.7,85.9,41,84.8,41.2
							C84.8,41.2,84.8,41.2,84.8,41.2z"/>
						<path class="st0" d="M94.1,45.4c0.1-0.1,0.2-0.2,0.2-0.3c0.4-0.5,0.8-1,1.1-1.5c0.2-0.2,0.4-0.5,0.6-0.7c0-0.1,0-0.1,0-0.2
							c-0.3-0.4-0.5-0.8-0.8-1.2c-0.3-0.4-0.5-0.8-0.8-1.2c0,0,0-0.1-0.1-0.1c0,0,0.1,0,0.1,0c0.9,0.3,1.8,0.7,2.7,1
							c0.1,0,0.1,0,0.1,0c0.3-0.4,0.7-0.9,1-1.3c0.3-0.4,0.6-0.7,0.9-1.1c0,0,0,0,0.1-0.1c0,1.1-0.1,2.1-0.1,3.2
							c0.9,0.3,1.9,0.7,2.9,1c-0.1,0-0.2,0.1-0.2,0.1c-0.6,0.2-1.1,0.4-1.7,0.5c-0.3,0.1-0.7,0.2-1.1,0.3c-0.1,0-0.1,0-0.1,0.1
							c0,0.5,0,0.9-0.1,1.4c0,0.5-0.1,1.1-0.1,1.6c0,0.1,0,0.2,0,0.2c-0.6-0.9-1.1-1.8-1.7-2.7C96.2,44.7,95.2,45.1,94.1,45.4
							C94.2,45.4,94.2,45.4,94.1,45.4z"/>
						<path class="st0" d="M103.9,48.8c0.1-0.1,0.2-0.2,0.2-0.3c0.4-0.5,0.7-1,1.1-1.5c0.2-0.2,0.4-0.5,0.5-0.7c0-0.1,0-0.1,0-0.2
							c-0.3-0.4-0.5-0.8-0.8-1.2c-0.3-0.4-0.5-0.8-0.8-1.2c0,0,0-0.1-0.1-0.1c0,0,0.1,0,0.1,0c0.9,0.3,1.8,0.6,2.7,0.9
							c0.1,0,0.1,0,0.1,0c0.3-0.4,0.7-0.9,1-1.3c0.3-0.4,0.6-0.7,0.8-1.1c0,0,0,0,0.1-0.1c0,1.1,0,2.1,0,3.2c1,0.3,1.9,0.7,2.9,1
							c-0.1,0-0.2,0.1-0.2,0.1c-0.5,0.2-1.1,0.4-1.6,0.6c-0.3,0.1-0.7,0.2-1,0.4c-0.1,0-0.1,0-0.1,0.1c0,0.5,0,0.9,0,1.4
							c0,0.5,0,1.1,0,1.6c0,0.1,0,0.2,0,0.2c-0.6-0.9-1.2-1.8-1.8-2.6C105.9,48.1,104.9,48.5,103.9,48.8
							C103.9,48.8,103.9,48.8,103.9,48.8z"/>
						<path class="st0" d="M113.7,51.5c0.1-0.1,0.2-0.2,0.2-0.3c0.4-0.5,0.7-1,1.1-1.5c0.2-0.2,0.3-0.5,0.5-0.7c0-0.1,0-0.1,0-0.2
							c-0.3-0.4-0.6-0.8-0.8-1.2c-0.3-0.4-0.6-0.8-0.8-1.2c0,0,0-0.1-0.1-0.1c0,0,0.1,0,0.1,0c0.9,0.3,1.8,0.6,2.7,0.9
							c0.1,0,0.1,0,0.1,0c0.3-0.5,0.7-0.9,1-1.4c0.3-0.4,0.5-0.7,0.8-1.1c0,0,0,0,0.1-0.1c0,1.1,0,2.1,0,3.2c1,0.3,1.9,0.6,2.9,0.9
							c-0.1,0-0.2,0.1-0.2,0.1c-0.5,0.2-1.1,0.4-1.6,0.6c-0.3,0.1-0.7,0.2-1,0.4c-0.1,0-0.1,0-0.1,0.1c0,0.5,0,0.9,0,1.4
							c0,0.5,0,1.1,0,1.6c0,0.1,0,0.2,0,0.2c-0.6-0.9-1.2-1.7-1.8-2.6C115.7,50.8,114.7,51.2,113.7,51.5
							C113.7,51.5,113.7,51.5,113.7,51.5z"/>
					</g>
				</g>
				<g>
					<g>
						<path class="st0" d="M65.1,67.6c0.1-0.1,0.2-0.2,0.3-0.3c0.4-0.5,0.8-1,1.2-1.4c0.2-0.2,0.4-0.5,0.6-0.7c0-0.1,0-0.1,0-0.2
							c-0.2-0.4-0.5-0.8-0.7-1.3c-0.2-0.4-0.5-0.8-0.7-1.3c0,0,0-0.1-0.1-0.1c0,0,0.1,0,0.1,0c0.9,0.4,1.8,0.7,2.7,1.1
							c0.1,0,0.1,0,0.1,0c0.4-0.4,0.7-0.9,1.1-1.3c0.3-0.3,0.6-0.7,0.9-1c0,0,0,0,0.1-0.1c-0.1,1.1-0.1,2.1-0.2,3.2
							c0.9,0.4,1.9,0.8,2.8,1.2c-0.1,0-0.2,0-0.2,0.1c-0.6,0.2-1.1,0.3-1.7,0.5c-0.4,0.1-0.7,0.2-1.1,0.3c-0.1,0-0.1,0-0.1,0.1
							c0,0.5-0.1,0.9-0.1,1.4c0,0.5-0.1,1.1-0.1,1.6c0,0.1,0,0.2,0,0.2c-0.5-0.9-1.1-1.8-1.6-2.7C67.2,67,66.1,67.3,65.1,67.6
							C65.1,67.6,65.1,67.6,65.1,67.6z"/>
						<path class="st0" d="M73.5,72.4c0.1-0.1,0.2-0.2,0.3-0.3c0.4-0.5,0.8-1,1.2-1.5c0.2-0.2,0.4-0.5,0.6-0.7c0-0.1,0-0.1,0-0.2
							c-0.3-0.4-0.5-0.8-0.8-1.3c-0.3-0.4-0.5-0.8-0.8-1.2c0,0,0-0.1-0.1-0.1c0,0,0.1,0,0.1,0c0.9,0.3,1.8,0.7,2.7,1
							c0.1,0,0.1,0,0.1,0c0.4-0.4,0.7-0.9,1.1-1.3c0.3-0.4,0.6-0.7,0.9-1.1c0,0,0,0,0.1-0.1c-0.1,1.1-0.1,2.1-0.2,3.2
							c0.9,0.4,1.9,0.7,2.8,1.1c-0.1,0-0.2,0.1-0.2,0.1c-0.6,0.2-1.1,0.3-1.7,0.5c-0.4,0.1-0.7,0.2-1.1,0.3c-0.1,0-0.1,0-0.1,0.1
							c0,0.5-0.1,0.9-0.1,1.4c0,0.5-0.1,1.1-0.1,1.6c0,0.1,0,0.2,0,0.2c-0.5-0.9-1.1-1.8-1.6-2.7C75.6,71.8,74.6,72.1,73.5,72.4
							C73.5,72.4,73.5,72.4,73.5,72.4z"/>
						<path class="st0" d="M82.9,76.5c0.1-0.1,0.2-0.2,0.2-0.3c0.4-0.5,0.8-1,1.1-1.5c0.2-0.2,0.4-0.5,0.6-0.7c0-0.1,0-0.1,0-0.2
							c-0.3-0.4-0.5-0.8-0.8-1.2c-0.3-0.4-0.5-0.8-0.8-1.2c0,0,0-0.1-0.1-0.1c0,0,0.1,0,0.1,0c0.9,0.3,1.8,0.7,2.7,1
							c0.1,0,0.1,0,0.1,0c0.3-0.4,0.7-0.9,1-1.3c0.3-0.4,0.6-0.7,0.9-1.1c0,0,0,0,0.1-0.1c0,1.1-0.1,2.1-0.1,3.2
							c0.9,0.3,1.9,0.7,2.9,1c-0.1,0-0.2,0.1-0.2,0.1c-0.6,0.2-1.1,0.4-1.7,0.5c-0.3,0.1-0.7,0.2-1.1,0.3c-0.1,0-0.1,0-0.1,0.1
							c0,0.5,0,0.9-0.1,1.4c0,0.5-0.1,1.1-0.1,1.6c0,0.1,0,0.2,0,0.2c-0.6-0.9-1.1-1.8-1.7-2.7C84.9,75.9,83.9,76.2,82.9,76.5
							C82.9,76.5,82.9,76.5,82.9,76.5z"/>
						<path class="st0" d="M92.6,79.9c0.1-0.1,0.2-0.2,0.2-0.3c0.4-0.5,0.7-1,1.1-1.5c0.2-0.2,0.4-0.5,0.5-0.7c0-0.1,0-0.1,0-0.2
							c-0.3-0.4-0.5-0.8-0.8-1.2c-0.3-0.4-0.5-0.8-0.8-1.2c0,0,0-0.1-0.1-0.1c0,0,0.1,0,0.1,0c0.9,0.3,1.8,0.6,2.7,0.9
							c0.1,0,0.1,0,0.1,0c0.3-0.4,0.7-0.9,1-1.3c0.3-0.4,0.6-0.7,0.8-1.1c0,0,0,0,0.1-0.1c0,1.1,0,2.1,0,3.2c1,0.3,1.9,0.7,2.9,1
							c-0.1,0-0.2,0.1-0.2,0.1c-0.5,0.2-1.1,0.4-1.6,0.6c-0.3,0.1-0.7,0.2-1,0.4c-0.1,0-0.1,0-0.1,0.1c0,0.5,0,0.9,0,1.4
							c0,0.5,0,1.1,0,1.6c0,0.1,0,0.2,0,0.2c-0.6-0.9-1.2-1.8-1.8-2.6C94.7,79.3,93.6,79.6,92.6,79.9C92.6,80,92.6,80,92.6,79.9z"/>
						<path class="st0" d="M102.4,82.7c0.1-0.1,0.2-0.2,0.2-0.3c0.4-0.5,0.7-1,1.1-1.5c0.2-0.2,0.3-0.5,0.5-0.7c0-0.1,0-0.1,0-0.2
							c-0.3-0.4-0.6-0.8-0.8-1.2c-0.3-0.4-0.6-0.8-0.8-1.2c0,0,0-0.1-0.1-0.1c0,0,0.1,0,0.1,0c0.9,0.3,1.8,0.6,2.7,0.9
							c0.1,0,0.1,0,0.1,0c0.3-0.5,0.7-0.9,1-1.4c0.3-0.4,0.5-0.7,0.8-1.1c0,0,0,0,0.1-0.1c0,1.1,0,2.1,0,3.2c1,0.3,1.9,0.6,2.9,0.9
							c-0.1,0-0.2,0.1-0.2,0.1c-0.5,0.2-1.1,0.4-1.6,0.6c-0.3,0.1-0.7,0.2-1,0.4c-0.1,0-0.1,0-0.1,0.1c0,0.5,0,0.9,0,1.4
							c0,0.5,0,1.1,0,1.6c0,0.1,0,0.2,0,0.2c-0.6-0.9-1.2-1.7-1.8-2.6C104.4,82,103.4,82.3,102.4,82.7
							C102.4,82.7,102.4,82.7,102.4,82.7z"/>
					</g>
				</g>
				<g>
					<g>
						<path class="st0" d="M69.1,57.3c0.1-0.1,0.2-0.2,0.3-0.3c0.4-0.5,0.8-1,1.2-1.4c0.2-0.2,0.4-0.5,0.6-0.7c0-0.1,0-0.1,0-0.2
							c-0.2-0.4-0.5-0.8-0.7-1.3c-0.2-0.4-0.5-0.8-0.7-1.3c0,0,0-0.1-0.1-0.1c0,0,0.1,0,0.1,0c0.9,0.4,1.8,0.7,2.7,1.1
							c0.1,0,0.1,0,0.1,0c0.4-0.4,0.7-0.9,1.1-1.3c0.3-0.3,0.6-0.7,0.9-1c0,0,0,0,0.1-0.1c-0.1,1.1-0.1,2.1-0.2,3.2
							c0.9,0.4,1.9,0.8,2.8,1.2c-0.1,0-0.2,0-0.2,0.1c-0.6,0.2-1.1,0.3-1.7,0.5c-0.4,0.1-0.7,0.2-1.1,0.3C74,56,74,56,74,56.1
							c0,0.5-0.1,0.9-0.1,1.4c0,0.5-0.1,1.1-0.1,1.6c0,0.1,0,0.2,0,0.2c-0.5-0.9-1.1-1.8-1.6-2.7C71.1,56.8,70.1,57.1,69.1,57.3
							C69.1,57.3,69.1,57.3,69.1,57.3z"/>
						<path class="st0" d="M77.5,62.2c0.1-0.1,0.2-0.2,0.3-0.3c0.4-0.5,0.8-1,1.2-1.5c0.2-0.2,0.4-0.5,0.6-0.7c0-0.1,0-0.1,0-0.2
							c-0.3-0.4-0.5-0.8-0.8-1.3c-0.3-0.4-0.5-0.8-0.8-1.2c0,0,0-0.1-0.1-0.1c0,0,0.1,0,0.1,0c0.9,0.3,1.8,0.7,2.7,1
							c0.1,0,0.1,0,0.1,0c0.4-0.4,0.7-0.9,1.1-1.3c0.3-0.4,0.6-0.7,0.9-1.1c0,0,0,0,0.1-0.1c-0.1,1.1-0.1,2.1-0.2,3.2
							c0.9,0.4,1.9,0.7,2.8,1.1c-0.1,0-0.2,0.1-0.2,0.1c-0.6,0.2-1.1,0.3-1.7,0.5c-0.4,0.1-0.7,0.2-1.1,0.3c-0.1,0-0.1,0-0.1,0.1
							c0,0.5-0.1,0.9-0.1,1.4c0,0.5-0.1,1.1-0.1,1.6c0,0.1,0,0.2,0,0.2c-0.5-0.9-1.1-1.8-1.6-2.7C79.5,61.6,78.5,61.9,77.5,62.2
							C77.5,62.2,77.5,62.2,77.5,62.2z"/>
						<path class="st0" d="M86.8,66.3c0.1-0.1,0.2-0.2,0.2-0.3c0.4-0.5,0.8-1,1.1-1.5c0.2-0.2,0.4-0.5,0.6-0.7c0-0.1,0-0.1,0-0.2
							c-0.3-0.4-0.5-0.8-0.8-1.2c-0.3-0.4-0.5-0.8-0.8-1.2c0,0,0-0.1-0.1-0.1c0,0,0.1,0,0.1,0c0.9,0.3,1.8,0.7,2.7,1
							c0.1,0,0.1,0,0.1,0c0.3-0.4,0.7-0.9,1-1.3c0.3-0.4,0.6-0.7,0.9-1.1c0,0,0,0,0.1-0.1c0,1.1-0.1,2.1-0.1,3.2
							c0.9,0.3,1.9,0.7,2.9,1c-0.1,0-0.2,0.1-0.2,0.1c-0.6,0.2-1.1,0.4-1.7,0.5c-0.3,0.1-0.7,0.2-1.1,0.3c-0.1,0-0.1,0-0.1,0.1
							c0,0.5,0,0.9-0.1,1.4c0,0.5-0.1,1.1-0.1,1.6c0,0.1,0,0.2,0,0.2c-0.6-0.9-1.1-1.8-1.7-2.7C88.8,65.7,87.8,66,86.8,66.3
							C86.8,66.3,86.8,66.3,86.8,66.3z"/>
						<path class="st0" d="M96.6,69.7c0.1-0.1,0.2-0.2,0.2-0.3c0.4-0.5,0.7-1,1.1-1.5c0.2-0.2,0.4-0.5,0.5-0.7c0-0.1,0-0.1,0-0.2
							c-0.3-0.4-0.5-0.8-0.8-1.2c-0.3-0.4-0.5-0.8-0.8-1.2c0,0,0-0.1-0.1-0.1c0,0,0.1,0,0.1,0c0.9,0.3,1.8,0.6,2.7,0.9
							c0.1,0,0.1,0,0.1,0c0.3-0.4,0.7-0.9,1-1.3c0.3-0.4,0.6-0.7,0.8-1.1c0,0,0,0,0.1-0.1c0,1.1,0,2.1,0,3.2c1,0.3,1.9,0.7,2.9,1
							c-0.1,0-0.2,0.1-0.2,0.1c-0.6,0.2-1.1,0.4-1.6,0.6c-0.3,0.1-0.7,0.2-1,0.4c-0.1,0-0.1,0-0.1,0.1c0,0.5,0,0.9,0,1.4
							c0,0.5,0,1.1,0,1.6c0,0.1,0,0.2,0,0.2c-0.6-0.9-1.2-1.8-1.8-2.6C98.6,69.1,97.6,69.4,96.6,69.7C96.6,69.7,96.6,69.7,96.6,69.7
							z"/>
						<path class="st0" d="M106.4,72.4c0.1-0.1,0.2-0.2,0.2-0.3c0.4-0.5,0.7-1,1.1-1.5c0.2-0.2,0.3-0.5,0.5-0.7c0-0.1,0-0.1,0-0.2
							c-0.3-0.4-0.6-0.8-0.8-1.2c-0.3-0.4-0.6-0.8-0.8-1.2c0,0,0-0.1-0.1-0.1c0,0,0.1,0,0.1,0c0.9,0.3,1.8,0.6,2.7,0.9
							c0.1,0,0.1,0,0.1,0c0.3-0.5,0.7-0.9,1-1.4c0.3-0.4,0.5-0.7,0.8-1.1c0,0,0,0,0.1-0.1c0,1.1,0,2.1,0,3.2c1,0.3,1.9,0.6,2.9,0.9
							c-0.1,0-0.2,0.1-0.2,0.1c-0.5,0.2-1.1,0.4-1.6,0.6c-0.3,0.1-0.7,0.2-1,0.4c-0.1,0-0.1,0-0.1,0.1c0,0.5,0,0.9,0,1.4
							c0,0.5,0,1.1,0,1.6c0,0.1,0,0.2,0,0.2c-0.6-0.9-1.2-1.7-1.8-2.6C108.4,71.7,107.4,72.1,106.4,72.4
							C106.4,72.4,106.4,72.4,106.4,72.4z"/>
					</g>
				</g>
				<g>
					<g>
						<path class="st0" d="M72.5,47.5c0.1-0.1,0.2-0.2,0.3-0.3c0.4-0.5,0.8-1,1.2-1.4c0.2-0.2,0.4-0.5,0.6-0.7c0-0.1,0-0.1,0-0.2
							c-0.2-0.4-0.5-0.8-0.7-1.3c-0.2-0.4-0.5-0.8-0.7-1.3c0,0,0-0.1-0.1-0.1c0,0,0.1,0,0.1,0c0.9,0.4,1.8,0.7,2.7,1.1
							c0.1,0,0.1,0,0.1,0c0.4-0.4,0.7-0.9,1.1-1.3c0.3-0.3,0.6-0.7,0.9-1c0,0,0,0,0.1-0.1c-0.1,1.1-0.1,2.1-0.2,3.2
							c0.9,0.4,1.9,0.8,2.8,1.2c-0.1,0-0.2,0-0.2,0.1c-0.6,0.2-1.1,0.3-1.7,0.5c-0.4,0.1-0.7,0.2-1.1,0.3c-0.1,0-0.1,0-0.1,0.1
							c0,0.5-0.1,0.9-0.1,1.4c0,0.5-0.1,1.1-0.1,1.6c0,0.1,0,0.2,0,0.2c-0.5-0.9-1.1-1.8-1.6-2.7C74.6,46.9,73.6,47.2,72.5,47.5
							C72.5,47.5,72.5,47.5,72.5,47.5z"/>
						<path class="st0" d="M81,52.3c0.1-0.1,0.2-0.2,0.3-0.3c0.4-0.5,0.8-1,1.2-1.5c0.2-0.2,0.4-0.5,0.6-0.7c0-0.1,0-0.1,0-0.2
							c-0.3-0.4-0.5-0.8-0.8-1.3c-0.3-0.4-0.5-0.8-0.8-1.2c0,0,0-0.1-0.1-0.1c0,0,0.1,0,0.1,0c0.9,0.3,1.8,0.7,2.7,1
							c0.1,0,0.1,0,0.1,0c0.4-0.4,0.7-0.9,1.1-1.3c0.3-0.4,0.6-0.7,0.9-1.1c0,0,0,0,0.1-0.1c-0.1,1.1-0.1,2.1-0.2,3.2
							c0.9,0.4,1.9,0.7,2.8,1.1c-0.1,0-0.2,0.1-0.2,0.1c-0.6,0.2-1.1,0.3-1.7,0.5c-0.4,0.1-0.7,0.2-1.1,0.3c-0.1,0-0.1,0-0.1,0.1
							c0,0.5-0.1,0.9-0.1,1.4c0,0.5-0.1,1.1-0.1,1.6c0,0.1,0,0.2,0,0.2c-0.5-0.9-1.1-1.8-1.6-2.7C83,51.7,82,52,81,52.3
							C81,52.3,81,52.3,81,52.3z"/>
						<path class="st0" d="M90.3,56.4c0.1-0.1,0.2-0.2,0.2-0.3c0.4-0.5,0.8-1,1.1-1.5c0.2-0.2,0.4-0.5,0.6-0.7c0-0.1,0-0.1,0-0.2
							c-0.3-0.4-0.5-0.8-0.8-1.2c-0.3-0.4-0.5-0.8-0.8-1.2c0,0,0-0.1-0.1-0.1c0,0,0.1,0,0.1,0c0.9,0.3,1.8,0.7,2.7,1
							c0.1,0,0.1,0,0.1,0c0.3-0.4,0.7-0.9,1-1.3c0.3-0.4,0.6-0.7,0.9-1.1c0,0,0,0,0.1-0.1c0,1.1-0.1,2.1-0.1,3.2
							c0.9,0.3,1.9,0.7,2.9,1C98.1,54,98.1,54,98,54c-0.6,0.2-1.1,0.4-1.7,0.5c-0.3,0.1-0.7,0.2-1.1,0.3c-0.1,0-0.1,0-0.1,0.1
							c0,0.5,0,0.9-0.1,1.4c0,0.5-0.1,1.1-0.1,1.6c0,0.1,0,0.2,0,0.2c-0.6-0.9-1.1-1.8-1.7-2.7C92.3,55.8,91.3,56.1,90.3,56.4
							C90.3,56.4,90.3,56.4,90.3,56.4z"/>
						<path class="st0" d="M100.1,59.8c0.1-0.1,0.2-0.2,0.2-0.3c0.4-0.5,0.7-1,1.1-1.5c0.2-0.2,0.4-0.5,0.5-0.7c0-0.1,0-0.1,0-0.2
							c-0.3-0.4-0.5-0.8-0.8-1.2c-0.3-0.4-0.5-0.8-0.8-1.2c0,0,0-0.1-0.1-0.1c0,0,0.1,0,0.1,0c0.9,0.3,1.8,0.6,2.7,0.9
							c0.1,0,0.1,0,0.1,0c0.3-0.4,0.7-0.9,1-1.3c0.3-0.4,0.6-0.7,0.8-1.1c0,0,0,0,0.1-0.1c0,1.1,0,2.1,0,3.2c1,0.3,1.9,0.7,2.9,1
							c-0.1,0-0.2,0.1-0.2,0.1c-0.6,0.2-1.1,0.4-1.7,0.6c-0.3,0.1-0.7,0.2-1,0.4c-0.1,0-0.1,0-0.1,0.1c0,0.5,0,0.9,0,1.4
							c0,0.5,0,1.1,0,1.6c0,0.1,0,0.2,0,0.2c-0.6-0.9-1.2-1.8-1.8-2.6C102.1,59.2,101.1,59.5,100.1,59.8
							C100.1,59.9,100.1,59.9,100.1,59.8z"/>
						<path class="st0" d="M109.9,62.6c0.1-0.1,0.2-0.2,0.2-0.3c0.4-0.5,0.7-1,1.1-1.5c0.2-0.2,0.3-0.5,0.5-0.7c0-0.1,0-0.1,0-0.2
							c-0.3-0.4-0.6-0.8-0.8-1.2c-0.3-0.4-0.6-0.8-0.8-1.2c0,0,0-0.1-0.1-0.1c0,0,0.1,0,0.1,0c0.9,0.3,1.8,0.6,2.7,0.9
							c0.1,0,0.1,0,0.1,0c0.3-0.5,0.7-0.9,1-1.4c0.3-0.4,0.5-0.7,0.8-1.1c0,0,0,0,0.1-0.1c0,1.1,0,2.1,0,3.2c1,0.3,1.9,0.6,2.9,0.9
							c-0.1,0-0.2,0.1-0.2,0.1c-0.5,0.2-1.1,0.4-1.6,0.6c-0.3,0.1-0.7,0.2-1,0.4c-0.1,0-0.1,0-0.1,0.1c0,0.5,0,0.9,0,1.4
							c0,0.5,0,1.1,0,1.6c0,0.1,0,0.2,0,0.2c-0.6-0.9-1.2-1.7-1.8-2.6C111.9,61.9,110.9,62.2,109.9,62.6
							C109.9,62.6,109.9,62.6,109.9,62.6z"/>
					</g>
				</g>
			</g>
			<polygon class="st8" points="49.9,97.9 46.2,107.2 52.5,109.7 55.8,101.4 			"/>
		</g>
	</g>
	<rect class="st9" width="200" height="200"/>
</g>
</svg>
