<svg id="Grupo_222" data-name="Grupo 222" xmlns="http://www.w3.org/2000/svg" width="86.113" height="62.628" viewBox="0 0 86.113 62.628">
  <path id="Trazado_200" data-name="Trazado 200" d="M1085.889,1035.3h-1.374a13.733,13.733,0,0,0-6.658-6.564,23.4,23.4,0,0,0-43.94-8.368,16.132,16.132,0,0,0-10.229.225,11.731,11.731,0,0,1,11.317-8.778,1.956,1.956,0,1,0,0-3.913,15.329,15.329,0,0,0-1.653.166,23.413,23.413,0,0,1,44.355-6.192,19.691,19.691,0,0,0-2.737,1.523,1.957,1.957,0,0,0,2.186,3.246,15.658,15.658,0,1,1,8.733,28.654Z" transform="translate(-1015.434 -988.331)" fill="#006581"/>
  <path id="Trazado_201" data-name="Trazado 201" d="M1075.528,1041.459h-43.055a13.7,13.7,0,1,1,0-27.4,13.554,13.554,0,0,1,8.558,3,1.957,1.957,0,1,0,2.447-3.055,17.424,17.424,0,0,0-2.566-1.7,19.454,19.454,0,0,1,36.106,5.815,13.6,13.6,0,0,0-1.49-.149,1.957,1.957,0,0,0,0,3.914,9.785,9.785,0,1,1,0,19.571Z" transform="translate(-1018.773 -978.831)" fill="#006581"/>
</svg>
