<svg xmlns="http://www.w3.org/2000/svg" width="77.147" height="77.147" viewBox="0 0 77.147 77.147">
  <path id="Trazado_205" data-name="Trazado 205" d="M1172.963,1020.974h-8.118a28.764,28.764,0,0,0-7.32-17.649l5.747-5.747A1.607,1.607,0,0,0,1161,995.3l-5.746,5.748a28.764,28.764,0,0,0-17.65-7.32v-8.118a1.607,1.607,0,1,0-3.214,0v8.118a28.764,28.764,0,0,0-17.65,7.32l-5.746-5.748a1.608,1.608,0,0,0-2.274,2.274l5.748,5.747a28.774,28.774,0,0,0-7.32,17.649h-8.118a1.607,1.607,0,1,0,0,3.214h8.118a28.774,28.774,0,0,0,7.32,17.649l-5.748,5.747a1.607,1.607,0,1,0,2.274,2.272l5.746-5.747a28.764,28.764,0,0,0,17.65,7.32v8.118a1.607,1.607,0,1,0,3.214,0v-8.118a28.764,28.764,0,0,0,17.65-7.32l5.746,5.747a1.607,1.607,0,1,0,2.274-2.272l-5.748-5.747a28.765,28.765,0,0,0,7.32-17.649h8.118a1.607,1.607,0,1,0,0-3.214ZM1136,1048.3a25.716,25.716,0,1,1,25.717-25.717A25.716,25.716,0,0,1,1136,1048.3Z" transform="translate(-1097.423 -984.008)" fill="#006581"/>
</svg>