<svg id="Grupo_223" data-name="Grupo 223" xmlns="http://www.w3.org/2000/svg" width="84.401" height="84.402" viewBox="0 0 84.401 84.402">
  <path id="Trazado_202" data-name="Trazado 202" d="M864.131,1028.138a1.744,1.744,0,0,0-1.847.181l-5.471,4.181a5.19,5.19,0,0,0-2.253,4.249,5.275,5.275,0,1,0,10.549,0v-7.034A1.762,1.762,0,0,0,864.131,1028.138Z" transform="translate(-851.044 -957.622)" fill="#006581"/>
  <path id="Trazado_203" data-name="Trazado 203" d="M882.779,1028.138a1.743,1.743,0,0,0-1.847.181l-5.471,4.181a5.188,5.188,0,0,0-2.254,4.249,5.276,5.276,0,0,0,10.551,0v-7.034A1.762,1.762,0,0,0,882.779,1028.138Z" transform="translate(-841.557 -957.622)" fill="#006581"/>
  <path id="Trazado_204" data-name="Trazado 204" d="M934.874,1005.956h-5.365a19.242,19.242,0,0,0-4.4-10.61l3.8-3.8a1.758,1.758,0,0,0-2.485-2.487l-3.8,3.8a19.24,19.24,0,0,0-10.608-4.4V983.1a1.758,1.758,0,0,0-3.517,0v5.416a19.086,19.086,0,0,0-10.549,4.407l-3.858-3.857a1.758,1.758,0,1,0-2.486,2.487l3.867,3.864a19.423,19.423,0,0,0-2.8,4.576,24.261,24.261,0,0,0-7.029-1.068,24.561,24.561,0,0,0-24.427,22.087,14.046,14.046,0,0,0,5.085,27.148h7.114l-1.344,1.026a5.192,5.192,0,0,0-2.253,4.249,5.275,5.275,0,1,0,10.549,0v-5.275h21.185l-1.344,1.027a5.174,5.174,0,0,0-2.257,4.247,5.275,5.275,0,0,0,10.551,0v-5.275h3.517a17.606,17.606,0,0,0,17.583-17.585,17.4,17.4,0,0,0-4.113-11.162,19.141,19.141,0,0,0,3.948-9.938h5.439a1.758,1.758,0,1,0,0-3.515Zm-11.906,10.973a17.408,17.408,0,0,0-10.954-3.941,17.6,17.6,0,0,0-4,.507,24.677,24.677,0,0,0-12.066-12.244,15.724,15.724,0,1,1,27.024,15.678Z" transform="translate(-852.23 -981.339)" fill="#006581"/>
</svg>
