<svg xmlns="http://www.w3.org/2000/svg" width="92.771" height="77.308" viewBox="0 0 92.771 77.308">
  <path id="Trazado_199" data-name="Trazado 199" d="M1035.315,1011.019h-5.9a21.161,21.161,0,0,0-4.835-11.663l4.175-4.172a1.933,1.933,0,1,0-2.734-2.734l-4.175,4.171a21.153,21.153,0,0,0-11.659-4.833v-5.9a1.934,1.934,0,0,0-3.867,0v5.978a21.042,21.042,0,0,0-11.6,4.811l-4.234-4.23a1.933,1.933,0,0,0-2.734,2.732l4.239,4.235a21.176,21.176,0,0,0-4.245,8.626,26.526,26.526,0,0,0-6.549-.893,27,27,0,0,0-26.85,24.278,15.438,15.438,0,0,0,5.589,29.838h50.251a19.269,19.269,0,0,0,13.124-33.431,21.07,21.07,0,0,0,6.094-12.952h5.908a1.933,1.933,0,1,0,0-3.866Zm-15.146,14.457a18.469,18.469,0,0,0-14.38-2.3,27.118,27.118,0,0,0-14.368-13.906,17.3,17.3,0,1,1,28.748,16.21Z" transform="translate(-944.477 -983.96)" fill="#006581"/>
</svg>
