<?xml version="1.0" encoding="utf-8"?>
<!-- Generator: Adobe Illustrator 25.4.1, SVG Export Plug-In . SVG Version: 6.00 Build 0)  -->
<svg version="1.1" id="Capa_1" xmlns="http://www.w3.org/2000/svg" xmlns:xlink="http://www.w3.org/1999/xlink" x="0px" y="0px"
	 viewBox="0 0 11.1 18.2" style="enable-background:new 0 0 11.1 18.2;" xml:space="preserve">
<style type="text/css">
	.st0{fill:#006581;}
</style>
<circle class="st0" cx="7.4" cy="1.5" r="1.5"/>
<path class="st0" d="M6.7,3.5V4c0,0.1,0.1,0.1,0.1,0.1c0,0,0,0,0,0l0.6-0.2l0.6,0.2c0.1,0,0.1,0,0.2-0.1c0,0,0,0,0,0V3.5
	c0-0.1-0.1-0.1-0.1-0.1c0,0,0,0,0,0L7.5,3.6L6.9,3.4C6.8,3.3,6.7,3.4,6.7,3.5C6.7,3.5,6.7,3.5,6.7,3.5z"/>
<path class="st0" d="M0.6,6.3c-0.1,0-0.2,0.1-0.2,0.2c0,0,0,0.1,0,0.1H0.4C0.2,6.6,0,6.7,0,6.9c0,0.2,0.1,0.4,0.3,0.4c0,0,0,0,0,0H3
	c0.2,0,0.4-0.1,0.4-0.3c0-0.2-0.1-0.4-0.3-0.4c0,0-0.1,0-0.1,0l0,0c0,0,0-0.1,0-0.1c0-0.1-0.1-0.2-0.2-0.2H2.6V5.5
	C2.9,5.4,3,5.2,3,4.9V3.9c0-0.1-0.1-0.2-0.2-0.2c0,0,0,0,0,0H2c-0.1,0-0.2,0.1-0.2,0.2l0,0v1.1c0,0.2,0.1,0.4,0.4,0.5v0.8H2.1
	C2,6.3,1.9,6.4,1.9,6.5c0,0,0,0.1,0,0.1H1.5c0,0,0-0.1,0-0.1c0-0.1-0.1-0.2-0.2-0.2H1.2V5.5c0.2-0.1,0.4-0.3,0.4-0.5V3.9
	c0-0.1-0.1-0.2-0.2-0.2l0,0H0.6c-0.1,0-0.2,0.1-0.2,0.2l0,0v1.1c0,0.2,0.1,0.4,0.4,0.5v0.8H0.6z"/>
<path class="st0" d="M3,7.7H1.4c0,0,0,0,0,0.1c0,0.4,0.3,0.7,0.7,0.7h2.4c0.4,0,0.7-0.3,0.7-0.7v0V5.2c0-0.1,0.1-0.3,0.3-0.3v12.4
	c0,0.5,0.4,0.9,0.9,0.9c0.5,0,0.9-0.4,0.9-0.9v-6.9h0.4v6.9c0,0.5,0.4,0.9,0.9,0.9c0.5,0,0.9-0.4,0.9-0.9c0-0.3,0-7.7,0-8.9h1
	c0.4,0,0.7-0.3,0.7-0.7v0V5.2l0,0c0-0.9-0.8-1.7-1.7-1.7H8.5c-0.1,0.3-0.4,1.9-1,1.9s-1-1.6-1-1.9h-1c-0.9,0-1.7,0.8-1.7,1.7l0,0
	v1.7c0.1,0.4-0.2,0.8-0.6,0.8C3.1,7.7,3,7.7,3,7.7z M9.4,4.9c0.2,0,0.3,0.1,0.3,0.3V7H9.4V4.9z"/>
</svg>
