<?xml version="1.0" encoding="utf-8"?>
<!-- Generator: Adobe Illustrator 25.4.1, SVG Export Plug-In . SVG Version: 6.00 Build 0)  -->
<svg version="1.1" id="Capa_1" xmlns="http://www.w3.org/2000/svg" xmlns:xlink="http://www.w3.org/1999/xlink" x="0px" y="0px"
	 viewBox="0 0 22.2 19.2" style="enable-background:new 0 0 22.2 19.2;" xml:space="preserve">
<style type="text/css">
	.st0{fill:#006581;}
</style>
<path class="st0" d="M19.7,7.3l-1.9-3.6l0.8-0.4l-1.6-3c-0.2-0.3-0.5-0.4-0.8-0.2L0.3,8.5C0,8.6-0.1,9,0.1,9.3l1.6,3l0.8-0.4
	l1.9,3.6l-0.8,0.4l1.6,3c0.2,0.3,0.5,0.4,0.8,0.2l15.9-8.4c0.3-0.2,0.4-0.5,0.2-0.8l-1.6-3L19.7,7.3z M20.4,10.3L6.4,17.6L1.8,8.9
	l13.9-7.4L20.4,10.3z"/>
</svg>
