<?xml version="1.0" encoding="utf-8"?>
<!-- Generator: Adobe Illustrator 25.4.1, SVG Export Plug-In . SVG Version: 6.00 Build 0)  -->
<svg version="1.1" id="Capa_1" xmlns="http://www.w3.org/2000/svg" xmlns:xlink="http://www.w3.org/1999/xlink" x="0px" y="0px"
	 viewBox="0 0 25.9 20.2" style="enable-background:new 0 0 25.9 20.2;" xml:space="preserve">
<style type="text/css">
	.st0{fill:#006581;}
</style>
<path class="st0" d="M13.9,20.2H0.3c0,0-1.1-3.4,0.7-5.8c1.1-1.6,3.1-2.3,5-1.8c1.9,0.5,4.1,0.7,5.9-0.2c0.2-0.1,0.4,0,0.5,0.1
	c0,0.1,0.1,0.2,0,0.2c-0.2,1.5-0.4,4.6,1.8,6.6c0.2,0.2,0.2,0.5,0.1,0.7C14.2,20.2,14.1,20.2,13.9,20.2z"/>
<circle class="st0" cx="8.6" cy="4.8" r="4.8"/>
<path class="st0" d="M20.2,8.8c-3.1,0-5.6,2.5-5.6,5.6s2.5,5.6,5.6,5.6s5.6-2.5,5.6-5.6S23.3,8.8,20.2,8.8
	C20.2,8.8,20.2,8.8,20.2,8.8z M22.5,15.4h-2.3c-0.3,0-0.5-0.2-0.5-0.5v-3.1c0-0.3,0.2-0.5,0.5-0.5s0.5,0.2,0.5,0.5v2.6h1.8
	c0.3,0,0.5,0.2,0.5,0.5S22.8,15.4,22.5,15.4z"/>
</svg>
