<?xml version="1.0" encoding="utf-8"?>
<!-- Generator: Adobe Illustrator 25.4.1, SVG Export Plug-In . SVG Version: 6.00 Build 0)  -->
<svg version="1.1" id="Capa_1" xmlns="http://www.w3.org/2000/svg" xmlns:xlink="http://www.w3.org/1999/xlink" x="0px" y="0px"
	 viewBox="0 0 14.6 14.6" style="enable-background:new 0 0 14.6 14.6;" xml:space="preserve">
<style type="text/css">
	.st0{fill:#006581;}
</style>
<path class="st0" d="M11.9,0c-1.4,0-2.5,1-2.7,2.4H2.9L1.4,0.3C1.3,0.2,1.1,0.1,1,0.2S0.8,0.4,0.8,0.6c0,0,0,0.1,0.1,0.1l1.3,1.8
	H0.3C0.1,2.4,0,2.5,0,2.7c0,0.1,0,0.2,0.1,0.2l2.2,2.2l0,0l1.8,1.8l0.6,1.4c0.1,0.4,0.5,0.6,0.8,0.6h0.3v3.3l-2.5,1.9
	c-0.1,0.1-0.2,0.3-0.1,0.4c0.1,0.1,0.1,0.1,0.2,0.1h5.2c0.2,0,0.3-0.1,0.3-0.3c0-0.1,0-0.2-0.1-0.2l-2.5-1.9V8.9h0.3
	c0.4,0,0.7-0.2,0.8-0.6l0.6-1.3l1.8-1.8l0,0l0.3-0.3c1.2,0.9,2.8,0.7,3.8-0.4c0.9-1.2,0.7-2.8-0.4-3.8C13.1,0.2,12.5,0,11.9,0z
	 M10.2,1.4l1,1H9.8C9.9,2,10,1.7,10.2,1.4z M2.7,4.6L1,3h1.6l1.2,1.6l0,0C3.4,4.8,3,4.8,2.7,4.6z M7.8,14H4.3l1.8-1.3L7.8,14z M7,8
	C6.9,8.2,6.9,8.2,6.7,8.2H5.5c-0.2,0-0.2,0-0.3-0.2L4.8,7h2.6L7,8z M7.7,6.4H4.5L3.3,5.3c0.3,0,0.5-0.1,0.7-0.2
	c0.4-0.2,0.8-0.2,1.2,0c0.6,0.3,1.2,0.3,1.8,0c0.4-0.2,0.8-0.2,1.1,0c0.2,0.1,0.5,0.2,0.7,0.2L7.7,6.4z M9.6,4.6
	c-0.4,0.2-0.8,0.2-1.1,0c-0.5-0.3-1.2-0.3-1.8,0c-0.4,0.2-0.8,0.2-1.2,0C5.2,4.4,4.8,4.4,4.4,4.4L3.3,3h7.9L9.6,4.6z M11.6,4.8
	c-0.4,0-0.7-0.2-1-0.4l1-1V4.8z M11.6,2l-1-1c0.3-0.2,0.6-0.4,1-0.4V2z M14,2.4h-1.4l1-1C13.8,1.7,14,2,14,2.4z M12.2,0.6
	c0.4,0,0.7,0.2,1,0.4l-1,1V0.6z M12.2,4.8V3.4l1,1C12.9,4.6,12.6,4.7,12.2,4.8z M13.6,4l-1-1H14C14,3.4,13.8,3.7,13.6,4z"/>
</svg>
