<?xml version="1.0" encoding="utf-8"?>
<!-- Generator: Adobe Illustrator 25.4.1, SVG Export Plug-In . SVG Version: 6.00 Build 0)  -->
<svg version="1.1" id="Capa_1" xmlns="http://www.w3.org/2000/svg" xmlns:xlink="http://www.w3.org/1999/xlink" x="0px" y="0px"
	 viewBox="0 0 16.8 16.8" style="enable-background:new 0 0 16.8 16.8;" xml:space="preserve">
<style type="text/css">
	.st0{fill:#006581;}
</style>
<path class="st0" d="M15.7,11.4c0.2,0,0.4,0.2,0.4,0.5c0,0.2-0.2,0.4-0.4,0.4h-3c-0.2,0-0.4-0.2-0.4-0.5c0-0.2,0.2-0.4,0.4-0.4H15.7
	z"/>
<circle class="st0" cx="12.3" cy="9.3" r="1.5"/>
<circle class="st0" cx="1.8" cy="1.5" r="1.5"/>
<path class="st0" d="M0.3,4.6c0-0.6,0.4-1,1-1h1.5c0.2,0,0.4,0.1,0.6,0.2l4.5,3.8c0.2,0.1,0.3,0.4,0.1,0.6C7.9,8.4,7.7,8.4,7.5,8.3
	c0,0-0.1,0-0.1-0.1l-3-2.5C4.3,5.6,4.1,5.6,4,5.8C3.9,5.8,3.9,5.9,3.9,6v2.4H0.3V4.6z"/>
<rect y="9" class="st0" width="2.4" height="3.3"/>
<path class="st0" d="M16.2,16.8H0v-3.9h9.2l1.7,1.4c0.1,0,0.1,0.1,0.2,0.1h5.1V16.8L16.2,16.8z"/>
<path class="st0" d="M16.3,13.8h-5.1l-1.7-1.4c-0.1,0-0.1-0.1-0.2-0.1H3V9h6c0.6,0,1.1,0.4,1.2,1l-0.3,1c0,0.1,0,0.2,0.1,0.3
	l1.5,1.5c0.1,0.1,0.1,0.1,0.2,0.1h4.6c0.2,0,0.5,0.2,0.5,0.4C16.8,13.6,16.6,13.8,16.3,13.8C16.3,13.8,16.3,13.8,16.3,13.8
	L16.3,13.8z"/>
</svg>
