<?xml version="1.0" encoding="utf-8"?>
<!-- Generator: Adobe Illustrator 25.4.1, SVG Export Plug-In . SVG Version: 6.00 Build 0)  -->
<svg version="1.1" id="Capa_1" xmlns="http://www.w3.org/2000/svg" xmlns:xlink="http://www.w3.org/1999/xlink" x="0px" y="0px"
	 viewBox="0 0 22.3 12.6" style="enable-background:new 0 0 22.3 12.6;" xml:space="preserve">
<style type="text/css">
	.st0{fill:#006581;}
</style>
<path class="st0" d="M20.2,4l-2.5-3.4C17.4,0.2,16.9,0,16.5,0h-15C0.7,0,0,0.6,0,1.4c0,0,0,0,0,0v8.7c0,0.3,0.2,0.5,0.5,0.5h2
	c0.3,1.3,1.6,2.1,2.9,1.9c0.9-0.2,1.7-0.9,1.9-1.9h7.9c0.3,1.3,1.6,2.1,2.9,1.9c0.9-0.2,1.7-0.9,1.9-1.9h2c0.3,0,0.5-0.2,0.5-0.5
	V7.8C22.5,6.2,21.7,4.7,20.2,4z M2.4,3.9V2.4h3.4v1.5H2.4z M4.9,11.6c-0.8,0-1.5-0.7-1.5-1.5s0.7-1.5,1.5-1.5s1.5,0.7,1.5,1.5l0,0
	C6.3,11,5.7,11.6,4.9,11.6C4.9,11.6,4.9,11.6,4.9,11.6L4.9,11.6z M11.2,3.9H6.8V2.4h4.4L11.2,3.9z M13.6,4.2V2.1h3.2l1.3,2.2
	L13.6,4.2z M17.5,11.6c-0.8,0-1.5-0.7-1.5-1.5s0.7-1.5,1.5-1.5s1.5,0.7,1.5,1.5v0C18.9,11,18.3,11.6,17.5,11.6
	C17.5,11.6,17.5,11.6,17.5,11.6L17.5,11.6z"/>
</svg>
