<svg id="Capa_1" data-name="Capa 1" xmlns="http://www.w3.org/2000/svg" viewBox="0 0 33.8 34.07"><defs><style>.cls-1{fill:#00658e;}.cls-2{fill:#fff;}</style></defs><title>AM_Iconos</title><path class="cls-1" d="M33.8,17.59c-.1-.27-.57-.11-.46-.12C33.31,17.62,33.73,17.57,33.8,17.59Z"/><polygon class="cls-1" points="32.35 15.08 31.88 14.8 32.17 15.06 32.35 15.08"/><path class="cls-1" d="M31.71,14.17l.61.05c-.21-.47-.74-1-.64-1.37-.62.41.32.76.17,1.22Z"/><path class="cls-1" d="M32.72,11.46l0-.08a1.08,1.08,0,0,1-.07-.24C32.47,11.32,32.38,11,32.72,11.46Z"/><path class="cls-1" d="M32.77,11.38c.11.24.16-.25,0,0Z"/><path class="cls-1" d="M32.7,10.17c-.28-.27-.39-.13-.55.17l.37.21C32.65,10.41,32.55,10.12,32.7,10.17Z"/><path class="cls-1" d="M31.55,10.27l.17.11C31.76,10.33,31.77,10.27,31.55,10.27Z"/><path class="cls-1" d="M31.86,10.5c-.2.06,0,0,.22.12l-.36-.24C31.63,10.48,31.42,10.58,31.86,10.5Z"/><path class="cls-1" d="M32.07,10.86c-.06.23-.07.49-.42.28C32,11.68,32.41,11.42,32.07,10.86Z"/><path class="cls-1" d="M30.94,13c0,.09-.08.18-.13.27l.28.12C31,13.3,31.15,12.88,30.94,13Z"/><path class="cls-1" d="M31.3,8.83c0-.16,0-.43.16-.56-.14.06-.28.31-.44.44Z"/><path class="cls-1" d="M31,8.71l-.41-.18C30.75,8.83,30.88,8.81,31,8.71Z"/><polygon class="cls-1" points="30.75 10.47 30.81 10.57 31.56 10.86 30.75 10.47"/><polygon class="cls-1" points="30.63 7.05 31.05 7.01 30.39 7.02 30.63 7.05"/><path class="cls-1" d="M30,6.31c.33-.06.23-.49.48-.47a1.46,1.46,0,0,0-.87-.18C29.83,5.74,30,5.94,30,6.31Z"/><path class="cls-1" d="M29.12,5.63a2.23,2.23,0,0,0,.47,0A1,1,0,0,0,29.12,5.63Z"/><path class="cls-1" d="M30.24,7.85l.08.12a.62.62,0,0,0,.18-.49Z"/><path class="cls-1" d="M30.23,7.86h0l-.17-.27Z"/><path class="cls-1" d="M30.34,8l0,0S30.28,8,30.34,8Z"/><path class="cls-1" d="M30.72,9.57c-.32-.07-.75-.29-.86.24C30.19,9.79,30.25,9.48,30.72,9.57Z"/><path class="cls-1" d="M30.12,8.82c.09-.07.19-.22.35-.19L30,8.44C30.05,8.56,30.08,8.69,30.12,8.82Z"/><polygon class="cls-1" points="29.78 8.37 30 8.44 29.95 8.31 29.78 8.37"/><path class="cls-1" d="M29.29,6.41a.82.82,0,0,1-.55-.26,1.93,1.93,0,0,0,.35.58C29.22,6.66,29.46,6.58,29.29,6.41Z"/><path class="cls-1" d="M29.74,7.13h0S29.68,7.17,29.74,7.13Z"/><path class="cls-1" d="M27.26,4.73l0,.08.05-.05Z"/><path class="cls-1" d="M29.06,6.81c0,.18.19.18.36.17a1.35,1.35,0,0,1-.32-.25C29,6.76,29,6.78,29.06,6.81Z"/><path class="cls-1" d="M28.57,5.35a3.34,3.34,0,0,0,0,.37C28.66,5.56,28.68,5.29,28.57,5.35Z"/><path class="cls-1" d="M29.75,7h0C29.82,6.9,29.79,6.93,29.75,7Z"/><path class="cls-1" d="M29.75,7a1,1,0,0,0-.34,0,.93.93,0,0,0,.28.13A.59.59,0,0,1,29.75,7Z"/><path class="cls-1" d="M27.75,5.34l.15.07a1.56,1.56,0,0,1-.05-.77.63.63,0,0,0-.56.13l.54.56Z"/><path class="cls-1" d="M28.42,5.89c-.39.2-.79.1-.95.58.33.28.47,0,.79,0-.57-.46.32,0,.13-.57a1.21,1.21,0,0,1,.35.22,2.33,2.33,0,0,1-.12-.42v0h0c0,.06,0,.09,0,0h0l-.14.09c-.08-.22.06-.1.14-.09l.05,0h0c-.22-.13-.48-.24-.71-.35C28,5.56,28.14,5.67,28.42,5.89Z"/><path class="cls-1" d="M28.89,10A.21.21,0,0,1,29,9.91C28.89,9.9,28.85,9.91,28.89,10Z"/><path class="cls-1" d="M29,9.61c.08,0,.24,0,.29.11s-.18.11-.29.19c.14,0,.44.12.46-.24h-.07a2,2,0,0,1,.25-.83A4.67,4.67,0,0,0,29,9.61Z"/><path class="cls-1" d="M29.59,8.83l.07-.08S29.62,8.78,29.59,8.83Z"/><path class="cls-1" d="M28.09,8l.16-.15c.14.3.3.08.46,0a5.25,5.25,0,0,0-.54-.31Z"/><path class="cls-1" d="M27.7,4.23c-.23.08-.47.18-.7.27l.34,0Z"/><polygon class="cls-1" points="26.91 3.77 26.6 3.83 26.65 4.07 26.91 3.77"/><path class="cls-1" d="M7,3.14l.31.32a.43.43,0,0,1,.42-.18C7.27,3.1,6.68,2.79,7,3.14Z"/><path class="cls-1" d="M18.93,1A1.26,1.26,0,0,0,18.39.7C18.64,1,18.81,1.39,18.93,1Z"/><path class="cls-1" d="M2,25.59a.32.32,0,0,0,.31,0C2.21,25.53,2.11,25.52,2,25.59Z"/><path class="cls-1" d="M18.39.7c-.19-.21-.43-.33-.68,0l.12.11A.91.91,0,0,1,18.39.7Z"/><path class="cls-1" d="M32.65,19.75a1.24,1.24,0,0,1,0,.31C32.68,20,32.69,19.92,32.65,19.75Z"/><path class="cls-1" d="M23.91,2.19c.17.05,0,0,0,0Z"/><path class="cls-1" d="M23.71,4.23a.49.49,0,0,1,.16-.16A.39.39,0,0,0,23.71,4.23Z"/><path class="cls-1" d="M24.06,2.48a.79.79,0,0,0-.14-.21A.88.88,0,0,0,24.06,2.48Z"/><path class="cls-1" d="M24.12,2.28l.12.1C24.29,2.33,24.3,2.28,24.12,2.28Z"/><path class="cls-1" d="M23.68,2.1a.71.71,0,0,1,.24.16s0-.07,0-.08Z"/><path class="cls-1" d="M32.64,20.06c-.1.14-.43-.07-.67-.08.26-.27.54-.54.78-.83-.65-.23,0-1-.62-1.13l.1.29a1.79,1.79,0,0,0-1.37.09c0-.27,0-.54,0-.82A14.3,14.3,0,0,0,26.36,7.13a.07.07,0,0,0,.05,0L26.56,7c-.14-.11-.32-.09-.3.06L25.9,6.7c.43-.06,1.12-1.13,1.34-1.89-.12.13-.22.24-.66.2,0,.24.29.91-.17,1-.47-.15-.21-.34-.26-.66C26,5.78,25.4,5.61,25,6a14.33,14.33,0,0,0-2.28-1.37.24.24,0,0,0,.07-.17l-.26,0c0-.5.69-.33.48-.66.44-.11,1.06-.39,1.37.1l-.23.58c.08-.16-.1-.49-.31-.39.32-.13.23,1.11.84.54l-.08-.55c.46-.07,1.24-.39,1.51.07.17-.62-.12,0,0-.79-.23.89-1-.68-1.12.35.12-.88-.32-.63-.41-1.45-.08.19,0,.41-.35.15a.93.93,0,0,1-.16.12l0,0v0s0,0,0,0a.65.65,0,0,1,0,.36c-.39.33-.94,0-1.22.18-.17-.19.18-.17.15-.42l-.43.21c.15-.42-.32-.91.32-1l-.48-.2c-.2-.34-.57-.59-.88-.48-.21-.16-.73.32-.43,0l-.85.07,0-.11a3.17,3.17,0,0,0-1.24,0A1.5,1.5,0,0,1,17.83.76a1.31,1.31,0,0,1-1,.08L16.76.44C16.42.56,15.7.09,15.56.5A.84.84,0,0,0,14.44.06,4.42,4.42,0,0,1,13.2.36l.07.5a2.72,2.72,0,0,0-1.22.62l.15.42c-.31.44-1.14,0-1.79.31,0-.18.16-.2.32-.14-.57-.34-.93,0-1.22.4s-.55.77-1,.64a.3.3,0,0,1-.39.23.07.07,0,0,0,0,0L8,3.34a3.42,3.42,0,0,0-.35-.07A1,1,0,0,0,8,3.37a1.49,1.49,0,0,0-.4.45l-.34-.36,0,0c-.28,0,0,.28.28.52a1,1,0,0,0-.06.4c-.58-.53-.28.53-1,0,.07.2-.1.42-.22.68A.91.91,0,0,0,6.34,6C6.26,6,6.18,6,6.26,5.89,6,6,5.79,6,5.81,6.36L5.31,6c.06.31.14.62.23.93-.46,0-.72-.09-.85-.64,0,1-.21.63-.07,1.55l-.29-.27c-.12.19.09.79-.25.69-.95-.07-1.44,1.92-2.57,2.81,1.16.22-.72.36.11.75-.28,0-.49.09-.64-.2,0,.72-.79.83-.16,1.5-.29,0-.35-.25-.53-.23,0,.07.18.28,0,.3S.1,13,0,12.89c-.14.71.68,1,1.44,1.2-.46.23-.44.42,0,.75-.27.06-.57.21-.6-.21-.07.21-.6,1.36,0,1.45-.17.06-.06.32,0,.38A3.74,3.74,0,0,0,.87,17.5L1,17.36c.75.2.17.41.28.81H1.18c-.5,1,.26.37-.27,1.33l.47-.11c1-.06-.49.86,0,1.34l.24-.24C2,20.68.42,21.57.38,21.93c-.07.09-.17-.07-.25-.14-.38,1,.63-.06.92.48-.29.21-.87.11-.81.53-.18.3,1.42.75,1,1.49.19-.22.38-.42.67-.26s-.4,1.47.52,1.41a.35.35,0,0,1-.14.16c.35.17.84.71,1.31.62-.62.58-.14.87.3,1.1s.88.38.31.87l.72.67-.13.09c.37.53.81.4,1.21.27,0,.17-.14.21-.2.26.46.85.63.85,1.67.68l-.23.45c.29-.11.69,1.4,1.78,1.33a.39.39,0,0,1-.19.15c.6,0,1,.55,1.42.93s.88.57,1.33-.23a7.75,7.75,0,0,0,.75-.25c-.76-.34.33-.72.09-1.09.31,0,.63.73.24.72l0-.1c-.38.87.9.59.76,1.19a21.82,21.82,0,0,0,4.92.72l-.26-.71.54,0c.16.15.27.54-.13.57.27.38.62-.44.59-.6.81.17-.16.89.07.87l.32-.1-.09-.07c.21-.35.18-.63.64-.71.32.07.25.4.37.4s.06.06.18,0l.71-.12L20.89,33c.22-.35.63-.14.14-.68.36.42,1,.28,1.59.07s1.07-.59,1.27-.51a1.65,1.65,0,0,1,1-1c-.17,0-.58-.55-.17-.7.61,1.22,1,0,1.85.58-.33-.15-.09-.38.11-.62s.31-.51-.16-.69c.34-.16.34.37.76.41.32-1,1.7-1.15,2.28-2.19-.13-.12-.45-.14-.52-.49l1.06,0c.06-.24-.7-.73,0-.74-.15,0-.38-.08-.35-.24a5,5,0,0,0,1.65-2.85A15.54,15.54,0,0,1,32,21.77a5.84,5.84,0,0,1,1-1.52C32.62,20.5,32.62,20.29,32.64,20.06ZM25.86,6.67l-.43-.35A.32.32,0,0,1,25.86,6.67Zm-.51-.44,0,0,0,0ZM22,1.82l0,0C21.77,1.57,21.84,1.67,22,1.82Zm-2.5.44c.62-.1.13.59.26.48,1,.42,1.3-1.23,2-.33.17.63-.34,1-.39,1.41-.48,0-.54-.55-.86-.6l.29.34c-.19.14-.51.19-.62,0a.38.38,0,0,0,.12.17,14.26,14.26,0,0,0-2-.4A2.2,2.2,0,0,1,19.49,2.27Zm-3.54.56a1.09,1.09,0,0,0,.09.43l-.43,0A1.12,1.12,0,0,1,15.95,2.83Zm-2,.41a.84.84,0,0,1,.09.22l-.52.09L13.4,2.8l.1.76-.5.13a5.62,5.62,0,0,1-.23-1.33A3.91,3.91,0,0,1,14,3.24Zm-4,0,.25.24a6,6,0,0,1,.33-.55c0,.39,0,1,0,1.6-.24.11-.48.22-.71.34A2.73,2.73,0,0,1,10,3.26ZM6.23,7.63,6,7.9c-.14-.29-.28-.58-.4-.88A5.84,5.84,0,0,0,6.23,7.63ZM2,15a5.54,5.54,0,0,1-.22-.68c.12-.05.32.06.56.21l-.12-.14a.48.48,0,0,1,.36,0c0,.09-.05.18-.07.28l-.16-.1.14.17s0,.09,0,.13A3.6,3.6,0,0,0,2,15ZM20.45,33.39l-.14-.1C20.52,33.1,20.48,33.24,20.45,33.39Z"/><path class="cls-1" d="M25.44,3.1c.05-.1.07-.28.18-.22l-.39-.09C25.4,2.86,25.41,3,25.44,3.1Z"/><path class="cls-1" d="M25.06,4.41c-.2.36.07.34.3.43l0,0C25.71,4.39,25.39,4.38,25.06,4.41Z"/><path class="cls-1" d="M25.42,4.86A.44.44,0,0,1,25.6,5C25.76,4.82,25.56,4.89,25.42,4.86Z"/><path class="cls-1" d="M23.25,2.24c.07.15.28-.44.28-.26C23.87,1.57,22.52,2.21,23.25,2.24Z"/><polygon class="cls-1" points="24.7 5.17 24.37 5.44 24.49 5.63 24.7 5.17"/><path class="cls-1" d="M23.11,4.42l.27.28a.19.19,0,0,1,.17-.11C23.35,4.48,23.17,4.28,23.11,4.42Z"/><path class="cls-1" d="M23.85,4.67a.61.61,0,0,0-.3-.08A.34.34,0,0,0,23.85,4.67Z"/><path class="cls-1" d="M19.15,3.36c.11-.1.28-.15.25-.32L19,3.12C18.9,3.29,19,3.41,19.15,3.36Z"/><polygon class="cls-1" points="33.31 18.55 33.54 18.21 33.19 18.42 33.31 18.55"/><path class="cls-1" d="M32.59,17.87l.65-.07-.58-.21C32.69,17.67,32.74,17.81,32.59,17.87Z"/><path class="cls-2" d="M25.35,15.51A2.53,2.53,0,1,1,27.88,13,2.53,2.53,0,0,1,25.35,15.51Zm0-4.06A1.53,1.53,0,1,0,26.88,13,1.53,1.53,0,0,0,25.35,11.44Z"/><path class="cls-2" d="M23.32,9.83A1.73,1.73,0,1,1,25,8.1,1.73,1.73,0,0,1,23.32,9.83Zm0-2.46A.73.73,0,1,0,24,8.1.73.73,0,0,0,23.32,7.37Z"/><path class="cls-2" d="M25.27,23H19.8a.5.5,0,0,1,0-1h5.47a.5.5,0,0,1,0,1Z"/><path class="cls-2" d="M23.31,25.44H20a.5.5,0,0,1,0-1h3.28a.5.5,0,0,1,0,1Z"/><path class="cls-2" d="M14.42,14.55l-.14,0a.5.5,0,0,1-.35-.62l1.49-5.26a.5.5,0,0,1,1,.27L14.9,14.19A.5.5,0,0,1,14.42,14.55Z"/><path class="cls-2" d="M16.86,15l-.14,0a.5.5,0,0,1-.35-.62l.89-3.16a.5.5,0,1,1,1,.27l-.89,3.16A.5.5,0,0,1,16.86,15Z"/><path class="cls-2" d="M21.06,27.92a61.29,61.29,0,0,1-7.85-.44,4.29,4.29,0,0,1-2-.74.5.5,0,0,1-.14-.66A2.24,2.24,0,0,0,10,22.83a.5.5,0,0,1-.32-.46c0-.4,0-.8,0-1.2s0-.79,0-1.17a4.62,4.62,0,0,1,3.12-4.36h0a6.45,6.45,0,0,1,1.48-.38l4.36-.7h0a1.75,1.75,0,0,1,1.8,1.73,2,2,0,0,1-.15.74l4.88,0a1.74,1.74,0,0,1,1.5,2.61,1.74,1.74,0,0,1,0,3.24,1.74,1.74,0,0,1-1.51,2.59h-.38a1.74,1.74,0,0,1-1.57,2.47H21.06Zm-8.85-1.77a3.7,3.7,0,0,0,1.15.34,69.11,69.11,0,0,0,9,.42h.94a.74.74,0,1,0,0-1.47.5.5,0,0,1,0-1h2a.74.74,0,0,0,0-1.47.5.5,0,0,1,0-1h.88a.74.74,0,1,0,0-1.47H19.84a.5.5,0,0,1,0-1l5.43,0a.74.74,0,0,0,0-1.47l-5.88,0h0a.5.5,0,0,1-.25-.93,1.1,1.1,0,0,0,.39-.81.74.74,0,0,0-.74-.74l-4.28.69a5.39,5.39,0,0,0-1.29.33l-.08,0A3.61,3.61,0,0,0,10.74,20c0,.39,0,.8,0,1.2s0,.57,0,.86a3.23,3.23,0,0,1,1.51,4.11Z"/><path class="cls-2" d="M11.27,23.63a.5.5,0,0,1-.38-.17,2.19,2.19,0,0,0-2.18-.73.49.49,0,0,1-.34,0A4.72,4.72,0,0,1,6,18.86a6.41,6.41,0,0,1,0-1.54l.52-4.38a1.75,1.75,0,0,1,2.16-1.28,2.06,2.06,0,0,1,.67.34l1.32-4.7a1.74,1.74,0,0,1,2.92-.74,1.74,1.74,0,0,1,3.12.88,1.71,1.71,0,0,1,.88,0,1.74,1.74,0,0,1,1.2,2.15l-.1.37a1.74,1.74,0,0,1,2,2.19l-.25.89s-.23.87-.6,2.14a.5.5,0,1,1-1-.28c.37-1.25.59-2.11.59-2.12l.25-.9a.74.74,0,1,0-1.42-.4.5.5,0,0,1-1-.27l.53-1.88a.74.74,0,1,0-1.42-.4.5.5,0,0,1-1-.27h0l.24-.84a.74.74,0,1,0-1.42-.4l-1.72,6.07a.49.49,0,0,1-.62.35.5.5,0,0,1-.35-.61L13,8a.74.74,0,0,0-1.42-.4L10,13.23a.5.5,0,0,1-1,0,1.09,1.09,0,0,0-.67-.6.73.73,0,0,0-.91.51L7,17.44a5.5,5.5,0,0,0,0,1.34.52.52,0,0,1,0,.07,3.71,3.71,0,0,0,1.73,2.86,3.21,3.21,0,0,1,3,1.09.5.5,0,0,1-.38.83Z"/><path class="cls-2" d="M9.19,28.21a3.27,3.27,0,1,1,3.27-3.27A3.27,3.27,0,0,1,9.19,28.21Zm0-5.53a2.27,2.27,0,1,0,2.27,2.27A2.27,2.27,0,0,0,9.19,22.67Z"/></svg>