<?xml version="1.0" encoding="utf-8"?>
<!-- Generator: Adobe Illustrator 25.4.1, SVG Export Plug-In . SVG Version: 6.00 Build 0)  -->
<svg version="1.1" id="Capa_1" xmlns="http://www.w3.org/2000/svg" xmlns:xlink="http://www.w3.org/1999/xlink" x="0px" y="0px"
	 viewBox="0 0 21.9 14.9" style="enable-background:new 0 0 21.9 14.9;" xml:space="preserve">
<style type="text/css">
	.st0{fill:#006581;}
</style>
<path class="st0" d="M6.7,11.6c0.6,0,1-0.4,1-1V8.5h6.8v2.1c0,0.6,0.4,1,1,1s1-0.4,1-1V3.3C16.4,2.6,17,2,17.7,2
	C18.4,2,19,2.6,19,3.3v0.8c0,0.6,0.4,1,1,1s1-0.4,1-1V3.3C21,1.5,19.5,0,17.7,0c-1.8,0-3.3,1.5-3.3,3.3v3.2H7.7V3.3
	C7.7,2.6,8.3,2,9,2c0.7,0,1.3,0.6,1.3,1.3v0.8c0,0.6,0.4,1,1,1s1-0.4,1-1V3.3C12.3,1.5,10.8,0,9,0S5.7,1.5,5.7,3.3v7.3
	C5.7,11.2,6.1,11.6,6.7,11.6z"/>
<path class="st0" d="M20.9,12.9c-0.6,0-1.1-0.1-1.6-0.4c-0.6-0.4-1.2-0.6-1.9-0.6c-0.7,0-1.4,0.2-2,0.6c-0.3,0.3-0.8,0.4-1.2,0.4
	c-0.6,0-1.1-0.1-1.6-0.4c-0.6-0.4-1.2-0.6-1.9-0.6c-0.7,0-1.4,0.2-2,0.6c-0.3,0.3-0.8,0.4-1.2,0.4c-0.6,0-1.1-0.1-1.6-0.4
	c-0.6-0.4-1.2-0.6-1.9-0.6c-0.7,0-1.4,0.2-2,0.6c-0.3,0.3-0.8,0.4-1.2,0.4c-0.6,0-1,0.4-1,1s0.4,1,1,1c0.8,0,1.6-0.2,2.2-0.7
	c0.3-0.2,0.6-0.3,0.9-0.3c0.3,0,0.6,0.1,0.9,0.3c0.8,0.5,1.7,0.8,2.6,0.7c0.8,0,1.6-0.2,2.2-0.7c0.3-0.2,0.6-0.3,0.9-0.3
	c0.3,0,0.6,0.1,0.9,0.3c0.8,0.5,1.7,0.8,2.6,0.7c0.8,0,1.6-0.2,2.2-0.7c0.3-0.2,0.6-0.3,0.9-0.3c0.3,0,0.6,0.1,0.9,0.3
	c0.8,0.5,1.7,0.8,2.6,0.7c0.6,0,1-0.4,1-1S21.4,12.9,20.9,12.9L20.9,12.9z"/>
</svg>
