<svg id="Grupo_180" data-name="Grupo 180" xmlns="http://www.w3.org/2000/svg" width="26.224" height="26.224" viewBox="0 0 26.224 26.224">
  <g id="done_black_24dp" transform="translate(4.607 4.607)">
    <path id="Trazado_100" data-name="Trazado 100" d="M0,0H17.01V17.01H0Z" fill="none"/>
    <path id="Trazado_101" data-name="Trazado 101" d="M7.369,13.113,4.392,10.136l-.992.992L7.369,15.1l8.5-8.5L14.882,5.6Z" transform="translate(-0.99 -1.631)" fill="#299c21"/>
  </g>
  <g id="Trazado_102" data-name="Trazado 102" fill="none">
    <path d="M13.112,0A13.112,13.112,0,1,1,0,13.112,13.112,13.112,0,0,1,13.112,0Z" stroke="none"/>
    <path d="M 13.11181640625 0.9999961853027344 C 9.876626968383789 0.9999961853027344 6.835086822509766 2.259845733642578 4.547466278076172 4.547466278076172 C 2.259845733642578 6.835086822509766 0.9999961853027344 9.876626968383789 0.9999961853027344 13.11181640625 C 0.9999961853027344 16.34699630737305 2.259845733642578 19.38854598999023 4.547466278076172 21.67616653442383 C 6.835086822509766 23.96378707885742 9.876636505126953 25.22363662719727 13.11181640625 25.22363662719727 C 16.34699630737305 25.22363662719727 19.38853645324707 23.96378707885742 21.67616653442383 21.67616653442383 C 23.96378707885742 19.38853645324707 25.22363662719727 16.34699630737305 25.22363662719727 13.11181640625 C 25.22363662719727 9.876636505126953 23.96378707885742 6.835086822509766 21.67616653442383 4.547466278076172 C 19.38854598999023 2.259845733642578 16.34699630737305 0.9999961853027344 13.11181640625 0.9999961853027344 M 13.11181640625 -3.814697265625e-06 C 20.3532657623291 -3.814697265625e-06 26.22363662719727 5.870355606079102 26.22363662719727 13.11181640625 C 26.22363662719727 20.3532657623291 20.3532657623291 26.22363662719727 13.11181640625 26.22363662719727 C 5.870355606079102 26.22363662719727 -3.814697265625e-06 20.3532657623291 -3.814697265625e-06 13.11181640625 C -3.814697265625e-06 5.870355606079102 5.870355606079102 -3.814697265625e-06 13.11181640625 -3.814697265625e-06 Z" stroke="none" fill="#299c21"/>
  </g>
</svg>
