<svg id="Capa_1" data-name="Capa 1" xmlns="http://www.w3.org/2000/svg" viewBox="0 0 21.48 18.77"><defs><style>.cls-1{fill:#00658e;}</style></defs><title>AM_Iconos</title><path class="cls-1" d="M20.65,3.49l-.47-.37A14.76,14.76,0,0,0,11.1,0h-.71A14.76,14.76,0,0,0,1.3,3.13l-.47.37a2.16,2.16,0,0,0-.4,3h0a2.16,2.16,0,0,0,1.73.86H19.32A2.16,2.16,0,0,0,21,6.49h0A2.16,2.16,0,0,0,20.65,3.49ZM4.57,5.13C4.27,5.13,4,5,4,4.44A2.7,2.7,0,0,1,4.57,3.2a2.7,2.7,0,0,1,.55,1.24C5.12,5,4.88,5.13,4.57,5.13Zm5.75-1.27c-.3,0-.55-.15-.55-.68a2.7,2.7,0,0,1,.55-1.24,2.7,2.7,0,0,1,.55,1.24C10.87,3.7,10.62,3.85,10.32,3.85Zm6,1.27c-.3,0-.55-.15-.55-.68a2.7,2.7,0,0,1,.55-1.24,2.7,2.7,0,0,1,.55,1.24C16.83,5,16.59,5.13,16.29,5.13Z"/><path class="cls-1" d="M18.42,13.58h-16A2.45,2.45,0,0,1,0,11.13H0A2.45,2.45,0,0,1,2.45,8.68h7.87l2.82,3,3.69-3h1.59a2.45,2.45,0,0,1,2.45,2.45h0A2.45,2.45,0,0,1,18.42,13.58Z"/><path class="cls-1" d="M.34,14.81h20a0,0,0,0,1,0,0v1.44a2.53,2.53,0,0,1-2.53,2.53H2.87A2.53,2.53,0,0,1,.34,16.25V14.81A0,0,0,0,1,.34,14.81Z"/></svg>