<svg id="Capa_1" data-name="Capa 1" xmlns="http://www.w3.org/2000/svg" viewBox="0 0 21.33 16.9"><defs><style>.cls-1{fill:#00658e;}</style></defs><title>AM_Iconos</title><path class="cls-1" d="M16.16,9.59a7.76,7.76,0,0,0-11,0L3.23,7.65a10.5,10.5,0,0,1,14.88,0Zm-5.5-6.85a12.25,12.25,0,0,1,8.73,3.62l1.94-1.94A15.07,15.07,0,0,0,0,4.42L1.94,6.36a12.25,12.25,0,0,1,8.73-3.62m4.21,8.14a5.94,5.94,0,0,0-8.42,0L8.4,12.82a3.2,3.2,0,0,1,4.53,0Zm-4.21,2.36a1.83,1.83,0,1,0,1.83,1.83,1.83,1.83,0,0,0-1.83-1.83"/></svg>