<svg id="Capa_1" data-name="Capa 1" xmlns="http://www.w3.org/2000/svg" viewBox="0 0 11.14 18.22"><defs><style>.cls-1{fill:#38658C;}</style></defs><title>AM_Iconos</title><circle class="cls-1" cx="7.43" cy="1.5" r="1.5" transform="translate(-0.14 1.21) rotate(-9.21)"/><path class="cls-1" d="M6.7,3.48V4a.12.12,0,0,0,.15.11l.6-.19.6.19A.12.12,0,0,0,8.21,4V3.48a.12.12,0,0,0-.15-.11l-.6.19-.6-.19A.12.12,0,0,0,6.7,3.48Z"/><path class="cls-1" d="M.65,6.29a.22.22,0,0,0-.22.19.21.21,0,0,0,0,.13H.37A.36.36,0,0,0,0,6.94a.35.35,0,0,0,.35.38H3A.36.36,0,0,0,3.39,7,.35.35,0,0,0,3,6.61H3a.21.21,0,0,0,0-.13.22.22,0,0,0-.22-.19H2.64V5.45A.57.57,0,0,0,3,4.92V3.86a.16.16,0,0,0-.16-.16H2a.16.16,0,0,0-.16.16V4.92a.57.57,0,0,0,.36.53v.84H2.1a.22.22,0,0,0-.22.19.21.21,0,0,0,0,.13h-.4a.21.21,0,0,0,0-.13.22.22,0,0,0-.22-.19H1.19V5.45a.57.57,0,0,0,.36-.53V3.86a.16.16,0,0,0-.16-.16H.57a.16.16,0,0,0-.16.16V4.92a.57.57,0,0,0,.36.53v.84Z"/><path class="cls-1" d="M3,7.71H1.4s0,0,0,.06a.72.72,0,0,0,.72.72H4.5a.72.72,0,0,0,.72-.72V5.19a.3.3,0,0,1,.3-.26V17.35a.87.87,0,0,0,1.74,0V10.41h.38v6.94a.87.87,0,0,0,1.74,0c0-.26,0-7.74,0-8.86h1a.72.72,0,0,0,.72-.72V5.18h0a1.72,1.72,0,0,0-1.73-1.7H8.48c-.05.28-.37,1.85-1,1.85s-1-1.56-1-1.85H5.5a1.72,1.72,0,0,0-1.73,1.7h0v1.7A.74.74,0,0,1,3,7.71ZM9.38,4.92a.3.3,0,0,1,.31.26V7H9.38Z"/></svg>