<svg id="Capa_1" data-name="Capa 1" xmlns="http://www.w3.org/2000/svg" viewBox="0 0 21.08 21.04"><defs><style>.cls-1{fill:#00658e;}</style></defs><title>AM_Iconos</title><path class="cls-1" d="M.47,4.78l4.72,6.1A1.24,1.24,0,0,0,7,11l1-1,8.47,10.38a1.89,1.89,0,0,0,2.73.06h0a1.89,1.89,0,0,0,0-2.67L3.33,1.83a1.89,1.89,0,0,0-2.68,0h0A2.23,2.23,0,0,0,.47,4.78Z"/><path class="cls-1" d="M12.16,7.73,11,8.76l1.5,1.5,1-1.16A1.94,1.94,0,0,0,16.14,9L17,8.12l.29-.29,3.67-3.67a.46.46,0,0,0,0-.65l-.13-.13a.46.46,0,0,0-.65,0L16.5,7.06l-.85-.85,3.67-3.67a.46.46,0,0,0,0-.65l-.13-.13a.46.46,0,0,0-.65,0L14.87,5.43,14,4.58,17.7.91a.46.46,0,0,0,0-.65L17.57.13a.46.46,0,0,0-.65,0L13.25,3.81,13,4.1l-.84.84a2,2,0,0,0,0,2.76Z"/><path class="cls-1" d="M8.33,11.17.83,17.93a1.78,1.78,0,1,0,2.51,2.51l6.59-7.32Z"/></svg>