<svg id="Capa_1" data-name="Capa 1" xmlns="http://www.w3.org/2000/svg" viewBox="0 0 16.79 20.03"><defs><style>.cls-1{fill:#00658e;}</style></defs><title>AM_Iconos</title><path class="cls-1" d="M8.55,12.69l3-3a4.22,4.22,0,0,1-6,6Z"/><path class="cls-1" d="M14.21,0H2.58A2.58,2.58,0,0,0,0,2.58V20H16.79V2.58A2.58,2.58,0,0,0,14.21,0ZM6.27,1.58A1.21,1.21,0,1,1,5.06,2.79,1.21,1.21,0,0,1,6.27,1.58ZM1.56,2.79A1.21,1.21,0,1,1,2.77,4,1.21,1.21,0,0,1,1.56,2.79Zm7,15.84a5.94,5.94,0,1,1,5.94-5.94A5.94,5.94,0,0,1,8.55,18.63Z"/></svg>