<svg id="Capa_1" data-name="Capa 1" xmlns="http://www.w3.org/2000/svg" viewBox="0 0 21.88 14.88"><defs><style>.cls-1{fill:#00658e;}</style></defs><title>AM_Iconos</title><path class="cls-1" d="M6.68,11.62a1,1,0,0,0,1-1V8.5h6.76v2.12a1,1,0,0,0,2,0V3.29a1.29,1.29,0,0,1,2.58,0v.79a1,1,0,1,0,2,0V3.29a3.29,3.29,0,0,0-6.58,0V6.5H7.68V3.29a1.29,1.29,0,0,1,2.58,0v.79a1,1,0,0,0,2,0V3.29a3.29,3.29,0,0,0-6.58,0v7.33A1,1,0,0,0,6.68,11.62Z"/><path class="cls-1" d="M20.88,12.88a2.52,2.52,0,0,1-1.56-.45,3.35,3.35,0,0,0-1.9-.6,3.43,3.43,0,0,0-2,.65,1.89,1.89,0,0,1-1.18.4,2.52,2.52,0,0,1-1.56-.45,3.36,3.36,0,0,0-1.9-.6,3.43,3.43,0,0,0-2,.65,1.88,1.88,0,0,1-1.18.4,2.52,2.52,0,0,1-1.56-.45,3.35,3.35,0,0,0-1.9-.6,3.43,3.43,0,0,0-2,.65,1.88,1.88,0,0,1-1.18.4,1,1,0,0,0,0,2,3.83,3.83,0,0,0,2.25-.71,1.5,1.5,0,0,1,.91-.34,1.45,1.45,0,0,1,.86.31,4.46,4.46,0,0,0,2.6.74,3.83,3.83,0,0,0,2.25-.71,1.5,1.5,0,0,1,.91-.34,1.45,1.45,0,0,1,.86.31,4.47,4.47,0,0,0,2.6.74,3.83,3.83,0,0,0,2.25-.71,1.5,1.5,0,0,1,.91-.34,1.45,1.45,0,0,1,.86.31,4.47,4.47,0,0,0,2.6.74,1,1,0,0,0,0-2Z"/></svg>