<svg id="Capa_1" data-name="Capa 1" xmlns="http://www.w3.org/2000/svg" viewBox="0 0 14.59 14.59"><defs><style>.cls-1{fill:#38658C;}</style></defs><title>AM_Iconos</title><path class="cls-1" d="M11.91,0A2.69,2.69,0,0,0,9.24,2.4H2.88L1.35.31A.29.29,0,1,0,.89.65L2.18,2.4H.28a.28.28,0,0,0-.2.49L2.27,5.07h0L4.11,6.91l.57,1.35a.81.81,0,0,0,.85.59h.28v3.34L3.32,14.08a.28.28,0,0,0,.17.51H8.7a.28.28,0,0,0,.17-.51L6.38,12.19V8.85h.28a.81.81,0,0,0,.85-.59l.57-1.35L9.92,5.08h0l.3-.3A2.68,2.68,0,1,0,11.91,0ZM10.23,1.4l1,1H9.81A2.1,2.1,0,0,1,10.23,1.4ZM2.65,4.64,1,3H2.6L3.8,4.61l0,0A1.25,1.25,0,0,1,2.65,4.64ZM7.85,14H4.34L6.1,12.69ZM7,8c-.09.22-.12.24-.32.24H5.54c-.2,0-.23,0-.32-.24L4.78,7H7.41Zm.74-1.57H4.47L3.34,5.33a1.63,1.63,0,0,0,.73-.22,1.24,1.24,0,0,1,1.15,0A1.8,1.8,0,0,0,7,5.11a1.24,1.24,0,0,1,1.15,0,1.63,1.63,0,0,0,.73.22ZM9.55,4.64a1.25,1.25,0,0,1-1.13,0,1.8,1.8,0,0,0-1.75,0,1.24,1.24,0,0,1-1.15,0,1.78,1.78,0,0,0-1.15-.21L3.3,3h7.92Zm2.08.14a2.09,2.09,0,0,1-1-.41l1-1Zm0-2.78-1-1a2.1,2.1,0,0,1,1-.41ZM14,2.4H12.6l1-1A2.1,2.1,0,0,1,14,2.4ZM12.19.59a2.1,2.1,0,0,1,1,.41l-1,1Zm0,4.19V3.37l1,1A2.1,2.1,0,0,1,12.19,4.78ZM13.59,4l-1-1H14A2.1,2.1,0,0,1,13.59,4Z"/></svg>