<svg id="Capa_1" data-name="Capa 1" xmlns="http://www.w3.org/2000/svg" viewBox="0 0 15.25 20.82"><defs><style>.cls-1{fill:#00658e;}</style></defs><title>AM_Iconos</title><path class="cls-1" d="M4.64,15.64h6a.44.44,0,0,1,.29.77,11.7,11.7,0,0,0-3,4.16.44.44,0,0,1-.8,0A12.6,12.6,0,0,0,4.34,16.4.44.44,0,0,1,4.64,15.64Z"/><path class="cls-1" d="M7.63,15.25a7.63,7.63,0,1,1,7.63-7.63A7.64,7.64,0,0,1,7.63,15.25ZM7.63,1a6.63,6.63,0,1,0,6.63,6.63A6.63,6.63,0,0,0,7.63,1Z"/><path class="cls-1" d="M3.6,10.23A1.48,1.48,0,1,1,5.08,8.75,1.48,1.48,0,0,1,3.6,10.23Zm0-2a.48.48,0,1,0,.48.48A.48.48,0,0,0,3.6,8.27Z"/><path class="cls-1" d="M6.29,12.19a1.48,1.48,0,1,1,1.48-1.48A1.48,1.48,0,0,1,6.29,12.19Zm0-2a.48.48,0,1,0,.48.48A.48.48,0,0,0,6.29,10.23Z"/><path class="cls-1" d="M3.6,13.18a1.48,1.48,0,1,1,1.48-1.48A1.48,1.48,0,0,1,3.6,13.18Zm0-2a.48.48,0,1,0,.48.48A.48.48,0,0,0,3.6,11.21Z"/></svg>