<svg id="Capa_1" data-name="Capa 1" xmlns="http://www.w3.org/2000/svg" viewBox="0 0 16.77 16.77"><defs><style>.cls-1{fill:#38658C;}</style></defs><title>AM_Iconos</title><path class="cls-1" d="M15.72,11.38a.45.45,0,0,1,0,.9h-3a.45.45,0,0,1,0-.9Z"/><circle class="cls-1" cx="12.28" cy="9.28" r="1.5"/><circle class="cls-1" cx="1.8" cy="1.5" r="1.5"/><path class="cls-1" d="M.3,4.55a1,1,0,0,1,1-1H2.84a1,1,0,0,1,.61.22l4.5,3.75a.45.45,0,1,1-.57.69l-3-2.49A.3.3,0,0,0,3.89,6v2.4H.3V4.55Z"/><rect class="cls-1" y="8.98" width="2.4" height="3.29"/><path class="cls-1" d="M16.17,16.77H0V12.88H9.18l1.71,1.43a.3.3,0,0,0,.19.07h5.09v2.4Z"/><path class="cls-1" d="M16.32,13.78H11.19L9.48,12.35a.3.3,0,0,0-.19-.07H3V9H9A1.16,1.16,0,0,1,10.17,10l-.28,1a.3.3,0,0,0,.08.3l1.5,1.5a.3.3,0,0,0,.21.09h4.64a.45.45,0,1,1,0,.9Z"/></svg>