<svg id="Capa_1" data-name="Capa 1" xmlns="http://www.w3.org/2000/svg" viewBox="0 0 39.14 38.75"><defs><style>.cls-1{fill:#00658e;}.cls-2{fill:#afc620;}</style></defs><title>AM_Iconos</title><path class="cls-1" d="M15.54,27H23.6a0,0,0,0,1,0,0v0a3.89,3.89,0,0,1-3.89,3.89h-.28A3.89,3.89,0,0,1,15.54,27v0A0,0,0,0,1,15.54,27Z"/><path class="cls-1" d="M27.74,15.2a8.17,8.17,0,1,0-14.42,5.25h0L16,24.61h7.2l2.65-4.16h0A8.13,8.13,0,0,0,27.74,15.2Zm-8-4.08s-2.18-.38-3.37.81a4,4,0,0,0-1,3,.5.5,0,0,1-.43.56h-.07a.5.5,0,0,1-.49-.43,4.93,4.93,0,0,1,1.25-3.88c1.56-1.56,4.15-1.1,4.25-1.08a.5.5,0,0,1,.4.58A.51.51,0,0,1,19.69,11.12Z"/><path class="cls-2" d="M36.57,19.25c0,.16.2.1.23.12C36.75,19.11,36.52,19.26,36.57,19.25Z"/><polygon class="cls-2" points="35.88 16.73 35.97 16.77 35.7 16.43 35.88 16.73"/><path class="cls-2" d="M35.35,14.43c-.28.32.27.81.25,1.25l-.06.08.33.12A6.48,6.48,0,0,1,35.35,14.43Z"/><path class="cls-2" d="M35.64,13c-.1.13-.21-.22.07.3a.44.44,0,0,1,0-.06A2.13,2.13,0,0,1,35.64,13Z"/><path class="cls-2" d="M35.72,13.19c.1.24,0-.2,0,0Z"/><path class="cls-2" d="M35.18,12.12l.26.26c0-.1-.07-.38,0-.31C35.25,11.78,35.21,11.88,35.18,12.12Z"/><path class="cls-2" d="M34.8,11.94l.12.13S34.93,12,34.8,11.94Z"/><path class="cls-2" d="M35.19,12.37l-.26-.29c0,.07-.13.12.11.14C34.93,12.23,35,12.25,35.19,12.37Z"/><path class="cls-2" d="M35.23,12.58c0,.2,0,.45-.19.18C35.31,13.34,35.53,13.16,35.23,12.58Z"/><path class="cls-2" d="M35,14.43a2.11,2.11,0,0,1,0,.26l.17.17C35,14.77,35.07,14.38,35,14.43Z"/><path class="cls-2" d="M34.32,10.15c-.08,0-.11.21-.18.28l.21.17C34.32,10.46,34.23,10.23,34.32,10.15Z"/><path class="cls-2" d="M34.14,10.43l-.3-.25C34,10.47,34.07,10.49,34.14,10.43Z"/><polygon class="cls-2" points="34.42 12.06 34.93 12.49 34.37 11.96 34.42 12.06"/><polygon class="cls-2" points="33.5 8.95 33.77 9.02 33.33 8.86 33.5 8.95"/><path class="cls-2" d="M32.88,8.2c.22,0,0-.32.22-.25a1.79,1.79,0,0,0-.67-.34A1.08,1.08,0,0,1,32.88,8.2Z"/><path class="cls-2" d="M32.09,7.46a2.18,2.18,0,0,0,.35.14A1,1,0,0,0,32.09,7.46Z"/><path class="cls-2" d="M33.51,9.63a.4.4,0,0,0,0-.36l-.09.24Z"/><path class="cls-2" d="M33.42,9.52h0l-.18-.26Z"/><path class="cls-2" d="M33.53,9.66l0,0S33.5,9.67,33.53,9.66Z"/><path class="cls-2" d="M34.15,11.12c-.22-.13-.56-.44-.49,0C33.86,11.2,33.82,10.94,34.15,11.12Z"/><path class="cls-2" d="M33.42,10c.06.11.11.24.17.36,0,0,.08-.14.18-.08C33.65,10.14,33.54,10,33.42,10Z"/><polygon class="cls-2" points="33.25 9.84 33.42 9.96 33.35 9.83 33.25 9.84"/><path class="cls-2" d="M32.41,8.11a1.37,1.37,0,0,1-.47-.34,3.8,3.8,0,0,0,.41.55C32.42,8.29,32.58,8.28,32.41,8.11Z"/><path class="cls-2" d="M32.91,8.79l0,0S32.88,8.82,32.91,8.79Z"/><polygon class="cls-2" points="30.43 6.33 30.43 6.38 30.46 6.36 30.43 6.33"/><path class="cls-2" d="M32.34,8.36a.42.42,0,0,0,.31.22,2.66,2.66,0,0,1-.3-.28S32.3,8.33,32.34,8.36Z"/><path class="cls-2" d="M31.61,7.11l.13.29C31.73,7.29,31.68,7.09,31.61,7.11Z"/><path class="cls-2" d="M32.89,8.68h0C32.91,8.63,32.9,8.65,32.89,8.68Z"/><path class="cls-2" d="M32.89,8.68a.89.89,0,0,0-.24-.1,1.51,1.51,0,0,0,.23.18A.29.29,0,0,1,32.89,8.68Z"/><path class="cls-2" d="M29.1,7c.13-.13.61,0,.73.37.36.12.62-.51.61-1-.07.06-.11.11-.49,0,.05.15.48.74.13.66-.43-.25-.27-.31-.4-.54,0,.32-.72-.09-.85.27l.41.15S29,6.92,29.1,7Z"/><path class="cls-2" d="M31,6.89l.14.09a1.59,1.59,0,0,1-.23-.58c-.26-.11-.35-.09-.41-.05l.57.55Z"/><path class="cls-2" d="M31.63,7.48c-.23.05-.58-.13-.57.19.34.31.35.1.61.24-.54-.52.23.08,0-.41a2.32,2.32,0,0,1,.32.26,3.57,3.57,0,0,1-.2-.36v0h0s0,.06,0,0h0l-.08,0c-.12-.19,0-.07.08,0l0,0h0c-.2-.16-.43-.29-.64-.44A4.1,4.1,0,0,0,31.63,7.48Z"/><path class="cls-2" d="M33.06,11.05a.06.06,0,0,1,0,0S33,11,33.06,11.05Z"/><path class="cls-2" d="M33,10.73c.05,0,.15,0,.22.18s-.09.05-.14.1c.1.06.32.23.24-.1l-.05,0c-.09-.29-.06-.76,0-.74A1.64,1.64,0,0,0,33,10.73Z"/><path class="cls-2" d="M32.37,9.1a4.93,4.93,0,0,0-.48-.4l.07.35L32,9C32.22,9.26,32.27,9.13,32.37,9.1Z"/><path class="cls-2" d="M30.45,6.2l.21-.12c-.16,0-.33,0-.49,0Z"/><polygon class="cls-2" points="29.77 5.72 29.91 5.58 29.66 5.54 29.77 5.72"/><path class="cls-2" d="M7,26.81l.13.11A.6.6,0,0,0,7,26.81Z"/><path class="cls-2" d="M6.48,25.78l-.1,0C6.45,25.82,6.49,25.82,6.48,25.78Z"/><path class="cls-2" d="M10.61,4.9c-.33,0-.76-.09-.6.08l.19.14A.81.81,0,0,1,10.61,4.9Z"/><path class="cls-2" d="M4.14,16.28l.08-.06L4.05,16C4.08,16.09,4.1,16.18,4.14,16.28Z"/><path class="cls-2" d="M5,16.62l-.18.29A1.16,1.16,0,0,0,5,16.62Z"/><path class="cls-2" d="M11.45,31.23l.27-.08C11.48,31,11.53,31.15,11.45,31.23Z"/><path class="cls-2" d="M22,2.58a2.1,2.1,0,0,0-.57-.22C21.69,2.53,21.89,2.75,22,2.58Z"/><path class="cls-2" d="M4.76,27.53c.09.08.16.1.2.07S4.79,27.48,4.76,27.53Z"/><path class="cls-2" d="M20.74,2.32l.12.06a1.55,1.55,0,0,1,.56,0A.65.65,0,0,0,20.74,2.32Z"/><path class="cls-2" d="M31.64,27.51l0,0S31.65,27.48,31.64,27.51Z"/><path class="cls-2" d="M36.15,21.6a2.59,2.59,0,0,1,0,.31A.8.8,0,0,0,36.15,21.6Z"/><path class="cls-2" d="M27,3.91c.17.06,0,0,0,0Z"/><path class="cls-2" d="M27.32,5a.14.14,0,0,0-.11.06A.18.18,0,0,1,27.32,5Z"/><path class="cls-2" d="M19,3.64h0S19.06,3.67,19,3.64Z"/><path class="cls-2" d="M27.15,4.11A1.18,1.18,0,0,0,27,4Z"/><path class="cls-2" d="M27.17,4l.13.09S27.33,4,27.17,4Z"/><path class="cls-2" d="M26.73,3.81A1.38,1.38,0,0,1,27,4s0,0,0,0Z"/><path class="cls-2" d="M21.56,34.36l0,0C21.74,34.27,21.67,34.29,21.56,34.36Z"/><polygon class="cls-2" points="8.74 9.33 8.75 9.31 8.73 9.32 8.74 9.33"/><path class="cls-2" d="M8.5,9.84c0-.35.07-.43.23-.52L8.14,9Z"/><path class="cls-2" d="M8.7,29l-.11-.41c.55.12.67.43.65,0-.26.2-.54,0-.77-.31s-.46-.56-.75-.38l0-.28c0,.06.08,0,.11.11,0-.57-.62,0-.87-.61-.07-.22-.07-.4.08-.31l-.4-.34c-.06-.13.06-.15.12,0-.14-.21-.25-.43-.38-.64h0a2.86,2.86,0,0,1-.51-.28c0-.21.11.06.16,0-.11-.1-.23-.21-.33-.32.1-.23.38,0,.49.29.45-.62-.32-.24-.23-1.17l.21.33c.28-.37,0-.6.13-1.07-.09.12-.28,1-.59.64a.6.6,0,0,0-.24-.49c.23-.07.12-.28,0-.56l.31-.06c-.17-.28-.32-.21-.51-.36-.06-.35.16-.47.36-.59,0-.56-.33.46-.49-.19.06-.49-.16-.79-.38-1.34.09-.34.2,0,.28-.08l-.27-.28c0-.07.08-.05.12,0-.11-.24-.32,0-.43-.4-.17,0-.07-.26.06-.51s.27-.54.08-.8c.1-.12.19.07.32,0a8.61,8.61,0,0,0-.44-1.18l.28-.44c-.29.31-.5-.18-.67-.63a2.93,2.93,0,0,0-.31.26,4.89,4.89,0,0,1,0-.69c.07-.07.16,0,.27.16l0-.13c.17-.2.32,0,.46.16l-.25.18c.17.2.36.38.54.38a.49.49,0,0,1-.05-.22c0,.05.09.08.12.07s0-.09-.08-.21l.38-.06L5,16.12l.42-.72a3.8,3.8,0,0,1-.3-2.27c.14.32.37.21.65.35-.4.11-.12.73-.35,1.14.12-.22.24-.12.27,0v-.9c.23.11.23-.1.43-.25-.53-.05,0-.71,0-1.1.16.06.27.21.06.57.54-.24-.28-.83.26-1.07-.05.09-.1.13,0,.2,0-.28.41-.74.46-.54l-.05.09C7.15,11,8,9.89,7.73,9.53a3.42,3.42,0,0,1,.38.48,18.74,18.74,0,0,1-.22-1.89c.19.33,1.09.63.86,1.19a1,1,0,0,0,.47-.52c-.12,0-.58-.18-.49-.31a3.62,3.62,0,0,0,1-.14c-.18.05-.42-.5-.21-.67,0,.09.38.41.35.52A7.09,7.09,0,0,1,10,7.34c-.07.18.28.39.49.43-.12,0,.46-.33.56-.48l-.3.06c.63-.38.16-1.08.83-1.46,0,.15.18.73.53.6a3.07,3.07,0,0,1,.58-2.1l.19.09a4.63,4.63,0,0,1,.43-.39c-.17.52-.6,1.77-.84,2.27.31,0,.16.14.52-.05.2.08-.09.3-.19.36l.88-.31c-.09-.14,0-.3.17-.45s.29-.26.22-.39a8.26,8.26,0,0,0-.81.74c-.19-.27.13-1.17.84-1.33.21.06.09.61.14.7,0-.14.53-.43.62-.37l-.21.27c.39,0,.44-.64,1-.44.16,0,.56.3.53.1a2.77,2.77,0,0,1-.58-1.77,3.68,3.68,0,0,1,1.18.31c.32.26-.27.77,0,1,0-.09.12-.22.17-.27s0,.29.33.2c0-.35.74-.08.13-.31.34-.14.38,0,.8,0-.16-.21.32-.77.7-.88,0,.09.07.2.11.25.76,0,1.17.21,1.87.23.06.08.38.21.23.34a.65.65,0,0,1,.42-.12c.37.35-.47,0-.21.37,0-.19.57-.19.9-.26,0-.32-.7-.17-1-.09,0-.42.63-.78,1.44-.85.63,0,.2.32.32.28,1.07.37,1.16-.51,2,.11.27.39-.16.51-.14.72-.48-.08-.65-.41-1-.47l.36.22A.9.9,0,0,1,23.55,4c.24.28,1.8.57,2.48,1.16.17,0,.45,0,.38-.14L26.15,5c-.14-.31.59,0,.32-.29a1.8,1.8,0,0,1,1.31.37l-.07.32c0-.08-.21-.34-.38-.33.26,0,.48.78.89.56L28,5.22c.4.07,1,0,1.34.41,0-.38-.11,0-.19-.54,0,.52-1.06-.67-.89,0-.1-.53-.42-.49-.68-1,0,.1.06.24-.29,0l-.12,0,0,0,0,0s0,0,0,0a.44.44,0,0,1,.12.23c-.29.12-.86-.17-1.1-.15-.2-.15.14-.06.06-.22l-.37,0c.06-.22-.47-.57.12-.49l-.48-.19a1.49,1.49,0,0,0-.91-.41c-.23-.11-.67.08-.41,0l-.82-.07V2.79a4.68,4.68,0,0,0-1.24-.1,3.23,3.23,0,0,1-1.29-.31,2.55,2.55,0,0,1-1,0l-.09-.2c-.35,0-1.06-.15-1.2,0-.42-.54-1.71.06-2.33.07l0,.25A4.7,4.7,0,0,0,15,3l.09.21c-.38.26-1.13.19-1.79.45,0-.1.19-.14.33-.13A1.4,1.4,0,0,0,12.42,4a2,2,0,0,1-1.09.6.54.54,0,0,1-.4.24l0,0-.07,0-.29,0a.94.94,0,0,0,.25,0,2.83,2.83,0,0,0-.45.38l-.21-.15,0,0c-.23,0-.08.18.11.28a.84.84,0,0,0-.15.28c-.36-.21-.37.44-.81.25,0,.12-.19.32-.36.53s-.29.48-.19.67c0,0-.11,0,0-.09a1,1,0,0,0-.49.48L8,7.38A5.65,5.65,0,0,0,7.89,8c-.34.1-.51.13-.47-.27-.25.81-.32.55-.47,1.26l-.13-.15c-.13.19-.14.64-.35.65C5.8,9.7,5,11.6,4.15,12.68c.63,0-.49.47-.07.7-.15,0-.29.17-.33-.08-.1.69-.59.91-.33,1.48-.15,0-.16-.2-.25-.15s.06.25,0,.29-.09-.13-.12-.25c-.16.7.24.87.62,1-.28.29-.28.47-.06.77-.15.09-.31.27-.29-.16-.05.23-.42,1.44-.09,1.49-.08.07,0,.33,0,.4a8.21,8.21,0,0,0-.07,1.11l.06-.15c.37.21.08.43.15.85h0c-.21,1,.12.4-.08,1.39l.23-.08c.52,0-.18.87.11,1.4l.1-.22c.21.25-.49,1-.47,1.31,0,.08-.1-.09-.15-.17-.09.89.33,0,.55.59-.13.16-.46,0-.36.39,0,.25.91,1,.84,1.58.07-.17.13-.32.34-.11s.05,1.28.62,1.42a.14.14,0,0,1,0,.12c.26.23.71.83,1,.87-.5.73,1.51,1.38.95,1.82l.71.72-.07,0a1.2,1.2,0,0,0,1,.53c.07.14-.05.12-.09.14a1.86,1.86,0,0,0,1.57.94l-.08.25c.23,0,.93,1.09,1.9,1.28a.18.18,0,0,1-.14.05,5,5,0,0,1,1.5.83c.48.28.93.46,1.24.1a6.41,6.41,0,0,0,.72,0c-.82-.29.23-.34-.07-.58.33,0,.77.48.36.42l-.05-.06c-.27.41,1,.44.92.73a20.11,20.11,0,0,0,5.09.47l-.23-.34.56-.06c.16.06.24.25-.17.3.24.17.66-.28.65-.36.82,0-.24.47,0,.44l.33-.08-.08,0c.24-.2.24-.32.72-.43.32,0,.21.18.33.16s0,0,.19,0l.72-.15-.36-.2c.27-.21.65-.16.24-.38.3.18.95,0,1.56-.24a9,9,0,0,1,1.3-.57,3.61,3.61,0,0,1,1.15-.87c-.15,0-.38-.22,0-.42.24.67.86-.23,1.45-.09-.23,0,0-.24.25-.46s.39-.46,0-.45c.32-.22.18.18.5.09.53-.8,1.63-1.31,2.28-2.31-.06-.07-.28,0-.24-.27l.72-.23c.1-.22-.27-.45.19-.64-.09,0-.23,0-.18-.12a8.08,8.08,0,0,0,1.64-3c.18-.55.39-1.09.56-1.65a16.47,16.47,0,0,1,.71-1.64c-.22.29-.2.07-.17-.16-.06.15-.21,0-.34,0,.15-.3.32-.6.46-.91-.32-.2,0-1-.28-1.15l0,.3c-.35-.41-.86.51-1.33.4.43.47-.76,1-.25,1.75-.12.13-.13-.16-.25-.1.19.21.16.42,0,.77l0-.05A7.13,7.13,0,0,1,33,25.37l.25,0a.93.93,0,0,1-.34.32c.2.42.33-.64.58-.24-.3.06-.49.46-.69.86s-.47.73-.75.69c-.2.33.29,0,.09.38h-.18l.11.19a.41.41,0,0,1-.51.13s.08-.16.11-.22c-.34.16-.51.77-.62.83l.3-.24c-.5,1-1.57,1.74-2.15,2.65l.13,0c-.48.68-.58.3-1.22.91v0a.94.94,0,0,1-.46.48c.12-.22-.49,0-.32-.27-.62.63-.26.38-.57,1l-.21-.11a.83.83,0,0,1-.46.56c.26-.3-.37-.13-.1-.5-1,0-1.12.89-1.71.5-.24.63.84,0,.66.18.25.09-.2.48-.5.54s-.69-.48-1.38-.29c.07,0,.07-.05.14-.07-.29-.07-.48.33-.85.16-.13.33-.43,0-.43.45l.66-.19c-.36.16-.66.67-1.33.55a1.16,1.16,0,0,1,.34-.3c-.2-.09-.35.14-.55,0,0-.38.81-.21,1.17-.56-.22-.14-.72.4-.58-.06-.11.29-.29.3-.5.3a.74.74,0,0,0-.68.16l0-.24a.88.88,0,0,1-.38.16l.25-.32c-.39.28-.76-.17-1.13-.07.79,0,.17.3.51.47-1,.29-.56-.64-1.64-.58.15,0,.54.17.3.27a1.12,1.12,0,0,1-.58-.33c-.72-.06.08.26-.25.36-.2-.32-.37.06-.71.1l0-.24c-.79-.31-.32.45-1,.09l.39-.24h-.4l.15-.25a1,1,0,0,1-.95-.19c0,.2-.19.4-.55.27-.19-.22.21-.17-.3-.32.17-.1.35-.23.49.05,0-.07.16-.1.21-.17-.2-.25-.61-.27-.79-.33a.45.45,0,0,1,.17.12,5.34,5.34,0,0,1-.83,0c-.07-.13,0-.16.16-.18a3,3,0,0,1-.5-.07c.14-.15.22-.34.54-.29l-.73-.11c0-.09-.21-.37-.1-.39-.26-.3-1-.16-1.37-.58a.31.31,0,0,1-.21,0,3.07,3.07,0,0,0-1.18-1v-.48c-.39-.25,0,.63-.62.21-.48-.29.06-.35,0-.55-.3-.07-.89-.18-1-.74C8.53,28.79,8.58,28.91,8.7,29Zm-3-4.79c.09.09.31.24.2.36C5.61,24.56,5.7,24.42,5.71,24.22Zm-.91-8.7c.06.1,0,.22-.14.34A.61.61,0,0,1,4.8,15.52ZM25.1,3.35h0C24.85,3.17,24.93,3.24,25.1,3.35Zm.52.3c.07,0,.08,0,.06-.08s-.19,0-.32-.07C25.38,3.58,25.43,3.65,25.62,3.66Zm-2,32-.12,0C23.69,35.47,23.63,35.55,23.58,35.63Z"/><path class="cls-2" d="M4.89,16.58a.26.26,0,0,1-.14,0C4.79,16.65,4.84,16.66,4.89,16.58Z"/><path class="cls-2" d="M11.39,31.24h0l0,0Z"/><path class="cls-2" d="M17,4.8a.46.46,0,0,1-.23-.09C16.79,4.77,16.85,4.81,17,4.8Z"/><path class="cls-2" d="M28.62,4.69l-.36-.15a.6.6,0,0,1,.25.25C28.54,4.74,28.52,4.63,28.62,4.69Z"/><path class="cls-2" d="M30.27,7.81c.06,0,.08.07.14.08l.07-.09C30.31,7.66,30.13,7.62,30.27,7.81Z"/><path class="cls-2" d="M28.49,5.55c-.09.19.16.23.38.36l0,0C29.06,5.7,28.78,5.61,28.49,5.55Z"/><path class="cls-2" d="M28.92,5.94a1,1,0,0,1,.19.14C29.21,6,29.05,6,28.92,5.94Z"/><path class="cls-2" d="M26.37,3.81c.09.1.18-.2.21-.1C26.81,3.53,25.68,3.64,26.37,3.81Z"/><polygon class="cls-2" points="28.3 6.22 28.36 5.96 28.13 6.06 28.3 6.22"/><path class="cls-2" d="M26.69,5.08l.33.23s.07,0,.14,0C26.93,5.18,26.71,5,26.69,5.08Z"/><path class="cls-2" d="M27.15,5.29a.75.75,0,0,0,.3.13A1.16,1.16,0,0,0,27.15,5.29Z"/><polygon class="cls-2" points="27.8 6 27.73 5.89 27.5 5.73 27.8 6"/><path class="cls-2" d="M22.64,3.65H22.2c-.06.08.05.15.22.14S22.69,3.74,22.64,3.65Z"/><path class="cls-2" d="M23.74,4.62c-.1-.08-.09-.13-.13-.23l-.09.3Z"/><path class="cls-2" d="M22.54,4.4c-.06.08-.64.15-.12.21C22.48,4.53,22.9,4.54,22.54,4.4Z"/><polygon class="cls-2" points="16.21 4.08 16.32 4.05 16.2 3.56 16.21 4.08"/><path class="cls-2" d="M11.67,7.29c.47-.14-.07-.32.37-.41,0-.16-.37.08-.32-.07C11.54,7.06,11.38,7.08,11.67,7.29Z"/><path class="cls-2" d="M11.72,6.8l.09-.14A.47.47,0,0,0,11.72,6.8Z"/><polygon class="cls-2" points="36.54 20.35 36.66 20 36.48 20.22 36.54 20.35"/><path class="cls-2" d="M36.2,19.66l.33-.08-.28-.21C36.25,19.45,36.27,19.6,36.2,19.66Z"/><path class="cls-2" d="M6.08,23.23H6c-.07.07-.06.14,0,.27Z"/><polygon class="cls-2" points="7.48 26.96 7.45 26.9 7.27 27.17 7.48 26.96"/><path class="cls-2" d="M9.86,29.33a2.76,2.76,0,0,1-.33-.28C9.76,29.24,9.64,29.61,9.86,29.33Z"/></svg>