<svg id="Capa_1" data-name="Capa 1" xmlns="http://www.w3.org/2000/svg" viewBox="0 0 11.85 18.22"><defs><style>.cls-1{fill:#38658C;}</style></defs><title>AM_Iconos</title><path class="cls-1" d="M6.14,1.64a.59.59,0,0,1-.54,0,1.7,1.7,0,0,0-1.38,0,.59.59,0,0,1-.54,0,1.41,1.41,0,1,0,2.45,0Z"/><path class="cls-1" d="M7.06,8.72h-1V10a.8.8,0,0,1-.8.8H4.55a.8.8,0,0,1-.8-.8V8.72h-1l-.53,3.08a1.07,1.07,0,0,1,.53.64H3.1V17.4a.82.82,0,0,0,1.64,0V12.45h.35V17.4a.82.82,0,0,0,1.64,0V12.45h.53A.38.38,0,0,0,7.63,12Z"/><path class="cls-1" d="M3.85,1.21a.16.16,0,0,0,.2.07,2.13,2.13,0,0,1,1.73,0A.16.16,0,0,0,6,1.21L6.34.51A.15.15,0,0,0,6.27.3,3.22,3.22,0,0,0,3.55.3a.15.15,0,0,0-.07.21Z"/><path class="cls-1" d="M5.41,4.06a.7.7,0,0,1-1.05,0,.09.09,0,0,0-.09,0l-.43.13a.09.09,0,0,0-.05.13l.31.51a.43.43,0,0,0,.6.14l.19-.12L5.07,5a.43.43,0,0,0,.6-.14L6,4.3a.09.09,0,0,0-.05-.13L5.5,4A.09.09,0,0,0,5.41,4.06Z"/><circle class="cls-1" cx="4.9" cy="5.41" r="0.18"/><circle class="cls-1" cx="4.9" cy="6.09" r="0.18"/><path class="cls-1" d="M11.62,17a.54.54,0,0,0-.52-.42h-1V8.87a.68.68,0,0,0,0-1.36V5.58a.37.37,0,0,0-.34-.37.36.36,0,0,0-.38.36V7.5H8.3c-.19-.53-.5-1.4-.63-1.78A1.93,1.93,0,0,0,6.61,4.4c0,.93-.79,2.2-1.69,2.2S3.27,5.33,3.22,4.4A1.93,1.93,0,0,0,2.15,5.7C1.66,7.13.55,10.18.54,10.21A.68.68,0,0,0,.83,11v1.09H.63a.63.63,0,0,0-.63.63v.94a.26.26,0,0,0,.26.26H2.11a.26.26,0,0,0,.26-.26v-.94a.63.63,0,0,0-.63-.63H1.54V11a.68.68,0,0,0,.27-.34S2.46,8.93,3,7.46l-.15.84H7l-.15-.84.34.94a.68.68,0,0,0,.63.45l1.61,0V16.6h-1a.54.54,0,0,0-.52.42l-.23,1a.13.13,0,0,0,.13.16H10a.13.13,0,0,0,.13-.13v-.67l.14.7a.13.13,0,0,0,.13.11h.24a.13.13,0,0,0,.13-.13v-.8l.21.83a.13.13,0,0,0,.13.1h.65a.13.13,0,0,0,.13-.16Z"/></svg>