<svg id="Capa_1" data-name="Capa 1" xmlns="http://www.w3.org/2000/svg" viewBox="0 0 25.85 20.23"><defs><style>.cls-1{fill:#00658e;}</style></defs><title>AM_Iconos</title><path class="cls-1" d="M13.94,20.23H.34S-.78,16.8,1,14.4A4.53,4.53,0,0,1,6,12.61c1.93.52,4.12.73,5.85-.21a.39.39,0,0,1,.58.39c-.23,1.53-.35,4.64,1.83,6.57A.49.49,0,0,1,13.94,20.23Z"/><circle class="cls-1" cx="8.59" cy="4.81" r="4.81"/><path class="cls-1" d="M20.24,8.76a5.61,5.61,0,1,0,5.61,5.61A5.61,5.61,0,0,0,20.24,8.76Zm2.24,6.61H20.17a.5.5,0,0,1-.5-.5V11.76a.5.5,0,0,1,1,0v2.61h1.81a.5.5,0,0,1,0,1Z"/></svg>