<svg id="Capa_1" data-name="Capa 1" xmlns="http://www.w3.org/2000/svg" viewBox="0 0 22.31 12.62"><defs><style>.cls-1{fill:#38658C;}</style></defs><title>AM_Iconos</title><path class="cls-1" d="M20.21,4,17.66.58A1.46,1.46,0,0,0,16.49,0h-15A1.46,1.46,0,0,0,0,1.46v8.73a.49.49,0,0,0,.49.49h2a2.43,2.43,0,0,0,4.75,0h7.86a2.43,2.43,0,0,0,4.75,0h2a.49.49,0,0,0,.49-.49V7.76A3.71,3.71,0,0,0,20.21,4ZM2.43,3.88V2.43h3.4V3.88Zm2.43,7.76a1.46,1.46,0,1,1,1.46-1.46A1.46,1.46,0,0,1,4.85,11.64Zm6.31-7.76H6.79V2.43h4.37Zm2.43.36V2.07h3.21l1.3,2.17Zm3.88,7.4a1.46,1.46,0,1,1,1.46-1.46A1.46,1.46,0,0,1,17.46,11.64Z"/></svg>